<svg xmlns="http://www.w3.org/2000/svg" width="307" height="161" fill="none"><rect width="306" height="158" x=".5" y=".5" fill="#F3F5FB" stroke="#E0E0E0" rx="15.5"/><g clip-path="url(#a)"><path fill="#454545" d="m176.188 77.1-13.98-14.233-6.164-6.277-18.586-18.923-3.231-3.29-3.414-3.477-3.232 3.29 5.294 5.413v30.73c0 2.567 2.063 4.667 4.583 4.667h30.182l5.293 5.39zm-38.73-6.767V44.27l15.675 15.96-1.925 2.45-4.583-6.347-6.875 9.334h18.723l4.583 4.666zm6.486-32.666L139.36 33h30.182c2.521 0 4.583 2.1 4.583 4.667v30.73l-4.583-4.667V37.667z"/></g><path fill="#454545" d="M111.586 94.031V111h-3.047l-7.453-10.781h-.141V111H97.43V94.031h3.093l7.407 10.781h.164v-10.78zm18.398 8.485c0 5.531-3.445 8.718-7.922 8.718-4.523 0-7.945-3.211-7.945-8.718 0-5.532 3.422-8.72 7.945-8.72 4.477 0 7.922 3.188 7.922 8.72m-3.586 0c0-3.633-1.71-5.602-4.336-5.602-2.624 0-4.359 1.969-4.359 5.602s1.735 5.601 4.359 5.601c2.626 0 4.336-1.969 4.336-5.601m15.164-8.485V111h-3.515V94.031zm2.86 0h4.359l4.711 11.508h.188l4.711-11.508h4.359V111h-3.422V99.89h-.14l-4.43 11.04h-2.344l-4.43-11.086h-.14V111h-3.422zM168.445 111h-3.797l5.883-16.969h4.524L180.914 111h-3.773l-1.266-3.914h-6.141zm2.18-6.656h4.359l-2.132-6.492h-.118zm22.687-4.852c-.468-1.594-1.757-2.578-3.609-2.578-2.625 0-4.406 2.016-4.406 5.578 0 3.586 1.734 5.625 4.43 5.625 2.425 0 3.867-1.371 3.914-3.515h-3.68v-2.649h7.078v2.109c0 4.454-3.047 7.172-7.336 7.172-4.758 0-7.992-3.328-7.992-8.695 0-5.508 3.445-8.742 7.922-8.742 3.82 0 6.773 2.344 7.242 5.695zM199.617 111V94.031h11.391v2.906h-7.875v4.125h7.289v2.907h-7.289v4.125h7.898V111zM82.128 125.525v1.295h-13.58v-1.295zm-1.577-2.573v1.278H70.24v-5.163h10.21v1.295h-8.65v2.59zm-5.23 5.03c3.204 0 5.13.98 5.13 2.706 0 1.727-1.926 2.707-5.13 2.69-3.22.017-5.163-.963-5.163-2.69s1.943-2.706 5.163-2.706m0 1.212c-2.274.017-3.569.548-3.569 1.494 0 .947 1.295 1.478 3.57 1.478 2.24 0 3.552-.531 3.552-1.478 0-.946-1.311-1.477-3.553-1.494m21.516-2.54v1.279H83.224v-1.279h6.026v-1.411h-4.283v-3.785h8.583v-1.328h-8.616v-1.245h10.193v3.735h-8.6v1.395h8.899v1.228H90.81v1.411zm-1.627 2.325v4.316h-1.594v-3.055h-8.865v-1.261zm11.389-5.678v1.278h-2.906v1.876a61 61 0 0 0 3.852-.282l.116 1.162c-3.171.432-6.657.515-9.446.515l-.216-1.262a183 183 0 0 0 4.134-.067v-1.942h-2.806v-5.097h7.139v1.279h-5.562v2.54zm3.669-4.765v11.156h-1.578v-11.156zm.464 13.281v1.279h-10.276v-4.2h1.577v2.921zm18.362-13.281v14.908h-1.577v-14.908zm-7.952 1.112c2.208 0 3.835 2.026 3.835 5.213 0 3.204-1.627 5.23-3.835 5.23-2.242 0-3.852-2.026-3.852-5.23 0-3.187 1.61-5.213 3.852-5.213m0 1.412c-1.378 0-2.325 1.461-2.325 3.801 0 2.358.947 3.819 2.325 3.819 1.361 0 2.307-1.461 2.307-3.819 0-2.34-.946-3.801-2.307-3.801m18.129-1.096v9.778h-6.973v-9.778zm-5.413 1.245v7.255h3.885v-7.255zm9.928-2.673v14.908h-1.577v-14.908zm7.853 4.383c0 2.49 1.627 5.063 3.918 6.043l-.864 1.228c-1.751-.772-3.146-2.407-3.835-4.399-.689 2.125-2.091 3.935-3.818 4.781l-.913-1.245c2.241-1.046 3.901-3.851 3.918-6.408v-1.577h-3.403v-1.312h8.383v1.312h-3.386zm6.84-4.383v14.875h-1.578v-14.875zm13.961 0v5.927h2.308v1.311h-2.308v7.621h-1.577v-14.859zm-3.884 1.561c-.017 4.299-1.91 8.134-6.807 10.558l-.88-1.228c3.727-1.86 5.753-4.549 6.076-8.019h-5.329v-1.311zm14.31 7.155v1.727h2.324v-1.727h1.461v5.977h-5.262v-5.977zm0 4.748h2.324v-1.826h-2.324zm8.102-3.636c0 1.561.863 3.138 2.706 3.785l-.814 1.196c-1.344-.515-2.216-1.486-2.672-2.673-.499 1.162-1.378 2.141-2.657 2.673l-.797-1.196c1.793-.73 2.673-2.307 2.673-3.785v-1.212h1.561zm-7.156-9.197c1.959 0 3.47 1.112 3.802 2.772h2.906v-3.403h1.577v7.886h-1.577v-3.188h-2.889c-.324 1.71-1.843 2.823-3.819 2.823-2.274 0-3.901-1.395-3.901-3.453 0-2.026 1.627-3.437 3.901-3.437m0 1.312c-1.411 0-2.39.863-2.39 2.125 0 1.278.979 2.158 2.39 2.174 1.378-.016 2.358-.896 2.358-2.174 0-1.262-.98-2.125-2.358-2.125m13.813 6.972v1.577h6.989v-1.577h1.577v5.778h-10.127v-5.778zm0 4.516h6.989v-1.71h-6.989zm10.326-6.757v1.311h-13.563v-1.311zm-5.976-5.877c0 1.71 2.374 3.37 5.229 3.719l-.564 1.245c-2.416-.34-4.516-1.478-5.462-3.055-.971 1.586-3.08 2.715-5.462 3.055l-.598-1.245c2.889-.365 5.246-1.959 5.246-3.719v-.631h1.611zm19.457-.797v14.875h-1.578v-14.875zm-9.878 1.444v8.285c2.166-.017 4.449-.191 6.84-.681l.215 1.328c-2.639.531-5.03.714-7.371.714h-1.245v-9.646zm23.806-1.444v5.761h2.391v1.295h-2.391v7.852h-1.577v-14.908zm-4.001 1.428v1.278h-5.379v7.189c2.499-.009 4.375-.117 6.492-.498l.199 1.328c-2.324.415-4.3.498-7.072.481h-1.196v-9.778zm8.799 12.152c-.647 0-1.195-.531-1.179-1.178-.016-.648.532-1.179 1.179-1.179.631 0 1.179.531 1.179 1.179 0 .647-.548 1.178-1.179 1.178"/><defs><clipPath id="a"><path fill="#fff" d="M126 26h55v56h-55z"/></clipPath></defs></svg>