<svg xmlns="http://www.w3.org/2000/svg" width="30" height="36" fill="none"><path fill="#000" d="M2.143 32c0 2.2 1.928 4 4.286 4H23.57c2.358 0 4.286-1.8 4.286-4V12c0-2.2-1.928-4-4.286-4H6.43C4.07 8 2.143 9.8 2.143 12zM8.57 12H21.43c1.178 0 2.142.9 2.142 2v16c0 1.1-.964 2-2.142 2H8.57c-1.178 0-2.142-.9-2.142-2V14c0-1.1.964-2 2.142-2M22.5 2 20.979.58a2.24 2.24 0 0 0-1.5-.58H10.52c-.557 0-1.114.22-1.5.58L7.5 2H2.143C.964 2 0 2.9 0 4s.964 2 2.143 2h25.714C29.036 6 30 5.1 30 4s-.964-2-2.143-2z"/></svg>