<svg xmlns="http://www.w3.org/2000/svg" width="20" height="20" fill="none"><path stroke="#000" stroke-linecap="round" stroke-linejoin="round" stroke-width="2.083" d="m14.162 3.633 2.205 2.206m-.788-4.148L9.614 7.656c-.309.308-.519.7-.604 1.127l-.551 2.759 2.758-.552a2.2 2.2 0 0 0 1.127-.604l5.966-5.965a1.93 1.93 0 1 0-2.73-2.73"/><path stroke="#000" stroke-linecap="round" stroke-linejoin="round" stroke-width="2.083" d="M16.792 13.625v3.125a2.083 2.083 0 0 1-2.084 2.084H3.25a2.083 2.083 0 0 1-2.083-2.084V5.292A2.083 2.083 0 0 1 3.25 3.209h3.125"/></svg>