<svg width="30" height="25" viewBox="0 0 37 32" fill="none" xmlns="http://www.w3.org/2000/svg">
<path d="M36 10.6898C36 21.6299 19.7828 30.4851 19.0922 30.8508C18.9102 30.9487 18.7067 31 18.5 31C18.2933 31 18.0898 30.9487 17.9078 30.8508C17.2172 30.4851 1 21.6299 1 10.6898C1.00289 8.12078 2.02447 5.65783 3.8406 3.84127C5.65673 2.02471 8.1191 1.0029 10.6875 1C13.9141 1 16.7391 2.38783 18.5 4.73369C20.2609 2.38783 23.0859 1 26.3125 1C28.8809 1.0029 31.3433 2.02471 33.1594 3.84127C34.9755 5.65783 35.9971 8.12078 36 10.6898Z" fill="#F24E1E" stroke="#F24E1E" stroke-width="2"/>
</svg>
