<svg width="547" height="203" viewBox="0 0 547 203" fill="none" xmlns="http://www.w3.org/2000/svg">
<path d="M189.5 91C189.5 91.1223 189.441 91.4072 188.969 91.8364C188.497 92.2661 187.729 92.7219 186.654 93.1355C184.513 93.9589 181.454 94.5 178 94.5C174.546 94.5 171.487 93.9589 169.346 93.1355C168.271 92.7219 167.503 92.2661 167.031 91.8364C166.559 91.4072 166.5 91.1223 166.5 91C166.5 90.8777 166.559 90.5928 167.031 90.1636C167.503 89.7339 168.271 89.2781 169.346 88.8645C171.487 88.0411 174.546 87.5 178 87.5C181.454 87.5 184.513 88.0411 186.654 88.8645C187.729 89.2781 188.497 89.7339 188.969 90.1636C189.441 90.5928 189.5 90.8777 189.5 91Z" fill="#2D7CCE" stroke="#2D7CCE" stroke-width="3"/>
<path d="M86.5 90C86.5 90.1223 86.4413 90.4072 85.9692 90.8364C85.4967 91.2661 84.7294 91.7219 83.6539 92.1355C81.513 92.9589 78.4539 93.5 75 93.5C71.5461 93.5 68.487 92.9589 66.3461 92.1355C65.2706 91.7219 64.5033 91.2661 64.0308 90.8364C63.5587 90.4072 63.5 90.1223 63.5 90C63.5 89.8777 63.5587 89.5928 64.0308 89.1636C64.5033 88.7339 65.2706 88.2781 66.3461 87.8645C68.487 87.0411 71.5461 86.5 75 86.5C78.4539 86.5 81.513 87.0411 83.6539 87.8645C84.7294 88.2781 85.4967 88.7339 85.9692 89.1636C86.4413 89.5928 86.5 89.8777 86.5 90Z" fill="#2F6FDC" stroke="#2F6FDB" stroke-width="3"/>
<path d="M498.5 90C498.5 90.1223 498.441 90.4072 497.969 90.8364C497.497 91.2661 496.729 91.7219 495.654 92.1355C493.513 92.9589 490.454 93.5 487 93.5C483.546 93.5 480.487 92.9589 478.346 92.1355C477.271 91.7219 476.503 91.2661 476.031 90.8364C475.559 90.4072 475.5 90.1223 475.5 90C475.5 89.8777 475.559 89.5928 476.031 89.1636C476.503 88.7339 477.271 88.2781 478.346 87.8645C480.487 87.0411 483.546 86.5 487 86.5C490.454 86.5 493.513 87.0411 495.654 87.8645C496.729 88.2781 497.497 88.7339 497.969 89.1636C498.441 89.5928 498.5 89.8777 498.5 90Z" fill="#24BE87" stroke="#24BE87" stroke-width="3"/>
<mask id="path-4-outside-1_362_201" maskUnits="userSpaceOnUse" x="4" y="53" width="522" height="123" fill="black">
<rect fill="white" x="4" y="53" width="522" height="123"/>
<path d="M19.5 174C15.7 174 12.5 172.65 9.9 169.95C7.3 167.15 6 163.7 6 159.6V71.85C6 67.75 7.3 64.3 9.9 61.5C12.6 58.7 15.8 57.3 19.5 57.3H32.1C35.5 57.3 38.45 58.45 40.95 60.75C43.55 62.95 45.1 65.8 45.6 69.3C47.3 65.1 50.4 61.8 54.9 59.4C59.5 56.9 64.75 55.65 70.65 55.65C78.65 55.65 85.3 57.4 90.6 60.9C96 64.3 100.05 68.75 102.75 74.25C105.55 79.75 106.95 85.6 106.95 91.8C106.95 98 105.7 103.7 103.2 108.9C100.7 114.1 97 118.25 92.1 121.35C87.2 124.35 81.1 125.85 73.8 125.85H48.3C47.7 125.85 47.4 125.55 47.4 124.95C47.4 124.35 47.7 124.05 48.3 124.05H73.8C80.7 124.05 86.45 122.6 91.05 119.7C95.75 116.8 99.25 112.95 101.55 108.15C103.95 103.25 105.15 97.8 105.15 91.8C105.15 85.9 103.85 80.35 101.25 75.15C98.65 69.85 94.8 65.6 89.7 62.4C84.6 59.1 78.25 57.45 70.65 57.45C64.85 57.45 59.8 58.75 55.5 61.35C51.3 63.85 48.4 67 46.8 70.8C46.1 72.3 45.75 74.05 45.75 76.05C45.75 76.75 45.45 77.1 44.85 77.1C44.25 77.1 43.95 76.75 43.95 76.05V71.85C43.95 68.15 42.8 65.1 40.5 62.7C38.3 60.3 35.5 59.1 32.1 59.1H19.5C16.2 59.1 13.4 60.35 11.1 62.85C8.9 65.35 7.8 68.35 7.8 71.85V159.6C7.8 163.2 8.9 166.2 11.1 168.6C13.4 171 16.2 172.2 19.5 172.2H32.4C35.8 172.2 38.65 171 40.95 168.6C43.25 166.2 44.4 163.2 44.4 159.6C44.4 159 44.7 158.7 45.3 158.7C45.9 158.7 46.2 159 46.2 159.6C46.2 163.6 44.85 167 42.15 169.8C39.55 172.6 36.3 174 32.4 174H19.5ZM129.363 173.7C125.663 173.7 122.463 172.35 119.763 169.65C117.163 166.85 115.863 163.4 115.863 159.3V71.55C115.863 67.45 117.163 64 119.763 61.2C122.463 58.4 125.663 57 129.363 57H140.463C144.863 57 148.363 58.25 150.963 60.75C153.663 63.25 155.213 66.15 155.613 69.45C157.413 65.65 160.663 62.4 165.363 59.7C170.163 57 176.213 55.65 183.513 55.65C191.513 55.65 197.963 57.25 202.863 60.45C207.763 63.65 211.363 67.7 213.663 72.6C215.963 77.5 217.113 82.55 217.113 87.75C217.113 94.45 215.413 100.5 212.013 105.9C208.613 111.3 203.713 115.15 197.313 117.45C201.213 119.45 204.763 122.25 207.963 125.85C211.263 129.35 213.913 133.75 215.913 139.05C217.913 144.25 218.913 150.45 218.913 157.65C218.913 162.55 217.413 166.45 214.413 169.35C211.413 172.25 207.463 173.7 202.563 173.7H188.163C183.963 173.7 180.463 172.3 177.663 169.5C174.863 166.6 173.463 163.15 173.463 159.15C173.463 158.55 173.763 158.25 174.363 158.25C174.963 158.25 175.263 158.55 175.263 159.15C175.263 162.75 176.463 165.8 178.863 168.3C181.363 170.7 184.463 171.9 188.163 171.9H202.563C206.963 171.9 210.463 170.65 213.063 168.15C215.763 165.55 217.113 162.05 217.113 157.65C217.113 150.35 216.063 144.15 213.963 139.05C211.963 133.85 209.313 129.55 206.013 126.15C202.713 122.75 199.063 120.1 195.063 118.2C191.763 119.2 187.963 119.7 183.663 119.7C182.963 119.7 182.613 119.4 182.613 118.8C182.613 118.2 182.913 117.9 183.513 117.9C187.913 117.9 191.913 117.3 195.513 116.1C202.013 114 206.913 110.4 210.213 105.3C213.613 100.1 215.313 94.25 215.313 87.75C215.313 82.85 214.213 78.1 212.013 73.5C209.913 68.8 206.513 64.95 201.813 61.95C197.213 58.95 191.113 57.45 183.513 57.45C176.913 57.45 171.363 58.65 166.863 61.05C162.463 63.35 159.313 66.25 157.413 69.75C156.313 71.95 155.763 74.15 155.763 76.35C155.763 76.95 155.463 77.25 154.863 77.25C154.263 77.25 153.963 76.95 153.963 76.35V71.7C153.963 68.1 152.713 65.05 150.213 62.55C147.813 60.05 144.563 58.8 140.463 58.8H129.363C126.063 58.8 123.263 60.05 120.963 62.55C118.763 65.05 117.663 68.05 117.663 71.55V159.3C117.663 162.9 118.763 165.9 120.963 168.3C123.263 170.7 126.063 171.9 129.363 171.9H142.263C145.663 171.9 148.513 170.9 150.813 168.9C153.113 166.8 154.263 163.95 154.263 160.35C154.263 159.75 154.563 159.45 155.163 159.45C155.763 159.45 156.063 159.75 156.063 160.35C156.063 164.35 154.713 167.6 152.013 170.1C149.413 172.5 146.163 173.7 142.263 173.7H129.363ZM241.277 174C237.577 174 234.377 172.6 231.677 169.8C229.077 167 227.777 163.55 227.777 159.45V71.85C227.777 67.75 229.077 64.3 231.677 61.5C234.377 58.7 237.577 57.3 241.277 57.3H254.927C257.927 57.3 260.627 58.3 263.027 60.3C265.427 62.2 267.027 64.6 267.827 67.5C269.127 64 271.227 61.45 274.127 59.85C277.127 58.15 280.327 57.3 283.727 57.3H304.427C308.727 57.3 312.327 58.8 315.227 61.8C318.127 64.8 319.577 68.4 319.577 72.6V82.2C319.577 86.4 318.127 90 315.227 93C312.427 95.9 308.827 97.35 304.427 97.35H272.627C272.027 97.35 271.727 97.05 271.727 96.45C271.727 95.85 272.027 95.55 272.627 95.55H304.427C308.227 95.55 311.377 94.3 313.877 91.8C316.477 89.2 317.777 86 317.777 82.2V72.6C317.777 68.8 316.477 65.6 313.877 63C311.377 60.4 308.227 59.1 304.427 59.1H283.727C279.627 59.1 276.077 60.35 273.077 62.85C270.077 65.25 268.577 69.1 268.577 74.4C268.577 75 268.277 75.3 267.677 75.3C267.077 75.3 266.777 75 266.777 74.4V72.3C266.777 68.8 265.627 65.75 263.327 63.15C261.127 60.45 258.327 59.1 254.927 59.1H241.277C237.977 59.1 235.177 60.35 232.877 62.85C230.677 65.35 229.577 68.35 229.577 71.85V159.45C229.577 163.05 230.677 166.1 232.877 168.6C235.177 171 237.977 172.2 241.277 172.2H301.577C306.477 172.2 310.577 170.55 313.877 167.25C317.277 163.95 318.977 159.85 318.977 154.95C318.977 154.35 319.277 154.05 319.877 154.05C320.477 154.05 320.777 154.35 320.777 154.95C320.777 158.45 319.927 161.65 318.227 164.55C316.527 167.45 314.227 169.75 311.327 171.45C308.427 173.15 305.177 174 301.577 174H241.277ZM271.727 132C271.727 131.4 272.027 131.1 272.627 131.1H290.327C294.427 131.1 297.827 129.95 300.527 127.65C303.327 125.25 304.777 122.05 304.877 118.05C304.877 117.45 305.177 117.15 305.777 117.15C306.377 117.15 306.677 117.45 306.677 118.05C306.577 122.55 304.977 126.15 301.877 128.85C298.777 131.55 294.927 132.9 290.327 132.9H272.627C272.027 132.9 271.727 132.6 271.727 132ZM352.571 174C348.871 174 345.471 173.15 342.371 171.45C339.371 169.65 336.971 167.25 335.171 164.25C333.371 161.25 332.471 157.85 332.471 154.05V150.75C332.471 147.15 333.321 143.85 335.021 140.85C336.821 137.85 339.171 135.45 342.071 133.65C344.971 131.75 348.221 130.8 351.821 130.8V99.45C348.121 99.35 344.821 98.4 341.921 96.6C339.021 94.8 336.721 92.45 335.021 89.55C333.321 86.65 332.471 83.5 332.471 80.1V76.8C332.471 73.1 333.321 69.8 335.021 66.9C336.821 64 339.171 61.7 342.071 60C345.071 58.2 348.371 57.3 351.971 57.3H389.771C393.471 57.3 396.771 58.2 399.671 60C402.671 61.7 405.021 64 406.721 66.9C408.521 69.8 409.421 73.1 409.421 76.8V80.1C409.421 83.5 408.571 86.65 406.871 89.55C405.271 92.45 402.971 94.8 399.971 96.6C397.071 98.4 393.671 99.35 389.771 99.45V124.8C389.771 125.4 389.471 125.7 388.871 125.7C388.271 125.7 387.971 125.4 387.971 124.8V98.55C387.971 97.95 388.221 97.65 388.721 97.65C394.221 97.65 398.721 95.95 402.221 92.55C405.821 89.15 407.621 85 407.621 80.1V76.8C407.621 73.5 406.821 70.5 405.221 67.8C403.621 65.1 401.471 63 398.771 61.5C396.071 59.9 393.071 59.1 389.771 59.1H351.971C347.071 59.1 342.871 60.8 339.371 64.2C335.971 67.6 334.271 71.8 334.271 76.8V80.1C334.271 85 336.021 89.15 339.521 92.55C343.021 95.95 347.421 97.65 352.721 97.65C353.321 97.65 353.621 97.95 353.621 98.55V131.7C353.621 132.2 353.321 132.45 352.721 132.45C349.321 132.45 346.221 133.3 343.421 135C340.621 136.6 338.371 138.8 336.671 141.6C335.071 144.3 334.271 147.35 334.271 150.75V154.05C334.271 159.25 336.021 163.6 339.521 167.1C343.121 170.5 347.471 172.2 352.571 172.2H389.621C394.821 172.2 399.171 170.5 402.671 167.1C406.271 163.6 408.071 159.25 408.071 154.05V152.25C408.071 146.35 406.221 141.55 402.521 137.85C398.921 134.15 394.221 132.25 388.421 132.15C387.121 132.15 385.721 132.4 384.221 132.9C382.821 133.4 381.471 134.25 380.171 135.45C379.571 135.85 379.071 135.85 378.671 135.45C378.271 135.05 378.321 134.6 378.821 134.1C380.021 132.9 381.521 132 383.321 131.4C385.221 130.7 386.921 130.35 388.421 130.35C392.621 130.35 396.321 131.3 399.521 133.2C402.721 135.1 405.221 137.7 407.021 141C408.921 144.3 409.871 148.05 409.871 152.25V154.05C409.871 157.85 408.971 161.25 407.171 164.25C405.371 167.25 402.921 169.65 399.821 171.45C396.821 173.15 393.421 174 389.621 174H352.571ZM433.611 173.7C429.911 173.7 426.711 172.35 424.011 169.65C421.411 166.85 420.111 163.4 420.111 159.3V71.55C420.111 67.45 421.411 64 424.011 61.2C426.711 58.4 429.911 57 433.611 57H444.711C449.111 57 452.611 58.25 455.211 60.75C457.911 63.25 459.461 66.15 459.861 69.45C461.661 65.65 464.911 62.4 469.611 59.7C474.411 57 480.461 55.65 487.761 55.65C495.761 55.65 502.211 57.25 507.111 60.45C512.011 63.65 515.611 67.7 517.911 72.6C520.211 77.5 521.361 82.55 521.361 87.75C521.361 94.45 519.661 100.5 516.261 105.9C512.861 111.3 507.961 115.15 501.561 117.45C505.461 119.45 509.011 122.25 512.211 125.85C515.511 129.35 518.161 133.75 520.161 139.05C522.161 144.25 523.161 150.45 523.161 157.65C523.161 162.55 521.661 166.45 518.661 169.35C515.661 172.25 511.711 173.7 506.811 173.7H492.411C488.211 173.7 484.711 172.3 481.911 169.5C479.111 166.6 477.711 163.15 477.711 159.15C477.711 158.55 478.011 158.25 478.611 158.25C479.211 158.25 479.511 158.55 479.511 159.15C479.511 162.75 480.711 165.8 483.111 168.3C485.611 170.7 488.711 171.9 492.411 171.9H506.811C511.211 171.9 514.711 170.65 517.311 168.15C520.011 165.55 521.361 162.05 521.361 157.65C521.361 150.35 520.311 144.15 518.211 139.05C516.211 133.85 513.561 129.55 510.261 126.15C506.961 122.75 503.311 120.1 499.311 118.2C496.011 119.2 492.211 119.7 487.911 119.7C487.211 119.7 486.861 119.4 486.861 118.8C486.861 118.2 487.161 117.9 487.761 117.9C492.161 117.9 496.161 117.3 499.761 116.1C506.261 114 511.161 110.4 514.461 105.3C517.861 100.1 519.561 94.25 519.561 87.75C519.561 82.85 518.461 78.1 516.261 73.5C514.161 68.8 510.761 64.95 506.061 61.95C501.461 58.95 495.361 57.45 487.761 57.45C481.161 57.45 475.611 58.65 471.111 61.05C466.711 63.35 463.561 66.25 461.661 69.75C460.561 71.95 460.011 74.15 460.011 76.35C460.011 76.95 459.711 77.25 459.111 77.25C458.511 77.25 458.211 76.95 458.211 76.35V71.7C458.211 68.1 456.961 65.05 454.461 62.55C452.061 60.05 448.811 58.8 444.711 58.8H433.611C430.311 58.8 427.511 60.05 425.211 62.55C423.011 65.05 421.911 68.05 421.911 71.55V159.3C421.911 162.9 423.011 165.9 425.211 168.3C427.511 170.7 430.311 171.9 433.611 171.9H446.511C449.911 171.9 452.761 170.9 455.061 168.9C457.361 166.8 458.511 163.95 458.511 160.35C458.511 159.75 458.811 159.45 459.411 159.45C460.011 159.45 460.311 159.75 460.311 160.35C460.311 164.35 458.961 167.6 456.261 170.1C453.661 172.5 450.411 173.7 446.511 173.7H433.611Z"/>
</mask>
<path d="M19.5 174C15.7 174 12.5 172.65 9.9 169.95C7.3 167.15 6 163.7 6 159.6V71.85C6 67.75 7.3 64.3 9.9 61.5C12.6 58.7 15.8 57.3 19.5 57.3H32.1C35.5 57.3 38.45 58.45 40.95 60.75C43.55 62.95 45.1 65.8 45.6 69.3C47.3 65.1 50.4 61.8 54.9 59.4C59.5 56.9 64.75 55.65 70.65 55.65C78.65 55.65 85.3 57.4 90.6 60.9C96 64.3 100.05 68.75 102.75 74.25C105.55 79.75 106.95 85.6 106.95 91.8C106.95 98 105.7 103.7 103.2 108.9C100.7 114.1 97 118.25 92.1 121.35C87.2 124.35 81.1 125.85 73.8 125.85H48.3C47.7 125.85 47.4 125.55 47.4 124.95C47.4 124.35 47.7 124.05 48.3 124.05H73.8C80.7 124.05 86.45 122.6 91.05 119.7C95.75 116.8 99.25 112.95 101.55 108.15C103.95 103.25 105.15 97.8 105.15 91.8C105.15 85.9 103.85 80.35 101.25 75.15C98.65 69.85 94.8 65.6 89.7 62.4C84.6 59.1 78.25 57.45 70.65 57.45C64.85 57.45 59.8 58.75 55.5 61.35C51.3 63.85 48.4 67 46.8 70.8C46.1 72.3 45.75 74.05 45.75 76.05C45.75 76.75 45.45 77.1 44.85 77.1C44.25 77.1 43.95 76.75 43.95 76.05V71.85C43.95 68.15 42.8 65.1 40.5 62.7C38.3 60.3 35.5 59.1 32.1 59.1H19.5C16.2 59.1 13.4 60.35 11.1 62.85C8.9 65.35 7.8 68.35 7.8 71.85V159.6C7.8 163.2 8.9 166.2 11.1 168.6C13.4 171 16.2 172.2 19.5 172.2H32.4C35.8 172.2 38.65 171 40.95 168.6C43.25 166.2 44.4 163.2 44.4 159.6C44.4 159 44.7 158.7 45.3 158.7C45.9 158.7 46.2 159 46.2 159.6C46.2 163.6 44.85 167 42.15 169.8C39.55 172.6 36.3 174 32.4 174H19.5ZM129.363 173.7C125.663 173.7 122.463 172.35 119.763 169.65C117.163 166.85 115.863 163.4 115.863 159.3V71.55C115.863 67.45 117.163 64 119.763 61.2C122.463 58.4 125.663 57 129.363 57H140.463C144.863 57 148.363 58.25 150.963 60.75C153.663 63.25 155.213 66.15 155.613 69.45C157.413 65.65 160.663 62.4 165.363 59.7C170.163 57 176.213 55.65 183.513 55.65C191.513 55.65 197.963 57.25 202.863 60.45C207.763 63.65 211.363 67.7 213.663 72.6C215.963 77.5 217.113 82.55 217.113 87.75C217.113 94.45 215.413 100.5 212.013 105.9C208.613 111.3 203.713 115.15 197.313 117.45C201.213 119.45 204.763 122.25 207.963 125.85C211.263 129.35 213.913 133.75 215.913 139.05C217.913 144.25 218.913 150.45 218.913 157.65C218.913 162.55 217.413 166.45 214.413 169.35C211.413 172.25 207.463 173.7 202.563 173.7H188.163C183.963 173.7 180.463 172.3 177.663 169.5C174.863 166.6 173.463 163.15 173.463 159.15C173.463 158.55 173.763 158.25 174.363 158.25C174.963 158.25 175.263 158.55 175.263 159.15C175.263 162.75 176.463 165.8 178.863 168.3C181.363 170.7 184.463 171.9 188.163 171.9H202.563C206.963 171.9 210.463 170.65 213.063 168.15C215.763 165.55 217.113 162.05 217.113 157.65C217.113 150.35 216.063 144.15 213.963 139.05C211.963 133.85 209.313 129.55 206.013 126.15C202.713 122.75 199.063 120.1 195.063 118.2C191.763 119.2 187.963 119.7 183.663 119.7C182.963 119.7 182.613 119.4 182.613 118.8C182.613 118.2 182.913 117.9 183.513 117.9C187.913 117.9 191.913 117.3 195.513 116.1C202.013 114 206.913 110.4 210.213 105.3C213.613 100.1 215.313 94.25 215.313 87.75C215.313 82.85 214.213 78.1 212.013 73.5C209.913 68.8 206.513 64.95 201.813 61.95C197.213 58.95 191.113 57.45 183.513 57.45C176.913 57.45 171.363 58.65 166.863 61.05C162.463 63.35 159.313 66.25 157.413 69.75C156.313 71.95 155.763 74.15 155.763 76.35C155.763 76.95 155.463 77.25 154.863 77.25C154.263 77.25 153.963 76.95 153.963 76.35V71.7C153.963 68.1 152.713 65.05 150.213 62.55C147.813 60.05 144.563 58.8 140.463 58.8H129.363C126.063 58.8 123.263 60.05 120.963 62.55C118.763 65.05 117.663 68.05 117.663 71.55V159.3C117.663 162.9 118.763 165.9 120.963 168.3C123.263 170.7 126.063 171.9 129.363 171.9H142.263C145.663 171.9 148.513 170.9 150.813 168.9C153.113 166.8 154.263 163.95 154.263 160.35C154.263 159.75 154.563 159.45 155.163 159.45C155.763 159.45 156.063 159.75 156.063 160.35C156.063 164.35 154.713 167.6 152.013 170.1C149.413 172.5 146.163 173.7 142.263 173.7H129.363ZM241.277 174C237.577 174 234.377 172.6 231.677 169.8C229.077 167 227.777 163.55 227.777 159.45V71.85C227.777 67.75 229.077 64.3 231.677 61.5C234.377 58.7 237.577 57.3 241.277 57.3H254.927C257.927 57.3 260.627 58.3 263.027 60.3C265.427 62.2 267.027 64.6 267.827 67.5C269.127 64 271.227 61.45 274.127 59.85C277.127 58.15 280.327 57.3 283.727 57.3H304.427C308.727 57.3 312.327 58.8 315.227 61.8C318.127 64.8 319.577 68.4 319.577 72.6V82.2C319.577 86.4 318.127 90 315.227 93C312.427 95.9 308.827 97.35 304.427 97.35H272.627C272.027 97.35 271.727 97.05 271.727 96.45C271.727 95.85 272.027 95.55 272.627 95.55H304.427C308.227 95.55 311.377 94.3 313.877 91.8C316.477 89.2 317.777 86 317.777 82.2V72.6C317.777 68.8 316.477 65.6 313.877 63C311.377 60.4 308.227 59.1 304.427 59.1H283.727C279.627 59.1 276.077 60.35 273.077 62.85C270.077 65.25 268.577 69.1 268.577 74.4C268.577 75 268.277 75.3 267.677 75.3C267.077 75.3 266.777 75 266.777 74.4V72.3C266.777 68.8 265.627 65.75 263.327 63.15C261.127 60.45 258.327 59.1 254.927 59.1H241.277C237.977 59.1 235.177 60.35 232.877 62.85C230.677 65.35 229.577 68.35 229.577 71.85V159.45C229.577 163.05 230.677 166.1 232.877 168.6C235.177 171 237.977 172.2 241.277 172.2H301.577C306.477 172.2 310.577 170.55 313.877 167.25C317.277 163.95 318.977 159.85 318.977 154.95C318.977 154.35 319.277 154.05 319.877 154.05C320.477 154.05 320.777 154.35 320.777 154.95C320.777 158.45 319.927 161.65 318.227 164.55C316.527 167.45 314.227 169.75 311.327 171.45C308.427 173.15 305.177 174 301.577 174H241.277ZM271.727 132C271.727 131.4 272.027 131.1 272.627 131.1H290.327C294.427 131.1 297.827 129.95 300.527 127.65C303.327 125.25 304.777 122.05 304.877 118.05C304.877 117.45 305.177 117.15 305.777 117.15C306.377 117.15 306.677 117.45 306.677 118.05C306.577 122.55 304.977 126.15 301.877 128.85C298.777 131.55 294.927 132.9 290.327 132.9H272.627C272.027 132.9 271.727 132.6 271.727 132ZM352.571 174C348.871 174 345.471 173.15 342.371 171.45C339.371 169.65 336.971 167.25 335.171 164.25C333.371 161.25 332.471 157.85 332.471 154.05V150.75C332.471 147.15 333.321 143.85 335.021 140.85C336.821 137.85 339.171 135.45 342.071 133.65C344.971 131.75 348.221 130.8 351.821 130.8V99.45C348.121 99.35 344.821 98.4 341.921 96.6C339.021 94.8 336.721 92.45 335.021 89.55C333.321 86.65 332.471 83.5 332.471 80.1V76.8C332.471 73.1 333.321 69.8 335.021 66.9C336.821 64 339.171 61.7 342.071 60C345.071 58.2 348.371 57.3 351.971 57.3H389.771C393.471 57.3 396.771 58.2 399.671 60C402.671 61.7 405.021 64 406.721 66.9C408.521 69.8 409.421 73.1 409.421 76.8V80.1C409.421 83.5 408.571 86.65 406.871 89.55C405.271 92.45 402.971 94.8 399.971 96.6C397.071 98.4 393.671 99.35 389.771 99.45V124.8C389.771 125.4 389.471 125.7 388.871 125.7C388.271 125.7 387.971 125.4 387.971 124.8V98.55C387.971 97.95 388.221 97.65 388.721 97.65C394.221 97.65 398.721 95.95 402.221 92.55C405.821 89.15 407.621 85 407.621 80.1V76.8C407.621 73.5 406.821 70.5 405.221 67.8C403.621 65.1 401.471 63 398.771 61.5C396.071 59.9 393.071 59.1 389.771 59.1H351.971C347.071 59.1 342.871 60.8 339.371 64.2C335.971 67.6 334.271 71.8 334.271 76.8V80.1C334.271 85 336.021 89.15 339.521 92.55C343.021 95.95 347.421 97.65 352.721 97.65C353.321 97.65 353.621 97.95 353.621 98.55V131.7C353.621 132.2 353.321 132.45 352.721 132.45C349.321 132.45 346.221 133.3 343.421 135C340.621 136.6 338.371 138.8 336.671 141.6C335.071 144.3 334.271 147.35 334.271 150.75V154.05C334.271 159.25 336.021 163.6 339.521 167.1C343.121 170.5 347.471 172.2 352.571 172.2H389.621C394.821 172.2 399.171 170.5 402.671 167.1C406.271 163.6 408.071 159.25 408.071 154.05V152.25C408.071 146.35 406.221 141.55 402.521 137.85C398.921 134.15 394.221 132.25 388.421 132.15C387.121 132.15 385.721 132.4 384.221 132.9C382.821 133.4 381.471 134.25 380.171 135.45C379.571 135.85 379.071 135.85 378.671 135.45C378.271 135.05 378.321 134.6 378.821 134.1C380.021 132.9 381.521 132 383.321 131.4C385.221 130.7 386.921 130.35 388.421 130.35C392.621 130.35 396.321 131.3 399.521 133.2C402.721 135.1 405.221 137.7 407.021 141C408.921 144.3 409.871 148.05 409.871 152.25V154.05C409.871 157.85 408.971 161.25 407.171 164.25C405.371 167.25 402.921 169.65 399.821 171.45C396.821 173.15 393.421 174 389.621 174H352.571ZM433.611 173.7C429.911 173.7 426.711 172.35 424.011 169.65C421.411 166.85 420.111 163.4 420.111 159.3V71.55C420.111 67.45 421.411 64 424.011 61.2C426.711 58.4 429.911 57 433.611 57H444.711C449.111 57 452.611 58.25 455.211 60.75C457.911 63.25 459.461 66.15 459.861 69.45C461.661 65.65 464.911 62.4 469.611 59.7C474.411 57 480.461 55.65 487.761 55.65C495.761 55.65 502.211 57.25 507.111 60.45C512.011 63.65 515.611 67.7 517.911 72.6C520.211 77.5 521.361 82.55 521.361 87.75C521.361 94.45 519.661 100.5 516.261 105.9C512.861 111.3 507.961 115.15 501.561 117.45C505.461 119.45 509.011 122.25 512.211 125.85C515.511 129.35 518.161 133.75 520.161 139.05C522.161 144.25 523.161 150.45 523.161 157.65C523.161 162.55 521.661 166.45 518.661 169.35C515.661 172.25 511.711 173.7 506.811 173.7H492.411C488.211 173.7 484.711 172.3 481.911 169.5C479.111 166.6 477.711 163.15 477.711 159.15C477.711 158.55 478.011 158.25 478.611 158.25C479.211 158.25 479.511 158.55 479.511 159.15C479.511 162.75 480.711 165.8 483.111 168.3C485.611 170.7 488.711 171.9 492.411 171.9H506.811C511.211 171.9 514.711 170.65 517.311 168.15C520.011 165.55 521.361 162.05 521.361 157.65C521.361 150.35 520.311 144.15 518.211 139.05C516.211 133.85 513.561 129.55 510.261 126.15C506.961 122.75 503.311 120.1 499.311 118.2C496.011 119.2 492.211 119.7 487.911 119.7C487.211 119.7 486.861 119.4 486.861 118.8C486.861 118.2 487.161 117.9 487.761 117.9C492.161 117.9 496.161 117.3 499.761 116.1C506.261 114 511.161 110.4 514.461 105.3C517.861 100.1 519.561 94.25 519.561 87.75C519.561 82.85 518.461 78.1 516.261 73.5C514.161 68.8 510.761 64.95 506.061 61.95C501.461 58.95 495.361 57.45 487.761 57.45C481.161 57.45 475.611 58.65 471.111 61.05C466.711 63.35 463.561 66.25 461.661 69.75C460.561 71.95 460.011 74.15 460.011 76.35C460.011 76.95 459.711 77.25 459.111 77.25C458.511 77.25 458.211 76.95 458.211 76.35V71.7C458.211 68.1 456.961 65.05 454.461 62.55C452.061 60.05 448.811 58.8 444.711 58.8H433.611C430.311 58.8 427.511 60.05 425.211 62.55C423.011 65.05 421.911 68.05 421.911 71.55V159.3C421.911 162.9 423.011 165.9 425.211 168.3C427.511 170.7 430.311 171.9 433.611 171.9H446.511C449.911 171.9 452.761 170.9 455.061 168.9C457.361 166.8 458.511 163.95 458.511 160.35C458.511 159.75 458.811 159.45 459.411 159.45C460.011 159.45 460.311 159.75 460.311 160.35C460.311 164.35 458.961 167.6 456.261 170.1C453.661 172.5 450.411 173.7 446.511 173.7H433.611Z" fill="url(#paint0_linear_362_201)"/>
<path d="M9.9 169.95L8.43441 171.311L8.44677 171.324L8.45936 171.337L9.9 169.95ZM9.9 61.5L8.46031 60.1117L8.44723 60.1253L8.43441 60.1391L9.9 61.5ZM40.95 60.75L39.5959 62.2219L39.6264 62.25L39.6581 62.2768L40.95 60.75ZM45.6 69.3L43.6201 69.5828L44.6696 76.9293L47.4539 70.0504L45.6 69.3ZM54.9 59.4L55.8412 61.1647L55.8481 61.161L55.855 61.1572L54.9 59.4ZM90.6 60.9L89.4979 62.5689L89.516 62.5809L89.5344 62.5925L90.6 60.9ZM102.75 74.25L100.955 75.1313L100.961 75.1444L100.968 75.1574L102.75 74.25ZM103.2 108.9L101.397 108.033L103.2 108.9ZM92.1 121.35L93.1443 123.056L93.1569 123.048L93.1693 123.04L92.1 121.35ZM91.05 119.7L89.9998 117.998L89.9916 118.003L89.9834 118.008L91.05 119.7ZM101.55 108.15L99.7539 107.27L99.7501 107.278L99.7464 107.286L101.55 108.15ZM101.25 75.15L99.4544 76.0308L99.4578 76.0376L99.4612 76.0444L101.25 75.15ZM89.7 62.4L88.6135 64.0791L88.6252 64.0867L88.637 64.0941L89.7 62.4ZM55.5 61.35L56.523 63.0686L56.5348 63.0615L55.5 61.35ZM46.8 70.8L48.6124 71.6458L48.6285 71.6112L48.6433 71.5761L46.8 70.8ZM40.5 62.7L39.0257 64.0514L39.0407 64.0678L39.056 64.0838L40.5 62.7ZM11.1 62.85L9.62814 61.4959L9.61317 61.5121L9.59857 61.5287L11.1 62.85ZM11.1 168.6L9.62569 169.951L9.64068 169.968L9.65602 169.984L11.1 168.6ZM40.95 168.6L39.506 167.216L40.95 168.6ZM42.15 169.8L40.7103 168.412L40.6972 168.425L40.6844 168.439L42.15 169.8ZM19.5 172C16.2351 172 13.5578 170.865 11.3406 168.563L8.45936 171.337C11.4422 174.435 15.1649 176 19.5 176V172ZM11.3656 168.589C9.13558 166.188 8 163.236 8 159.6H4C4 164.165 5.46442 168.112 8.43441 171.311L11.3656 168.589ZM8 159.6V71.85H4V159.6H8ZM8 71.85C8 68.2145 9.13558 65.2624 11.3656 62.8609L8.43441 60.1391C5.46442 63.3375 4 67.2855 4 71.85H8ZM11.3397 62.8883C13.6844 60.4567 16.3734 59.3 19.5 59.3V55.3C15.2266 55.3 11.5156 56.9432 8.46031 60.1117L11.3397 62.8883ZM19.5 59.3H32.1V55.3H19.5V59.3ZM32.1 59.3C34.9989 59.3 37.4654 60.2618 39.5959 62.2219L42.3041 59.2781C39.4346 56.6382 36.0011 55.3 32.1 55.3V59.3ZM39.6581 62.2768C41.8689 64.1474 43.1865 66.5475 43.6201 69.5828L47.5799 69.0172C47.0135 65.0525 45.2311 61.7526 42.2419 59.2232L39.6581 62.2768ZM47.4539 70.0504C48.9558 66.3397 51.6997 63.3735 55.8412 61.1647L53.9588 57.6353C49.1003 60.2265 45.6442 63.8603 43.7461 68.5496L47.4539 70.0504ZM55.855 61.1572C60.1263 58.8359 65.0406 57.65 70.65 57.65V53.65C64.4594 53.65 58.8737 54.9641 53.945 57.6427L55.855 61.1572ZM70.65 57.65C78.3597 57.65 84.6004 59.3348 89.4979 62.5689L91.7021 59.2311C85.9996 55.4652 78.9403 53.65 70.65 53.65V57.65ZM89.5344 62.5925C94.6343 65.8035 98.425 69.9783 100.955 75.1313L104.545 73.3687C101.675 67.5217 97.3657 62.7965 91.6656 59.2075L89.5344 62.5925ZM100.968 75.1574C103.624 80.375 104.95 85.9139 104.95 91.8H108.95C108.95 85.2861 107.476 79.125 104.532 73.3426L100.968 75.1574ZM104.95 91.8C104.95 97.7228 103.758 103.124 101.397 108.033L105.003 109.767C107.642 104.276 108.95 98.2772 108.95 91.8H104.95ZM101.397 108.033C99.0608 112.894 95.6156 116.759 91.0307 119.66L93.1693 123.04C98.3844 119.741 102.339 115.306 105.003 109.767L101.397 108.033ZM91.0557 119.644C86.5446 122.406 80.83 123.85 73.8 123.85V127.85C81.37 127.85 87.8554 126.294 93.1443 123.056L91.0557 119.644ZM73.8 123.85H48.3V127.85H73.8V123.85ZM48.3 123.85C48.3083 123.85 48.6819 123.853 49.0392 124.211C49.3966 124.568 49.4 124.942 49.4 124.95H45.4C45.4 125.558 45.5534 126.382 46.2108 127.039C46.8681 127.697 47.6917 127.85 48.3 127.85V123.85ZM49.4 124.95C49.4 124.958 49.3966 125.332 49.0392 125.689C48.6819 126.047 48.3083 126.05 48.3 126.05V122.05C47.6917 122.05 46.8682 122.203 46.2108 122.861C45.5534 123.518 45.4 124.342 45.4 124.95H49.4ZM48.3 126.05H73.8V122.05H48.3V126.05ZM73.8 126.05C80.9769 126.05 87.1217 124.541 92.1166 121.392L89.9834 118.008C85.7783 120.659 80.4231 122.05 73.8 122.05V126.05ZM92.1002 121.402C97.1135 118.309 100.882 114.173 103.354 109.014L99.7464 107.286C97.6185 111.727 94.3865 115.291 89.9998 117.998L92.1002 121.402ZM103.346 109.03C105.893 103.829 107.15 98.0741 107.15 91.8H103.15C103.15 97.5259 102.007 102.671 99.7539 107.27L103.346 109.03ZM107.15 91.8C107.15 85.5943 105.78 79.7375 103.039 74.2556L99.4612 76.0444C101.92 80.9625 103.15 86.2057 103.15 91.8H107.15ZM103.046 74.2691C100.278 68.6283 96.1715 64.0994 90.763 60.7059L88.637 64.0941C93.4286 67.1006 97.0217 71.0717 99.4544 76.0308L103.046 74.2691ZM90.7865 60.7209C85.2903 57.1645 78.5389 55.45 70.65 55.45V59.45C77.9611 59.45 83.9098 61.0355 88.6135 64.0791L90.7865 60.7209ZM70.65 55.45C64.5424 55.45 59.1229 56.8222 54.4652 59.6385L56.5348 63.0615C60.4771 60.6778 65.1576 59.45 70.65 59.45V55.45ZM54.477 59.6314C49.9801 62.3082 46.7516 65.7611 44.9567 70.0239L48.6433 71.5761C50.0484 68.2389 52.6199 65.3918 56.523 63.0686L54.477 59.6314ZM44.9876 69.9542C44.141 71.7684 43.75 73.8176 43.75 76.05H47.75C47.75 74.2824 48.059 72.8316 48.6124 71.6458L44.9876 69.9542ZM43.75 76.05C43.75 76.1607 43.7197 75.8705 44.0065 75.5359C44.3438 75.1423 44.7543 75.1 44.85 75.1V79.1C45.5457 79.1 46.4062 78.8827 47.0435 78.1391C47.6303 77.4545 47.75 76.6393 47.75 76.05H43.75ZM44.85 75.1C44.9457 75.1 45.3562 75.1423 45.6935 75.5359C45.9803 75.8705 45.95 76.1607 45.95 76.05H41.95C41.95 76.6393 42.0697 77.4545 42.6565 78.1391C43.2938 78.8827 44.1543 79.1 44.85 79.1V75.1ZM45.95 76.05V71.85H41.95V76.05H45.95ZM45.95 71.85C45.95 67.6977 44.6424 64.1319 41.944 61.3162L39.056 64.0838C40.9576 66.0681 41.95 68.6023 41.95 71.85H45.95ZM41.9743 61.3485C39.3769 58.515 36.0325 57.1 32.1 57.1V61.1C34.9675 61.1 37.2231 62.085 39.0257 64.0514L41.9743 61.3485ZM32.1 57.1H19.5V61.1H32.1V57.1ZM19.5 57.1C15.6223 57.1 12.2942 58.598 9.62814 61.4959L12.5719 64.2041C14.5058 62.102 16.7777 61.1 19.5 61.1V57.1ZM9.59857 61.5287C7.0598 64.4137 5.8 67.8907 5.8 71.85H9.8C9.8 68.8093 10.7402 66.2863 12.6014 64.1712L9.59857 61.5287ZM5.8 71.85V159.6H9.8V71.85H5.8ZM5.8 159.6C5.8 163.643 7.05076 167.142 9.62569 169.951L12.5743 167.249C10.7492 165.258 9.8 162.757 9.8 159.6H5.8ZM9.65602 169.984C12.3301 172.774 15.6503 174.2 19.5 174.2V170.2C16.7497 170.2 14.4699 169.226 12.544 167.216L9.65602 169.984ZM19.5 174.2H32.4V170.2H19.5V174.2ZM32.4 174.2C36.3312 174.2 39.7072 172.787 42.394 169.984L39.506 167.216C37.5928 169.213 35.2688 170.2 32.4 170.2V174.2ZM42.394 169.984C45.082 167.179 46.4 163.669 46.4 159.6H42.4C42.4 162.731 41.418 165.221 39.506 167.216L42.394 169.984ZM46.4 159.6C46.4 159.608 46.3966 159.982 46.0392 160.339C45.6819 160.697 45.3083 160.7 45.3 160.7V156.7C44.6917 156.7 43.8681 156.853 43.2108 157.511C42.5534 158.168 42.4 158.992 42.4 159.6H46.4ZM45.3 160.7C45.2917 160.7 44.9182 160.697 44.5608 160.339C44.2034 159.982 44.2 159.608 44.2 159.6H48.2C48.2 158.992 48.0466 158.168 47.3892 157.511C46.7319 156.853 45.9083 156.7 45.3 156.7V160.7ZM44.2 159.6C44.2 163.098 43.0397 165.996 40.7103 168.412L43.5897 171.188C46.6603 168.004 48.2 164.102 48.2 159.6H44.2ZM40.6844 168.439C38.4716 170.822 35.7569 172 32.4 172V176C36.8431 176 40.6284 174.378 43.6156 171.161L40.6844 168.439ZM32.4 172H19.5V176H32.4V172ZM119.763 169.65L118.298 171.011L118.323 171.038L118.349 171.064L119.763 169.65ZM119.763 61.2L118.324 59.8117L118.311 59.8253L118.298 59.8391L119.763 61.2ZM150.963 60.75L149.577 62.1917L149.591 62.2047L149.604 62.2175L150.963 60.75ZM155.613 69.45L153.628 69.6907L154.46 76.5566L157.421 70.3062L155.613 69.45ZM165.363 59.7L164.383 57.9568L164.375 57.9613L164.367 57.9658L165.363 59.7ZM202.863 60.45L201.77 62.1245V62.1245L202.863 60.45ZM213.663 72.6L215.474 71.7502L213.663 72.6ZM212.013 105.9L213.706 106.966L212.013 105.9ZM197.313 117.45L196.637 115.568L192.3 117.127L196.401 119.23L197.313 117.45ZM207.963 125.85L206.468 127.179L206.488 127.201L206.508 127.222L207.963 125.85ZM215.913 139.05L214.042 139.756L214.047 139.768L215.913 139.05ZM214.413 169.35L213.023 167.912L214.413 169.35ZM177.663 169.5L176.224 170.889L176.237 170.902L176.249 170.914L177.663 169.5ZM178.863 168.3L177.421 169.685L177.449 169.715L177.478 169.743L178.863 168.3ZM213.063 168.15L214.45 169.592L214.451 169.591L213.063 168.15ZM213.963 139.05L212.097 139.768L212.105 139.79L212.114 139.811L213.963 139.05ZM206.013 126.15L204.578 127.543V127.543L206.013 126.15ZM195.063 118.2L195.921 116.393L195.223 116.062L194.483 116.286L195.063 118.2ZM195.513 116.1L194.898 114.197L194.89 114.2L194.881 114.203L195.513 116.1ZM210.213 105.3L208.539 104.205L208.534 104.213L210.213 105.3ZM212.013 73.5L210.187 74.3159L210.198 74.3395L210.209 74.3629L212.013 73.5ZM201.813 61.95L200.721 63.6252L200.729 63.6306L200.737 63.6358L201.813 61.95ZM166.863 61.05L167.79 62.8224L167.797 62.8186L167.804 62.8147L166.863 61.05ZM157.413 69.75L155.656 68.7958L155.639 68.8254L155.624 68.8556L157.413 69.75ZM150.213 62.55L148.771 63.9351L148.785 63.9498L148.799 63.9642L150.213 62.55ZM120.963 62.55L119.491 61.1959L119.476 61.2121L119.462 61.2287L120.963 62.55ZM120.963 168.3L119.489 169.651L119.504 169.668L119.519 169.684L120.963 168.3ZM150.813 168.9L152.126 170.409L152.144 170.393L152.162 170.377L150.813 168.9ZM152.013 170.1L153.37 171.57L153.372 171.568L152.013 170.1ZM129.363 171.7C126.212 171.7 123.516 170.574 121.177 168.236L118.349 171.064C121.411 174.126 125.114 175.7 129.363 175.7V171.7ZM121.229 168.289C118.999 165.888 117.863 162.936 117.863 159.3H113.863C113.863 163.865 115.328 167.812 118.298 171.011L121.229 168.289ZM117.863 159.3V71.55H113.863V159.3H117.863ZM117.863 71.55C117.863 67.9145 118.999 64.9624 121.229 62.5609L118.298 59.8391C115.328 63.0375 113.863 66.9855 113.863 71.55H117.863ZM121.203 62.5883C123.548 60.1567 126.237 59 129.363 59V55C125.09 55 121.379 56.6432 118.324 59.8117L121.203 62.5883ZM129.363 59H140.463V55H129.363V59ZM140.463 59C144.467 59 147.428 60.1254 149.577 62.1917L152.35 59.3083C149.298 56.3746 145.26 55 140.463 55V59ZM149.604 62.2175C151.997 64.4325 153.291 66.9121 153.628 69.6907L157.599 69.2093C157.136 65.3879 155.33 62.0675 152.322 59.2825L149.604 62.2175ZM157.421 70.3062C159.002 66.9682 161.911 63.9896 166.36 61.4342L164.367 57.9658C159.415 60.8104 155.825 64.3318 153.806 68.5938L157.421 70.3062ZM166.344 61.4431C170.763 58.9576 176.449 57.65 183.513 57.65V53.65C175.978 53.65 169.564 55.0424 164.383 57.9568L166.344 61.4431ZM183.513 57.65C191.263 57.65 197.294 59.2016 201.77 62.1245L203.957 58.7755C198.633 55.2984 191.764 53.65 183.513 53.65V57.65ZM201.77 62.1245C206.385 65.1386 209.723 68.9132 211.853 73.4498L215.474 71.7502C213.003 66.4868 209.142 62.1614 203.957 58.7755L201.77 62.1245ZM211.853 73.4498C214.033 78.0951 215.113 82.8559 215.113 87.75H219.113C219.113 82.2441 217.893 76.9049 215.474 71.7502L211.853 73.4498ZM215.113 87.75C215.113 94.0927 213.51 99.7698 210.321 104.834L213.706 106.966C217.317 101.23 219.113 94.8073 219.113 87.75H215.113ZM210.321 104.834C207.175 109.831 202.646 113.408 196.637 115.568L197.99 119.332C204.78 116.892 210.052 112.769 213.706 106.966L210.321 104.834ZM196.401 119.23C200.06 121.106 203.417 123.745 206.468 127.179L209.458 124.521C206.11 120.755 202.367 117.794 198.226 115.67L196.401 119.23ZM206.508 127.222C209.598 130.499 212.119 134.66 214.042 139.756L217.784 138.344C215.707 132.84 212.929 128.201 209.418 124.478L206.508 127.222ZM214.047 139.768C215.937 144.683 216.913 150.627 216.913 157.65H220.913C220.913 150.273 219.89 143.817 217.78 138.332L214.047 139.768ZM216.913 157.65C216.913 162.11 215.565 165.455 213.023 167.912L215.803 170.788C219.261 167.445 220.913 162.99 220.913 157.65H216.913ZM213.023 167.912C210.461 170.389 207.042 171.7 202.563 171.7V175.7C207.885 175.7 212.366 174.111 215.803 170.788L213.023 167.912ZM202.563 171.7H188.163V175.7H202.563V171.7ZM188.163 171.7C184.458 171.7 181.478 170.486 179.077 168.086L176.249 170.914C179.449 174.114 183.469 175.7 188.163 175.7V171.7ZM179.102 168.111C176.659 165.58 175.463 162.627 175.463 159.15H171.463C171.463 163.673 173.068 167.62 176.224 170.889L179.102 168.111ZM175.463 159.15C175.463 159.158 175.46 159.532 175.102 159.889C174.745 160.247 174.372 160.25 174.363 160.25V156.25C173.755 156.25 172.931 156.403 172.274 157.061C171.617 157.718 171.463 158.542 171.463 159.15H175.463ZM174.363 160.25C174.355 160.25 173.981 160.247 173.624 159.889C173.267 159.532 173.263 159.158 173.263 159.15H177.263C177.263 158.542 177.11 157.718 176.452 157.061C175.795 156.403 174.972 156.25 174.363 156.25V160.25ZM173.263 159.15C173.263 163.244 174.648 166.797 177.421 169.685L180.306 166.915C178.279 164.803 177.263 162.256 177.263 159.15H173.263ZM177.478 169.743C180.378 172.526 183.985 173.9 188.163 173.9V169.9C184.941 169.9 182.349 168.874 180.248 166.857L177.478 169.743ZM188.163 173.9H202.563V169.9H188.163V173.9ZM202.563 173.9C207.36 173.9 211.398 172.525 214.45 169.592L211.677 166.708C209.528 168.775 206.567 169.9 202.563 169.9V173.9ZM214.451 169.591C217.61 166.548 219.113 162.491 219.113 157.65H215.113C215.113 161.609 213.916 164.552 211.676 166.709L214.451 169.591ZM219.113 157.65C219.113 150.169 218.039 143.694 215.813 138.288L212.114 139.811C214.088 144.606 215.113 150.531 215.113 157.65H219.113ZM215.83 138.332C213.75 132.924 210.966 128.382 207.448 124.757L204.578 127.543C207.66 130.718 210.177 134.776 212.097 139.768L215.83 138.332ZM207.448 124.757C203.994 121.198 200.152 118.403 195.921 116.393L194.205 120.007C197.975 121.797 201.433 124.302 204.578 127.543L207.448 124.757ZM194.483 116.286C191.411 117.217 187.813 117.7 183.663 117.7V121.7C188.113 121.7 192.116 121.183 195.643 120.114L194.483 116.286ZM183.663 117.7C183.553 117.7 183.843 117.67 184.177 117.956C184.571 118.294 184.613 118.704 184.613 118.8H180.613C180.613 119.496 180.831 120.356 181.574 120.994C182.259 121.58 183.074 121.7 183.663 121.7V117.7ZM184.613 118.8C184.613 118.808 184.61 119.182 184.252 119.539C183.895 119.897 183.522 119.9 183.513 119.9V115.9C182.905 115.9 182.081 116.053 181.424 116.711C180.767 117.368 180.613 118.192 180.613 118.8H184.613ZM183.513 119.9C188.095 119.9 192.312 119.275 196.146 117.997L194.881 114.203C191.514 115.325 187.732 115.9 183.513 115.9V119.9ZM196.128 118.003C203.009 115.78 208.311 111.921 211.892 106.386L208.534 104.213C205.515 108.879 201.018 112.22 194.898 114.197L196.128 118.003ZM211.887 106.394C215.51 100.854 217.313 94.6198 217.313 87.75H213.313C213.313 93.8802 211.716 99.3464 208.539 104.205L211.887 106.394ZM217.313 87.75C217.313 82.5391 216.141 77.4953 213.818 72.6371L210.209 74.3629C212.286 78.7047 213.313 83.1609 213.313 87.75H217.313ZM213.839 72.6841C211.566 67.5972 207.89 63.4563 202.889 60.2641L200.737 63.6358C205.136 66.4437 208.26 70.0028 210.187 74.3159L213.839 72.6841ZM202.906 60.2748C197.878 56.996 191.358 55.45 183.513 55.45V59.45C190.869 59.45 196.548 60.904 200.721 63.6252L202.906 60.2748ZM183.513 55.45C176.679 55.45 170.784 56.692 165.922 59.2853L167.804 62.8147C171.942 60.608 177.148 59.45 183.513 59.45V55.45ZM165.937 59.2775C161.272 61.7161 157.787 64.8691 155.656 68.7958L159.171 70.7042C160.839 67.6309 163.655 64.9839 167.79 62.8224L165.937 59.2775ZM155.624 68.8556C154.402 71.3001 153.763 73.8045 153.763 76.35H157.763C157.763 74.4955 158.224 72.5998 159.202 70.6444L155.624 68.8556ZM153.763 76.35C153.763 76.3417 153.767 75.9681 154.124 75.6108C154.481 75.2534 154.855 75.25 154.863 75.25V79.25C155.472 79.25 156.295 79.0966 156.952 78.4392C157.61 77.7819 157.763 76.9583 157.763 76.35H153.763ZM154.863 75.25C154.872 75.25 155.245 75.2534 155.602 75.6108C155.96 75.9681 155.963 76.3417 155.963 76.35H151.963C151.963 76.9583 152.117 77.7819 152.774 78.4392C153.431 79.0966 154.255 79.25 154.863 79.25V75.25ZM155.963 76.35V71.7H151.963V76.35H155.963ZM155.963 71.7C155.963 67.5804 154.51 64.0185 151.628 61.1358L148.799 63.9642C150.916 66.0815 151.963 68.6196 151.963 71.7H155.963ZM151.656 61.1649C148.81 58.2005 145 56.8 140.463 56.8V60.8C144.127 60.8 146.816 61.8995 148.771 63.9351L151.656 61.1649ZM140.463 56.8H129.363V60.8H140.463V56.8ZM129.363 56.8C125.486 56.8 122.158 58.298 119.491 61.1959L122.435 63.9041C124.369 61.802 126.641 60.8 129.363 60.8V56.8ZM119.462 61.2287C116.923 64.1137 115.663 67.5907 115.663 71.55H119.663C119.663 68.5093 120.603 65.9863 122.465 63.8713L119.462 61.2287ZM115.663 71.55V159.3H119.663V71.55H115.663ZM115.663 159.3C115.663 163.343 116.914 166.842 119.489 169.651L122.438 166.949C120.613 164.958 119.663 162.457 119.663 159.3H115.663ZM119.519 169.684C122.193 172.474 125.514 173.9 129.363 173.9V169.9C126.613 169.9 124.333 168.926 122.407 166.916L119.519 169.684ZM129.363 173.9H142.263V169.9H129.363V173.9ZM142.263 173.9C146.086 173.9 149.419 172.763 152.126 170.409L149.501 167.391C147.608 169.037 145.241 169.9 142.263 169.9V173.9ZM152.162 170.377C154.943 167.838 156.263 164.416 156.263 160.35H152.263C152.263 163.484 151.284 165.762 149.465 167.423L152.162 170.377ZM156.263 160.35C156.263 160.358 156.26 160.732 155.902 161.089C155.545 161.447 155.172 161.45 155.163 161.45V157.45C154.555 157.45 153.731 157.603 153.074 158.261C152.417 158.918 152.263 159.742 152.263 160.35H156.263ZM155.163 161.45C155.155 161.45 154.781 161.447 154.424 161.089C154.067 160.732 154.063 160.358 154.063 160.35H158.063C158.063 159.742 157.91 158.918 157.253 158.261C156.595 157.603 155.772 157.45 155.163 157.45V161.45ZM154.063 160.35C154.063 163.847 152.908 166.546 150.654 168.632L153.372 171.568C156.519 168.654 158.063 164.853 158.063 160.35H154.063ZM150.657 168.63C148.465 170.653 145.716 171.7 142.263 171.7V175.7C146.61 175.7 150.361 174.347 153.37 171.57L150.657 168.63ZM142.263 171.7H129.363V175.7H142.263V171.7ZM231.677 169.8L230.212 171.161L230.225 171.175L230.238 171.188L231.677 169.8ZM231.677 61.5L230.238 60.1117L230.225 60.1253L230.212 60.1391L231.677 61.5ZM263.027 60.3L261.747 61.8364L261.766 61.8525L261.786 61.8681L263.027 60.3ZM267.827 67.5L265.899 68.0319L267.546 74.0013L269.702 68.1964L267.827 67.5ZM274.127 59.85L275.094 61.6012L275.103 61.5956L275.113 61.59L274.127 59.85ZM315.227 61.8L313.789 63.19L315.227 61.8ZM315.227 93L313.789 91.61L313.789 91.6108L315.227 93ZM313.877 91.8L312.463 90.3858L313.877 91.8ZM313.877 63L312.436 64.3862L312.449 64.4004L312.463 64.4142L313.877 63ZM273.077 62.85L274.327 64.4117L274.342 64.3992L274.358 64.3864L273.077 62.85ZM263.327 63.15L261.777 64.4133L261.802 64.4448L261.829 64.4751L263.327 63.15ZM232.877 62.85L231.405 61.4959L231.391 61.5121L231.376 61.5287L232.877 62.85ZM232.877 168.6L231.376 169.921L231.404 169.953L231.433 169.984L232.877 168.6ZM313.877 167.25L312.484 165.815L312.474 165.825L312.463 165.836L313.877 167.25ZM318.227 164.55L316.502 163.539L318.227 164.55ZM311.327 171.45L310.316 169.725L311.327 171.45ZM300.527 127.65L301.824 129.172L301.829 129.169L300.527 127.65ZM304.877 118.05L306.877 118.1L306.877 118.075V118.05H304.877ZM306.677 118.05L308.677 118.094L308.677 118.072V118.05H306.677ZM301.877 128.85L303.191 130.358L301.877 128.85ZM241.277 172C238.151 172 235.462 170.843 233.117 168.412L230.238 171.188C233.293 174.357 237.004 176 241.277 176V172ZM233.143 168.439C230.913 166.038 229.777 163.085 229.777 159.45H225.777C225.777 164.014 227.242 167.962 230.212 171.161L233.143 168.439ZM229.777 159.45V71.85H225.777V159.45H229.777ZM229.777 71.85C229.777 68.2145 230.913 65.2624 233.143 62.8609L230.212 60.1391C227.242 63.3375 225.777 67.2855 225.777 71.85H229.777ZM233.117 62.8883C235.462 60.4567 238.151 59.3 241.277 59.3V55.3C237.004 55.3 233.293 56.9432 230.238 60.1117L233.117 62.8883ZM241.277 59.3H254.927V55.3H241.277V59.3ZM254.927 59.3C257.439 59.3 259.69 60.1225 261.747 61.8364L264.308 58.7636C261.564 56.4775 258.416 55.3 254.927 55.3V59.3ZM261.786 61.8681C263.859 63.5093 265.214 65.5491 265.899 68.0319L269.755 66.9681C268.84 63.6509 266.996 60.8907 264.269 58.7319L261.786 61.8681ZM269.702 68.1964C270.858 65.0844 272.667 62.9401 275.094 61.6012L273.161 58.0988C269.788 59.9599 267.397 62.9155 265.952 66.8036L269.702 68.1964ZM275.113 61.59C277.817 60.0579 280.678 59.3 283.727 59.3V55.3C279.977 55.3 276.438 56.2421 273.141 58.11L275.113 61.59ZM283.727 59.3H304.427V55.3H283.727V59.3ZM304.427 59.3C308.204 59.3 311.279 60.5931 313.789 63.19L316.665 60.41C313.376 57.0069 309.251 55.3 304.427 55.3V59.3ZM313.789 63.19C316.326 65.8144 317.577 68.9149 317.577 72.6H321.577C321.577 67.8851 319.928 63.7856 316.665 60.41L313.789 63.19ZM317.577 72.6V82.2H321.577V72.6H317.577ZM317.577 82.2C317.577 85.8851 316.326 88.9856 313.789 91.61L316.665 94.39C319.928 91.0144 321.577 86.9149 321.577 82.2H317.577ZM313.789 91.6108C311.402 94.0826 308.34 95.35 304.427 95.35V99.35C309.315 99.35 313.453 97.7174 316.666 94.3892L313.789 91.6108ZM304.427 95.35H272.627V99.35H304.427V95.35ZM272.627 95.35C272.636 95.35 273.009 95.3534 273.367 95.7108C273.724 96.0681 273.727 96.4417 273.727 96.45H269.727C269.727 97.0583 269.881 97.8819 270.538 98.5392C271.195 99.1966 272.019 99.35 272.627 99.35V95.35ZM273.727 96.45C273.727 96.4583 273.724 96.8319 273.367 97.1892C273.009 97.5466 272.636 97.55 272.627 97.55V93.55C272.019 93.55 271.195 93.7034 270.538 94.3608C269.881 95.0181 269.727 95.8417 269.727 96.45H273.727ZM272.627 97.55H304.427V93.55H272.627V97.55ZM304.427 97.55C308.714 97.55 312.387 96.1192 315.292 93.2142L312.463 90.3858C310.368 92.4808 307.741 93.55 304.427 93.55V97.55ZM315.292 93.2142C318.28 90.2253 319.777 86.5106 319.777 82.2H315.777C315.777 85.4894 314.674 88.1747 312.463 90.3858L315.292 93.2142ZM319.777 82.2V72.6H315.777V82.2H319.777ZM319.777 72.6C319.777 68.2894 318.28 64.5747 315.292 61.5858L312.463 64.4142C314.674 66.6253 315.777 69.3106 315.777 72.6H319.777ZM315.319 61.6138C312.42 58.5987 308.739 57.1 304.427 57.1V61.1C307.716 61.1 310.335 62.2013 312.436 64.3862L315.319 61.6138ZM304.427 57.1H283.727V61.1H304.427V57.1ZM283.727 57.1C279.185 57.1 275.175 58.4982 271.797 61.3135L274.358 64.3864C276.979 62.2018 280.07 61.1 283.727 61.1V57.1ZM271.828 61.2883C268.191 64.1978 266.577 68.7366 266.577 74.4H270.577C270.577 69.4634 271.964 66.3022 274.327 64.4117L271.828 61.2883ZM266.577 74.4C266.577 74.3917 266.581 74.0181 266.938 73.6608C267.296 73.3034 267.669 73.3 267.677 73.3V77.3C268.286 77.3 269.109 77.1466 269.767 76.4892C270.424 75.8318 270.577 75.0083 270.577 74.4H266.577ZM267.677 73.3C267.686 73.3 268.059 73.3034 268.417 73.6608C268.774 74.0181 268.777 74.3917 268.777 74.4H264.777C264.777 75.0083 264.931 75.8318 265.588 76.4892C266.245 77.1466 267.069 77.3 267.677 77.3V73.3ZM268.777 74.4V72.3H264.777V74.4H268.777ZM268.777 72.3C268.777 68.3163 267.452 64.7938 264.825 61.8248L261.829 64.4751C263.803 66.7062 264.777 69.2837 264.777 72.3H268.777ZM264.878 61.8867C262.309 58.7337 258.945 57.1 254.927 57.1V61.1C257.709 61.1 259.946 62.1663 261.777 64.4133L264.878 61.8867ZM254.927 57.1H241.277V61.1H254.927V57.1ZM241.277 57.1C237.4 57.1 234.072 58.598 231.405 61.4959L234.349 64.2041C236.283 62.102 238.555 61.1 241.277 61.1V57.1ZM231.376 61.5287C228.837 64.4137 227.577 67.8907 227.577 71.85H231.577C231.577 68.8093 232.518 66.2863 234.379 64.1712L231.376 61.5287ZM227.577 71.85V159.45H231.577V71.85H227.577ZM227.577 159.45C227.577 163.494 228.827 167.025 231.376 169.921L234.379 167.279C232.527 165.175 231.577 162.606 231.577 159.45H227.577ZM231.433 169.984C234.107 172.774 237.428 174.2 241.277 174.2V170.2C238.527 170.2 236.247 169.226 234.321 167.216L231.433 169.984ZM241.277 174.2H301.577V170.2H241.277V174.2ZM301.577 174.2C306.978 174.2 311.596 172.36 315.292 168.664L312.463 165.836C309.559 168.74 305.976 170.2 301.577 170.2V174.2ZM315.27 168.685C319.073 164.994 320.977 160.37 320.977 154.95H316.977C316.977 159.33 315.482 162.906 312.484 165.815L315.27 168.685ZM320.977 154.95C320.977 154.958 320.974 155.332 320.617 155.689C320.259 156.047 319.886 156.05 319.877 156.05V152.05C319.269 152.05 318.445 152.203 317.788 152.861C317.131 153.518 316.977 154.342 316.977 154.95H320.977ZM319.877 156.05C319.869 156.05 319.495 156.047 319.138 155.689C318.781 155.332 318.777 154.958 318.777 154.95H322.777C322.777 154.342 322.624 153.518 321.967 152.861C321.309 152.203 320.486 152.05 319.877 152.05V156.05ZM318.777 154.95C318.777 158.11 318.015 160.958 316.502 163.539L319.953 165.561C321.84 162.342 322.777 158.79 322.777 154.95H318.777ZM316.502 163.539C314.975 166.143 312.921 168.198 310.316 169.725L312.339 173.175C315.534 171.302 318.08 168.757 319.953 165.561L316.502 163.539ZM310.316 169.725C307.744 171.232 304.848 172 301.577 172V176C305.507 176 309.11 175.068 312.339 173.175L310.316 169.725ZM301.577 172H241.277V176H301.577V172ZM273.727 132C273.727 132.008 273.724 132.382 273.367 132.739C273.009 133.097 272.636 133.1 272.627 133.1V129.1C272.019 129.1 271.195 129.253 270.538 129.911C269.881 130.568 269.727 131.392 269.727 132H273.727ZM272.627 133.1H290.327V129.1H272.627V133.1ZM290.327 133.1C294.824 133.1 298.707 131.828 301.824 129.172L299.23 126.128C296.948 128.072 294.03 129.1 290.327 129.1V133.1ZM301.829 129.169C305.098 126.366 306.764 122.612 306.877 118.1L302.878 118C302.791 121.488 301.556 124.134 299.226 126.131L301.829 129.169ZM306.877 118.05C306.877 118.058 306.874 118.432 306.517 118.789C306.159 119.147 305.786 119.15 305.777 119.15V115.15C305.169 115.15 304.345 115.303 303.688 115.961C303.031 116.618 302.877 117.442 302.877 118.05H306.877ZM305.777 119.15C305.769 119.15 305.396 119.147 305.038 118.789C304.681 118.432 304.677 118.058 304.677 118.05H308.677C308.677 117.442 308.524 116.618 307.867 115.961C307.209 115.303 306.386 115.15 305.777 115.15V119.15ZM304.678 118.006C304.589 122.003 303.196 125.049 300.564 127.342L303.191 130.358C306.758 127.251 308.566 123.097 308.677 118.094L304.678 118.006ZM300.564 127.342C297.872 129.686 294.506 130.9 290.327 130.9V134.9C295.349 134.9 299.683 133.413 303.191 130.358L300.564 127.342ZM290.327 130.9H272.627V134.9H290.327V130.9ZM272.627 130.9C272.636 130.9 273.009 130.903 273.367 131.261C273.724 131.618 273.727 131.992 273.727 132H269.727C269.727 132.608 269.881 133.432 270.538 134.089C271.195 134.747 272.019 134.9 272.627 134.9V130.9ZM342.371 171.45L341.342 173.165L341.376 173.185L341.41 173.204L342.371 171.45ZM335.171 164.25L336.886 163.221L335.171 164.25ZM335.021 140.85L333.306 139.821L333.294 139.842L333.281 139.864L335.021 140.85ZM342.071 133.65L343.126 135.349L343.147 135.336L343.168 135.323L342.071 133.65ZM351.821 130.8V132.8H353.821V130.8H351.821ZM351.821 99.45H353.821V97.5033L351.876 97.4507L351.821 99.45ZM341.921 96.6L342.976 94.9007L341.921 96.6ZM335.021 66.9L333.322 65.8453L333.309 65.8667L333.296 65.8885L335.021 66.9ZM342.071 60L343.083 61.7254L343.092 61.7202L343.1 61.715L342.071 60ZM399.671 60L398.617 61.6993L398.651 61.7203L398.685 61.74L399.671 60ZM406.721 66.9L404.996 67.9114L405.009 67.9332L405.022 67.9547L406.721 66.9ZM406.871 89.55L405.146 88.5386L405.133 88.561L405.12 88.5838L406.871 89.55ZM399.971 96.6L398.943 94.885L398.93 94.8928L398.917 94.9007L399.971 96.6ZM389.771 99.45L389.72 97.4507L387.771 97.5006V99.45H389.771ZM402.221 92.55L400.848 91.096L400.838 91.1056L400.828 91.1154L402.221 92.55ZM405.221 67.8L403.501 68.8196V68.8196L405.221 67.8ZM398.771 61.5L397.752 63.2206L397.776 63.2348L397.8 63.2483L398.771 61.5ZM339.371 64.2L337.978 62.7654L337.968 62.7755L337.957 62.7858L339.371 64.2ZM339.521 92.55L340.915 91.1154L339.521 92.55ZM343.421 135L344.414 136.736L344.437 136.723L344.459 136.71L343.421 135ZM336.671 141.6L334.962 140.562L334.956 140.571L334.951 140.58L336.671 141.6ZM339.521 167.1L338.107 168.514L338.127 168.534L338.148 168.554L339.521 167.1ZM402.671 167.1L404.065 168.535L404.066 168.534L402.671 167.1ZM402.521 137.85L401.088 139.245L401.098 139.255L401.107 139.264L402.521 137.85ZM388.421 132.15L388.456 130.15L388.439 130.15H388.421V132.15ZM384.221 132.9L383.589 131.003L383.569 131.009L383.549 131.017L384.221 132.9ZM380.171 135.45L381.281 137.114L381.412 137.027L381.528 136.92L380.171 135.45ZM378.821 134.1L380.236 135.514L378.821 134.1ZM383.321 131.4L383.954 133.297L383.984 133.287L384.013 133.277L383.321 131.4ZM407.021 141L405.266 141.958L405.277 141.978L405.288 141.998L407.021 141ZM407.171 164.25L405.457 163.221L407.171 164.25ZM399.822 171.45L400.808 173.19L400.817 173.185L400.826 173.18L399.822 171.45ZM352.571 172C349.191 172 346.125 171.227 343.333 169.696L341.41 173.204C344.818 175.073 348.552 176 352.571 176V172ZM343.4 169.735C340.682 168.104 338.518 165.94 336.886 163.221L333.457 165.279C335.425 168.56 338.061 171.196 341.342 173.165L343.4 169.735ZM336.886 163.221C335.289 160.558 334.471 157.52 334.471 154.05H330.471C330.471 158.18 331.454 161.942 333.457 165.279L336.886 163.221ZM334.471 154.05V150.75H330.471V154.05H334.471ZM334.471 150.75C334.471 147.48 335.24 144.522 336.762 141.836L333.281 139.864C331.403 143.178 330.471 146.82 330.471 150.75H334.471ZM336.736 141.879C338.377 139.145 340.503 136.977 343.126 135.349L341.017 131.951C337.84 133.923 335.266 136.555 333.306 139.821L336.736 141.879ZM343.168 135.323C345.729 133.645 348.595 132.8 351.821 132.8V128.8C347.848 128.8 344.214 129.855 340.975 131.977L343.168 135.323ZM353.821 130.8V99.45H349.821V130.8H353.821ZM351.876 97.4507C348.499 97.3595 345.55 96.4982 342.976 94.9007L340.867 98.2993C344.093 100.302 347.744 101.341 351.767 101.449L351.876 97.4507ZM342.976 94.9007C340.348 93.2694 338.28 91.1537 336.747 88.5386L333.296 90.5614C335.163 93.7463 337.695 96.3306 340.867 98.2993L342.976 94.9007ZM336.747 88.5386C335.229 85.949 334.471 83.1487 334.471 80.1H330.471C330.471 83.8513 331.414 87.351 333.296 90.5614L336.747 88.5386ZM334.471 80.1V76.8H330.471V80.1H334.471ZM334.471 76.8C334.471 73.4187 335.244 70.4744 336.747 67.9114L333.296 65.8885C331.399 69.1256 330.471 72.7812 330.471 76.8H334.471ZM336.721 67.9547C338.352 65.3264 340.468 63.2584 343.083 61.7254L341.06 58.2746C337.875 60.1416 335.291 62.6736 333.322 65.8453L336.721 67.9547ZM343.1 61.715C345.78 60.1071 348.723 59.3 351.971 59.3V55.3C348.02 55.3 344.363 56.2929 341.042 58.285L343.1 61.715ZM351.971 59.3H389.771V55.3H351.971V59.3ZM389.771 59.3C393.131 59.3 396.06 60.1123 398.617 61.6993L400.726 58.3007C397.483 56.2877 393.812 55.3 389.771 55.3V59.3ZM398.685 61.74C401.387 63.2712 403.479 65.3232 404.996 67.9114L408.447 65.8886C406.564 62.6768 403.956 60.1288 400.658 58.2599L398.685 61.74ZM405.022 67.9547C406.609 70.5115 407.421 73.4402 407.421 76.8H411.421C411.421 72.7598 410.434 69.0885 408.421 65.8453L405.022 67.9547ZM407.421 76.8V80.1H411.421V76.8H407.421ZM407.421 80.1C407.421 83.1487 406.664 85.949 405.146 88.5386L408.597 90.5614C410.479 87.351 411.421 83.8513 411.421 80.1H407.421ZM405.12 88.5838C403.701 91.1573 401.658 93.2559 398.943 94.885L401 98.315C404.285 96.3441 406.842 93.7427 408.623 90.5162L405.12 88.5838ZM398.917 94.9007C396.36 96.4878 393.317 97.3584 389.72 97.4507L389.823 101.449C394.026 101.342 397.783 100.312 401.026 98.2993L398.917 94.9007ZM387.771 99.45V124.8H391.771V99.45H387.771ZM387.771 124.8C387.771 124.792 387.775 124.418 388.132 124.061C388.49 123.703 388.863 123.7 388.871 123.7V127.7C389.48 127.7 390.303 127.547 390.961 126.889C391.618 126.232 391.771 125.408 391.771 124.8H387.771ZM388.871 123.7C388.88 123.7 389.253 123.703 389.611 124.061C389.968 124.418 389.971 124.792 389.971 124.8H385.971C385.971 125.408 386.125 126.232 386.782 126.889C387.44 127.547 388.263 127.7 388.871 127.7V123.7ZM389.971 124.8V98.55H385.971V124.8H389.971ZM389.971 98.55C389.971 98.4785 389.994 98.7972 389.695 99.1554C389.339 99.5834 388.885 99.65 388.721 99.65V95.65C388.058 95.65 387.229 95.8666 386.623 96.5946C386.074 97.2528 385.971 98.0215 385.971 98.55H389.971ZM388.721 99.65C394.67 99.65 399.693 97.7943 403.615 93.9846L400.828 91.1154C397.75 94.1057 393.773 95.65 388.721 95.65V99.65ZM403.595 94.004C407.59 90.2307 409.621 85.5568 409.621 80.1H405.621C405.621 84.4432 404.053 88.0693 400.848 91.096L403.595 94.004ZM409.621 80.1V76.8H405.621V80.1H409.621ZM409.621 76.8C409.621 73.1605 408.735 69.8052 406.942 66.7804L403.501 68.8196C404.908 71.1948 405.621 73.8395 405.621 76.8H409.621ZM406.942 66.7804C405.164 63.7805 402.758 61.4268 399.743 59.7517L397.8 63.2483C400.185 64.5732 402.079 66.4195 403.501 68.8196L406.942 66.7804ZM399.791 59.7794C396.766 57.9869 393.411 57.1 389.771 57.1V61.1C392.732 61.1 395.377 61.8131 397.752 63.2206L399.791 59.7794ZM389.771 57.1H351.971V61.1H389.771V57.1ZM351.971 57.1C346.554 57.1 341.853 59.0011 337.978 62.7654L340.765 65.6346C343.89 62.5989 347.589 61.1 351.971 61.1V57.1ZM337.957 62.7858C334.166 66.5772 332.271 71.2932 332.271 76.8H336.271C336.271 72.3068 337.777 68.6228 340.786 65.6142L337.957 62.7858ZM332.271 76.8V80.1H336.271V76.8H332.271ZM332.271 80.1C332.271 85.5379 334.238 90.2062 338.128 93.9846L340.915 91.1154C337.805 88.0938 336.271 84.4621 336.271 80.1H332.271ZM338.128 93.9846C342.035 97.7801 346.95 99.65 352.721 99.65V95.65C347.893 95.65 344.008 94.1199 340.915 91.1154L338.128 93.9846ZM352.721 99.65C352.713 99.65 352.34 99.6466 351.982 99.2892C351.625 98.9319 351.621 98.5583 351.621 98.55H355.621C355.621 97.9417 355.468 97.1181 354.811 96.4608C354.153 95.8034 353.33 95.65 352.721 95.65V99.65ZM351.621 98.55V131.7H355.621V98.55H351.621ZM351.621 131.7C351.621 131.536 351.688 131.083 352.116 130.726C352.474 130.428 352.793 130.45 352.721 130.45V134.45C353.25 134.45 354.019 134.347 354.677 133.799C355.405 133.192 355.621 132.364 355.621 131.7H351.621ZM352.721 130.45C348.97 130.45 345.509 131.393 342.384 133.29L344.459 136.71C346.934 135.207 349.673 134.45 352.721 134.45V130.45ZM342.429 133.264C339.33 135.035 336.835 137.477 334.962 140.562L338.381 142.638C339.908 140.123 341.913 138.165 344.414 136.736L342.429 133.264ZM334.951 140.58C333.153 143.615 332.271 147.022 332.271 150.75H336.271C336.271 147.678 336.99 144.985 338.392 142.62L334.951 140.58ZM332.271 150.75V154.05H336.271V150.75H332.271ZM332.271 154.05C332.271 159.751 334.212 164.619 338.107 168.514L340.936 165.686C337.831 162.581 336.271 158.749 336.271 154.05H332.271ZM338.148 168.554C342.132 172.316 346.978 174.2 352.571 174.2V170.2C347.965 170.2 344.111 168.684 340.895 165.646L338.148 168.554ZM352.571 174.2H389.621V170.2H352.571V174.2ZM389.621 174.2C395.304 174.2 400.166 172.323 404.065 168.535L401.278 165.665C398.177 168.677 394.339 170.2 389.621 170.2V174.2ZM404.066 168.534C408.068 164.643 410.071 159.769 410.071 154.05H406.071C406.071 158.731 404.475 162.557 401.277 165.666L404.066 168.534ZM410.071 154.05V152.25H406.071V154.05H410.071ZM410.071 152.25C410.071 145.893 408.06 140.56 403.936 136.436L401.107 139.264C404.383 142.54 406.071 146.807 406.071 152.25H410.071ZM403.955 136.455C399.94 132.329 394.713 130.258 388.456 130.15L388.387 134.15C393.73 134.242 397.903 135.971 401.088 139.245L403.955 136.455ZM388.421 130.15C386.866 130.15 385.25 130.449 383.589 131.003L384.854 134.797C386.193 134.351 387.377 134.15 388.421 134.15V130.15ZM383.549 131.017C381.852 131.623 380.276 132.632 378.815 133.98L381.528 136.92C382.667 135.868 383.791 135.177 384.894 134.783L383.549 131.017ZM379.062 133.786C378.952 133.859 379.063 133.75 379.346 133.75C379.497 133.75 379.655 133.782 379.803 133.847C379.945 133.911 380.038 133.988 380.086 134.036L377.257 136.864C377.779 137.386 378.495 137.75 379.346 137.75C380.13 137.75 380.791 137.441 381.281 137.114L379.062 133.786ZM380.086 134.036C380.131 134.081 380.228 134.192 380.305 134.379C380.387 134.579 380.422 134.807 380.397 135.033C380.35 135.452 380.137 135.613 380.236 135.514L377.407 132.686C377.006 133.087 376.518 133.723 376.421 134.592C376.313 135.568 376.745 136.352 377.257 136.864L380.086 134.036ZM380.236 135.514C381.191 134.559 382.413 133.811 383.954 133.297L382.689 129.503C380.63 130.189 378.852 131.241 377.407 132.686L380.236 135.514ZM384.013 133.277C385.764 132.632 387.224 132.35 388.421 132.35V128.35C386.619 128.35 384.679 128.768 382.63 129.523L384.013 133.277ZM388.421 132.35C392.309 132.35 395.648 133.226 398.5 134.92L400.543 131.48C396.995 129.374 392.934 128.35 388.421 128.35V132.35ZM398.5 134.92C401.388 136.634 403.636 138.97 405.266 141.958L408.777 140.042C406.807 136.43 404.055 133.566 400.543 131.48L398.5 134.92ZM405.288 141.998C406.996 144.964 407.871 148.363 407.871 152.25H411.871C411.871 147.737 410.847 143.636 408.755 140.002L405.288 141.998ZM407.871 152.25V154.05H411.871V152.25H407.871ZM407.871 154.05C407.871 157.52 407.054 160.558 405.457 163.221L408.886 165.279C410.889 161.942 411.871 158.18 411.871 154.05H407.871ZM405.457 163.221C403.835 165.924 401.632 168.086 398.817 169.72L400.826 173.18C404.211 171.214 406.908 168.576 408.886 165.279L405.457 163.221ZM398.835 169.71C396.166 171.223 393.112 172 389.621 172V176C393.731 176 397.477 175.077 400.808 173.19L398.835 169.71ZM389.621 172H352.571V176H389.621V172ZM424.011 169.65L422.546 171.011L422.571 171.038L422.597 171.064L424.011 169.65ZM424.011 61.2L422.572 59.8117L422.559 59.8253L422.546 59.8391L424.011 61.2ZM455.211 60.75L453.825 62.1917L453.839 62.2047L453.853 62.2175L455.211 60.75ZM459.861 69.45L457.876 69.6907L458.708 76.5566L461.669 70.3062L459.861 69.45ZM469.611 59.7L468.631 57.9568L468.623 57.9613L468.615 57.9658L469.611 59.7ZM507.111 60.45L506.018 62.1245V62.1245L507.111 60.45ZM517.911 72.6L519.722 71.7502L517.911 72.6ZM516.261 105.9L517.954 106.966L516.261 105.9ZM501.561 117.45L500.885 115.568L496.548 117.127L500.649 119.23L501.561 117.45ZM512.211 125.85L510.717 127.179L510.736 127.201L510.756 127.222L512.211 125.85ZM520.161 139.05L518.29 139.756L518.295 139.768L520.161 139.05ZM518.661 169.35L517.271 167.912L518.661 169.35ZM481.911 169.5L480.473 170.889L480.485 170.902L480.497 170.914L481.911 169.5ZM483.111 168.3L481.669 169.685L481.697 169.715L481.726 169.743L483.111 168.3ZM517.311 168.15L518.698 169.592L518.699 169.591L517.311 168.15ZM518.211 139.05L516.345 139.768L516.353 139.79L516.362 139.811L518.211 139.05ZM510.261 126.15L508.826 127.543V127.543L510.261 126.15ZM499.311 118.2L500.169 116.393L499.471 116.062L498.731 116.286L499.311 118.2ZM499.761 116.1L499.146 114.197L499.138 114.2L499.129 114.203L499.761 116.1ZM514.461 105.3L512.787 104.205L512.782 104.213L514.461 105.3ZM516.261 73.5L514.435 74.3159L514.446 74.3395L514.457 74.3629L516.261 73.5ZM506.061 61.95L504.969 63.6252L504.977 63.6306L504.985 63.6358L506.061 61.95ZM471.111 61.05L472.038 62.8224L472.045 62.8186L472.053 62.8147L471.111 61.05ZM461.661 69.75L459.904 68.7958L459.888 68.8254L459.872 68.8556L461.661 69.75ZM454.461 62.55L453.019 63.9351L453.033 63.9498L453.047 63.9642L454.461 62.55ZM425.211 62.55L423.739 61.1959L423.725 61.2121L423.71 61.2287L425.211 62.55ZM425.211 168.3L423.737 169.651L423.752 169.668L423.767 169.684L425.211 168.3ZM455.061 168.9L456.374 170.409L456.392 170.393L456.41 170.377L455.061 168.9ZM456.261 170.1L457.618 171.57L457.62 171.568L456.261 170.1ZM433.611 171.7C430.46 171.7 427.764 170.574 425.426 168.236L422.597 171.064C425.659 174.126 429.362 175.7 433.611 175.7V171.7ZM425.477 168.289C423.247 165.888 422.111 162.936 422.111 159.3H418.111C418.111 163.865 419.576 167.812 422.546 171.011L425.477 168.289ZM422.111 159.3V71.55H418.111V159.3H422.111ZM422.111 71.55C422.111 67.9145 423.247 64.9624 425.477 62.5609L422.546 59.8391C419.576 63.0375 418.111 66.9855 418.111 71.55H422.111ZM425.451 62.5883C427.796 60.1567 430.485 59 433.611 59V55C429.338 55 425.627 56.6432 422.572 59.8117L425.451 62.5883ZM433.611 59H444.711V55H433.611V59ZM444.711 59C448.715 59 451.676 60.1254 453.825 62.1917L456.598 59.3083C453.546 56.3746 449.508 55 444.711 55V59ZM453.853 62.2175C456.245 64.4325 457.539 66.9121 457.876 69.6907L461.847 69.2093C461.384 65.3879 459.578 62.0675 456.57 59.2825L453.853 62.2175ZM461.669 70.3062C463.25 66.9682 466.159 63.9896 470.608 61.4342L468.615 57.9658C463.663 60.8104 460.073 64.3318 458.054 68.5938L461.669 70.3062ZM470.592 61.4431C475.011 58.9576 480.697 57.65 487.761 57.65V53.65C480.226 53.65 473.812 55.0424 468.631 57.9568L470.592 61.4431ZM487.761 57.65C495.511 57.65 501.542 59.2016 506.018 62.1245L508.205 58.7755C502.881 55.2984 496.012 53.65 487.761 53.65V57.65ZM506.018 62.1245C510.633 65.1386 513.971 68.9132 516.101 73.4498L519.722 71.7502C517.251 66.4868 513.39 62.1614 508.205 58.7755L506.018 62.1245ZM516.101 73.4498C518.281 78.0951 519.361 82.8559 519.361 87.75H523.361C523.361 82.2441 522.141 76.9049 519.722 71.7502L516.101 73.4498ZM519.361 87.75C519.361 94.0927 517.758 99.7698 514.569 104.834L517.954 106.966C521.565 101.23 523.361 94.8073 523.361 87.75H519.361ZM514.569 104.834C511.423 109.831 506.894 113.408 500.885 115.568L502.238 119.332C509.029 116.892 514.3 112.769 517.954 106.966L514.569 104.834ZM500.649 119.23C504.308 121.106 507.665 123.745 510.717 127.179L513.706 124.521C510.358 120.755 506.615 117.794 502.474 115.67L500.649 119.23ZM510.756 127.222C513.846 130.499 516.367 134.66 518.29 139.756L522.033 138.344C519.956 132.84 517.177 128.201 513.667 124.478L510.756 127.222ZM518.295 139.768C520.185 144.683 521.161 150.627 521.161 157.65H525.161C525.161 150.273 524.138 143.817 522.028 138.332L518.295 139.768ZM521.161 157.65C521.161 162.11 519.814 165.455 517.271 167.912L520.051 170.788C523.509 167.445 525.161 162.99 525.161 157.65H521.161ZM517.271 167.912C514.709 170.389 511.29 171.7 506.811 171.7V175.7C512.133 175.7 516.614 174.111 520.051 170.788L517.271 167.912ZM506.811 171.7H492.411V175.7H506.811V171.7ZM492.411 171.7C488.706 171.7 485.726 170.486 483.326 168.086L480.497 170.914C483.697 174.114 487.717 175.7 492.411 175.7V171.7ZM483.35 168.111C480.907 165.58 479.711 162.627 479.711 159.15H475.711C475.711 163.673 477.316 167.62 480.473 170.889L483.35 168.111ZM479.711 159.15C479.711 159.158 479.708 159.532 479.351 159.889C478.993 160.247 478.62 160.25 478.611 160.25V156.25C478.003 156.25 477.179 156.403 476.522 157.061C475.865 157.718 475.711 158.542 475.711 159.15H479.711ZM478.611 160.25C478.603 160.25 478.229 160.247 477.872 159.889C477.515 159.532 477.511 159.158 477.511 159.15H481.511C481.511 158.542 481.358 157.718 480.701 157.061C480.043 156.403 479.22 156.25 478.611 156.25V160.25ZM477.511 159.15C477.511 163.244 478.896 166.797 481.669 169.685L484.554 166.915C482.527 164.803 481.511 162.256 481.511 159.15H477.511ZM481.726 169.743C484.626 172.526 488.233 173.9 492.411 173.9V169.9C489.189 169.9 486.597 168.874 484.496 166.857L481.726 169.743ZM492.411 173.9H506.811V169.9H492.411V173.9ZM506.811 173.9C511.608 173.9 515.646 172.525 518.698 169.592L515.925 166.708C513.776 168.775 510.815 169.9 506.811 169.9V173.9ZM518.699 169.591C521.858 166.548 523.361 162.491 523.361 157.65H519.361C519.361 161.609 518.164 164.552 515.924 166.709L518.699 169.591ZM523.361 157.65C523.361 150.169 522.287 143.694 520.061 138.288L516.362 139.811C518.336 144.606 519.361 150.531 519.361 157.65H523.361ZM520.078 138.332C517.998 132.924 515.214 128.382 511.697 124.757L508.826 127.543C511.908 130.718 514.425 134.776 516.345 139.768L520.078 138.332ZM511.697 124.757C508.242 121.198 504.4 118.403 500.169 116.393L498.453 120.007C502.223 121.797 505.681 124.302 508.826 127.543L511.697 124.757ZM498.731 116.286C495.659 117.217 492.061 117.7 487.911 117.7V121.7C492.362 121.7 496.364 121.183 499.891 120.114L498.731 116.286ZM487.911 117.7C487.801 117.7 488.091 117.67 488.425 117.956C488.819 118.294 488.861 118.704 488.861 118.8H484.861C484.861 119.496 485.079 120.356 485.822 120.994C486.507 121.58 487.322 121.7 487.911 121.7V117.7ZM488.861 118.8C488.861 118.808 488.858 119.182 488.501 119.539C488.143 119.897 487.77 119.9 487.761 119.9V115.9C487.153 115.9 486.329 116.053 485.672 116.711C485.015 117.368 484.861 118.192 484.861 118.8H488.861ZM487.761 119.9C492.343 119.9 496.56 119.275 500.394 117.997L499.129 114.203C495.762 115.325 491.98 115.9 487.761 115.9V119.9ZM500.376 118.003C507.257 115.78 512.559 111.921 516.141 106.386L512.782 104.213C509.763 108.879 505.266 112.22 499.146 114.197L500.376 118.003ZM516.135 106.394C519.758 100.854 521.561 94.6198 521.561 87.75H517.561C517.561 93.8802 515.965 99.3464 512.787 104.205L516.135 106.394ZM521.561 87.75C521.561 82.5391 520.389 77.4953 518.066 72.6371L514.457 74.3629C516.534 78.7047 517.561 83.1609 517.561 87.75H521.561ZM518.087 72.6841C515.815 67.5972 512.138 63.4563 507.137 60.2641L504.985 63.6358C509.384 66.4437 512.508 70.0028 514.435 74.3159L518.087 72.6841ZM507.154 60.2748C502.126 56.996 495.606 55.45 487.761 55.45V59.45C495.117 59.45 500.796 60.904 504.969 63.6252L507.154 60.2748ZM487.761 55.45C480.927 55.45 475.033 56.692 470.17 59.2853L472.053 62.8147C476.19 60.608 481.396 59.45 487.761 59.45V55.45ZM470.185 59.2775C465.52 61.7161 462.035 64.8691 459.904 68.7958L463.419 70.7042C465.087 67.6309 467.903 64.9839 472.038 62.8224L470.185 59.2775ZM459.872 68.8556C458.65 71.3001 458.011 73.8045 458.011 76.35H462.011C462.011 74.4955 462.472 72.5998 463.45 70.6444L459.872 68.8556ZM458.011 76.35C458.011 76.3417 458.015 75.9681 458.372 75.6108C458.729 75.2534 459.103 75.25 459.111 75.25V79.25C459.72 79.25 460.543 79.0966 461.201 78.4392C461.858 77.7819 462.011 76.9583 462.011 76.35H458.011ZM459.111 75.25C459.12 75.25 459.493 75.2534 459.851 75.6108C460.208 75.9681 460.211 76.3417 460.211 76.35H456.211C456.211 76.9583 456.365 77.7819 457.022 78.4392C457.679 79.0966 458.503 79.25 459.111 79.25V75.25ZM460.211 76.35V71.7H456.211V76.35H460.211ZM460.211 71.7C460.211 67.5804 458.758 64.0185 455.876 61.1358L453.047 63.9642C455.164 66.0815 456.211 68.6196 456.211 71.7H460.211ZM455.904 61.1649C453.058 58.2005 449.248 56.8 444.711 56.8V60.8C448.375 60.8 451.064 61.8995 453.019 63.9351L455.904 61.1649ZM444.711 56.8H433.611V60.8H444.711V56.8ZM433.611 56.8C429.734 56.8 426.406 58.298 423.739 61.1959L426.683 63.9041C428.617 61.802 430.889 60.8 433.611 60.8V56.8ZM423.71 61.2287C421.171 64.1137 419.911 67.5907 419.911 71.55H423.911C423.911 68.5093 424.852 65.9863 426.713 63.8713L423.71 61.2287ZM419.911 71.55V159.3H423.911V71.55H419.911ZM419.911 159.3C419.911 163.343 421.162 166.842 423.737 169.651L426.686 166.949C424.861 164.958 423.911 162.457 423.911 159.3H419.911ZM423.767 169.684C426.441 172.474 429.762 173.9 433.611 173.9V169.9C430.861 169.9 428.581 168.926 426.655 166.916L423.767 169.684ZM433.611 173.9H446.511V169.9H433.611V173.9ZM446.511 173.9C450.334 173.9 453.667 172.763 456.374 170.409L453.749 167.391C451.856 169.037 449.489 169.9 446.511 169.9V173.9ZM456.41 170.377C459.191 167.838 460.511 164.416 460.511 160.35H456.511C456.511 163.484 455.532 165.762 453.713 167.423L456.41 170.377ZM460.511 160.35C460.511 160.358 460.508 160.732 460.151 161.089C459.793 161.447 459.42 161.45 459.411 161.45V157.45C458.803 157.45 457.979 157.603 457.322 158.261C456.665 158.918 456.511 159.742 456.511 160.35H460.511ZM459.411 161.45C459.403 161.45 459.029 161.447 458.672 161.089C458.315 160.732 458.311 160.358 458.311 160.35H462.311C462.311 159.742 462.158 158.918 461.501 158.261C460.843 157.603 460.02 157.45 459.411 157.45V161.45ZM458.311 160.35C458.311 163.847 457.156 166.546 454.903 168.632L457.62 171.568C460.767 168.654 462.311 164.853 462.311 160.35H458.311ZM454.905 168.63C452.713 170.653 449.964 171.7 446.511 171.7V175.7C450.858 175.7 454.609 174.347 457.618 171.57L454.905 168.63ZM446.511 171.7H433.611V175.7H446.511V171.7Z" fill="url(#paint1_linear_362_201)" mask="url(#path-4-outside-1_362_201)"/>
<defs>
<linearGradient id="paint0_linear_362_201" x1="37.8692" y1="65.7516" x2="411.941" y2="193.583" gradientUnits="userSpaceOnUse">
<stop stop-color="#315AF1"/>
<stop offset="0.29" stop-color="#2A8CBC"/>
<stop offset="0.58" stop-color="#23BE87"/>
</linearGradient>
<linearGradient id="paint1_linear_362_201" x1="26.7762" y1="101.5" x2="421.917" y2="101.5" gradientUnits="userSpaceOnUse">
<stop stop-color="#315AF1"/>
<stop offset="0.5" stop-color="#2A8CBC"/>
<stop offset="1" stop-color="#23BE87"/>
</linearGradient>
</defs>
</svg>
