<svg xmlns="http://www.w3.org/2000/svg" width="266" height="80" fill="none" viewBox="0 0 266 91"><mask id="c" width="175" height="42" x="1" y="17" fill="#000" maskUnits="userSpaceOnUse"><path fill="#fff" d="M1 17h175v42H1z"/><path d="M6.5 58q-1.9 0-3.2-1.35Q2 55.25 2 53.2V23.95q0-2.05 1.3-3.45 1.35-1.4 3.2-1.4h4.2q1.7 0 2.95 1.15 1.3 1.1 1.55 2.85.85-2.1 3.1-3.3 2.3-1.25 5.25-1.25 4 0 6.65 1.75 2.7 1.7 4.05 4.45a12.7 12.7 0 0 1 1.4 5.85q0 3.1-1.25 5.7a9.9 9.9 0 0 1-3.7 4.15q-2.45 1.5-6.1 1.5h-8.5q-.3 0-.3-.3t.3-.3h8.5q3.45 0 5.75-1.45 2.35-1.45 3.5-3.85 1.2-2.45 1.2-5.45 0-2.95-1.3-5.55-1.3-2.65-3.85-4.25-2.55-1.65-6.35-1.65-2.9 0-5.05 1.3-2.1 1.25-2.9 3.15-.35.75-.35 1.75 0 .35-.3.35t-.3-.35v-1.4q0-1.85-1.15-3.05-1.1-1.2-2.8-1.2H6.5q-1.65 0-2.8 1.25-1.1 1.25-1.1 3V53.2q0 1.8 1.1 3 1.15 1.2 2.8 1.2h4.3q1.7 0 2.85-1.2t1.15-3q0-.3.3-.3t.3.3q0 2-1.35 3.4-1.3 1.4-3.25 1.4zm36.621-.1q-1.85 0-3.2-1.35-1.3-1.4-1.3-3.45V23.85q0-2.05 1.3-3.45 1.35-1.4 3.2-1.4h3.7q2.2 0 3.5 1.25 1.35 1.25 1.55 2.9.9-1.9 3.25-3.25 2.4-1.35 6.05-1.35 4 0 6.45 1.6t3.6 4.05 1.15 5.05q0 3.35-1.7 6.05t-4.9 3.85q1.95 1 3.55 2.8 1.65 1.75 2.65 4.4 1 2.6 1 6.2 0 2.45-1.5 3.9t-3.95 1.45h-4.8q-2.1 0-3.5-1.4-1.4-1.45-1.4-3.45 0-.3.3-.3t.3.3q0 1.8 1.2 3.05 1.25 1.2 3.1 1.2h4.8q2.2 0 3.5-1.25 1.35-1.3 1.35-3.5 0-3.65-1.05-6.2-1-2.6-2.65-4.3t-3.65-2.65q-1.65.5-3.8.5-.35 0-.35-.3t.3-.3q2.2 0 4-.6 3.25-1.05 4.9-3.6 1.7-2.6 1.7-5.85 0-2.45-1.1-4.75-1.05-2.35-3.4-3.85-2.3-1.5-6.1-1.5-3.3 0-5.55 1.2-2.2 1.15-3.15 2.9-.55 1.1-.55 2.2 0 .3-.3.3t-.3-.3V23.9q0-1.8-1.25-3.05-1.2-1.25-3.25-1.25h-3.7q-1.65 0-2.8 1.25-1.1 1.25-1.1 3V53.1q0 1.8 1.1 3 1.15 1.2 2.8 1.2h4.3q1.7 0 2.85-1 1.15-1.05 1.15-2.85 0-.3.3-.3t.3.3q0 2-1.35 3.25-1.3 1.2-3.25 1.2zm39.393.1q-1.85 0-3.4-.85-1.5-.9-2.4-2.4t-.9-3.4v-1.1q0-1.8.85-3.3.9-1.5 2.35-2.4 1.45-.95 3.25-.95V33.15q-1.85-.05-3.3-.95a6.75 6.75 0 0 1-2.3-2.35 6.1 6.1 0 0 1-.85-3.15v-1.1q0-1.85.85-3.3a6.75 6.75 0 0 1 2.35-2.3q1.5-.9 3.3-.9h12.6q1.85 0 3.3.9a6.23 6.23 0 0 1 2.35 2.3q.9 1.45.9 3.3v1.1a6.1 6.1 0 0 1-.85 3.15q-.8 1.45-2.3 2.35-1.45.9-3.4.95v8.45q0 .3-.3.3t-.3-.3v-8.75q0-.3.25-.3 2.75 0 4.5-1.7 1.8-1.7 1.8-4.15v-1.1q0-1.65-.8-3t-2.15-2.1q-1.35-.8-3-.8h-12.6q-2.45 0-4.2 1.7-1.7 1.7-1.7 4.2v1.1q0 2.45 1.75 4.15t4.4 1.7q.3 0 .3.3V43.9q0 .25-.3.25a5.86 5.86 0 0 0-3.1.85 6.2 6.2 0 0 0-2.25 2.2q-.8 1.35-.8 3.05v1.1q0 2.6 1.75 4.35 1.8 1.7 4.35 1.7h12.35q2.6 0 4.35-1.7 1.8-1.75 1.8-4.35v-.6q0-2.95-1.85-4.8-1.8-1.85-4.7-1.9-.65 0-1.4.25-.7.25-1.35.85-.3.2-.5 0t.05-.45q.6-.6 1.5-.9.95-.35 1.7-.35 2.1 0 3.7.95t2.5 2.6q.95 1.65.95 3.75v.6q0 1.9-.9 3.4t-2.45 2.4q-1.5.85-3.4.85zm27.013 0q-1.85 0-3.2-1.4-1.3-1.4-1.3-3.45v-29.2q0-2.05 1.3-3.45 1.35-1.4 3.2-1.4h4.55q1.5 0 2.7 1a4.53 4.53 0 0 1 1.6 2.4q.651-1.75 2.1-2.55a6.4 6.4 0 0 1 3.2-.85h6.9q2.151 0 3.6 1.5t1.45 3.6v3.2q0 2.1-1.45 3.6-1.4 1.45-3.6 1.45h-10.6q-.3 0-.3-.3t.3-.3h10.6q1.9 0 3.15-1.25 1.3-1.3 1.3-3.2v-3.2q0-1.9-1.3-3.2-1.25-1.3-3.15-1.3h-6.9q-2.05 0-3.55 1.25-1.5 1.2-1.5 3.85 0 .3-.3.3t-.3-.3v-.7q0-1.75-1.15-3.05-1.1-1.35-2.8-1.35h-4.55q-1.65 0-2.8 1.25-1.1 1.25-1.1 3v29.2q0 1.8 1.1 3.05 1.15 1.2 2.8 1.2h20.1q2.45 0 4.1-1.65 1.7-1.65 1.7-4.1 0-.3.3-.3t.3.3q0 1.75-.85 3.2a6.33 6.33 0 0 1-2.3 2.3q-1.45.85-3.25.85zm10.15-14q0-.3.3-.3h5.9q2.05 0 3.4-1.15 1.4-1.2 1.45-3.2 0-.3.3-.3t.3.3q-.05 2.25-1.6 3.6t-3.85 1.35h-5.9q-.3 0-.3-.3m24.86 13.9q-1.85 0-3.2-1.35-1.3-1.4-1.3-3.45V23.85q0-2.05 1.3-3.45 1.35-1.4 3.2-1.4h3.7q2.2 0 3.5 1.25 1.35 1.25 1.55 2.9.9-1.9 3.25-3.25 2.4-1.35 6.05-1.35 4 0 6.45 1.6t3.6 4.05 1.15 5.05q0 3.35-1.7 6.05t-4.9 3.85q1.95 1 3.55 2.8 1.65 1.75 2.65 4.4 1 2.6 1 6.2 0 2.45-1.5 3.9t-3.95 1.45h-4.8q-2.1 0-3.5-1.4-1.4-1.45-1.4-3.45 0-.3.3-.3t.3.3q0 1.8 1.2 3.05 1.25 1.2 3.1 1.2h4.8q2.2 0 3.5-1.25 1.35-1.3 1.35-3.5 0-3.65-1.05-6.2-1-2.6-2.65-4.3t-3.65-2.65q-1.65.5-3.8.5-.35 0-.35-.3t.3-.3q2.2 0 4-.6 3.25-1.05 4.9-3.6 1.7-2.6 1.7-5.85 0-2.45-1.1-4.75-1.05-2.35-3.4-3.85-2.3-1.5-6.1-1.5-3.3 0-5.55 1.2-2.2 1.15-3.15 2.9-.55 1.1-.55 2.2 0 .3-.3.3t-.3-.3V23.9q0-1.8-1.25-3.05-1.2-1.25-3.25-1.25h-3.7q-1.65 0-2.8 1.25-1.1 1.25-1.1 3V53.1q0 1.8 1.1 3 1.15 1.2 2.8 1.2h4.3q1.7 0 2.85-1 1.15-1.05 1.15-2.85 0-.3.3-.3t.3.3q0 2-1.35 3.25-1.3 1.2-3.25 1.2z"/></mask><path fill="url(#a)" d="M6.5 58q-1.9 0-3.2-1.35Q2 55.25 2 53.2V23.95q0-2.05 1.3-3.45 1.35-1.4 3.2-1.4h4.2q1.7 0 2.95 1.15 1.3 1.1 1.55 2.85.85-2.1 3.1-3.3 2.3-1.25 5.25-1.25 4 0 6.65 1.75 2.7 1.7 4.05 4.45a12.7 12.7 0 0 1 1.4 5.85q0 3.1-1.25 5.7a9.9 9.9 0 0 1-3.7 4.15q-2.45 1.5-6.1 1.5h-8.5q-.3 0-.3-.3t.3-.3h8.5q3.45 0 5.75-1.45 2.35-1.45 3.5-3.85 1.2-2.45 1.2-5.45 0-2.95-1.3-5.55-1.3-2.65-3.85-4.25-2.55-1.65-6.35-1.65-2.9 0-5.05 1.3-2.1 1.25-2.9 3.15-.35.75-.35 1.75 0 .35-.3.35t-.3-.35v-1.4q0-1.85-1.15-3.05-1.1-1.2-2.8-1.2H6.5q-1.65 0-2.8 1.25-1.1 1.25-1.1 3V53.2q0 1.8 1.1 3 1.15 1.2 2.8 1.2h4.3q1.7 0 2.85-1.2t1.15-3q0-.3.3-.3t.3.3q0 2-1.35 3.4-1.3 1.4-3.25 1.4zm36.621-.1q-1.85 0-3.2-1.35-1.3-1.4-1.3-3.45V23.85q0-2.05 1.3-3.45 1.35-1.4 3.2-1.4h3.7q2.2 0 3.5 1.25 1.35 1.25 1.55 2.9.9-1.9 3.25-3.25 2.4-1.35 6.05-1.35 4 0 6.45 1.6t3.6 4.05 1.15 5.05q0 3.35-1.7 6.05t-4.9 3.85q1.95 1 3.55 2.8 1.65 1.75 2.65 4.4 1 2.6 1 6.2 0 2.45-1.5 3.9t-3.95 1.45h-4.8q-2.1 0-3.5-1.4-1.4-1.45-1.4-3.45 0-.3.3-.3t.3.3q0 1.8 1.2 3.05 1.25 1.2 3.1 1.2h4.8q2.2 0 3.5-1.25 1.35-1.3 1.35-3.5 0-3.65-1.05-6.2-1-2.6-2.65-4.3t-3.65-2.65q-1.65.5-3.8.5-.35 0-.35-.3t.3-.3q2.2 0 4-.6 3.25-1.05 4.9-3.6 1.7-2.6 1.7-5.85 0-2.45-1.1-4.75-1.05-2.35-3.4-3.85-2.3-1.5-6.1-1.5-3.3 0-5.55 1.2-2.2 1.15-3.15 2.9-.55 1.1-.55 2.2 0 .3-.3.3t-.3-.3V23.9q0-1.8-1.25-3.05-1.2-1.25-3.25-1.25h-3.7q-1.65 0-2.8 1.25-1.1 1.25-1.1 3V53.1q0 1.8 1.1 3 1.15 1.2 2.8 1.2h4.3q1.7 0 2.85-1 1.15-1.05 1.15-2.85 0-.3.3-.3t.3.3q0 2-1.35 3.25-1.3 1.2-3.25 1.2zm39.393.1q-1.85 0-3.4-.85-1.5-.9-2.4-2.4t-.9-3.4v-1.1q0-1.8.85-3.3.9-1.5 2.35-2.4 1.45-.95 3.25-.95V33.15q-1.85-.05-3.3-.95a6.75 6.75 0 0 1-2.3-2.35 6.1 6.1 0 0 1-.85-3.15v-1.1q0-1.85.85-3.3a6.75 6.75 0 0 1 2.35-2.3q1.5-.9 3.3-.9h12.6q1.85 0 3.3.9a6.23 6.23 0 0 1 2.35 2.3q.9 1.45.9 3.3v1.1a6.1 6.1 0 0 1-.85 3.15q-.8 1.45-2.3 2.35-1.45.9-3.4.95v8.45q0 .3-.3.3t-.3-.3v-8.75q0-.3.25-.3 2.75 0 4.5-1.7 1.8-1.7 1.8-4.15v-1.1q0-1.65-.8-3t-2.15-2.1q-1.35-.8-3-.8h-12.6q-2.45 0-4.2 1.7-1.7 1.7-1.7 4.2v1.1q0 2.45 1.75 4.15t4.4 1.7q.3 0 .3.3V43.9q0 .25-.3.25a5.86 5.86 0 0 0-3.1.85 6.2 6.2 0 0 0-2.25 2.2q-.8 1.35-.8 3.05v1.1q0 2.6 1.75 4.35 1.8 1.7 4.35 1.7h12.35q2.6 0 4.35-1.7 1.8-1.75 1.8-4.35v-.6q0-2.95-1.85-4.8-1.8-1.85-4.7-1.9-.65 0-1.4.25-.7.25-1.35.85-.3.2-.5 0t.05-.45q.6-.6 1.5-.9.95-.35 1.7-.35 2.1 0 3.7.95t2.5 2.6q.95 1.65.95 3.75v.6q0 1.9-.9 3.4t-2.45 2.4q-1.5.85-3.4.85zm27.013 0q-1.85 0-3.2-1.4-1.3-1.4-1.3-3.45v-29.2q0-2.05 1.3-3.45 1.35-1.4 3.2-1.4h4.55q1.5 0 2.7 1a4.53 4.53 0 0 1 1.6 2.4q.651-1.75 2.1-2.55a6.4 6.4 0 0 1 3.2-.85h6.9q2.151 0 3.6 1.5t1.45 3.6v3.2q0 2.1-1.45 3.6-1.4 1.45-3.6 1.45h-10.6q-.3 0-.3-.3t.3-.3h10.6q1.9 0 3.15-1.25 1.3-1.3 1.3-3.2v-3.2q0-1.9-1.3-3.2-1.25-1.3-3.15-1.3h-6.9q-2.05 0-3.55 1.25-1.5 1.2-1.5 3.85 0 .3-.3.3t-.3-.3v-.7q0-1.75-1.15-3.05-1.1-1.35-2.8-1.35h-4.55q-1.65 0-2.8 1.25-1.1 1.25-1.1 3v29.2q0 1.8 1.1 3.05 1.15 1.2 2.8 1.2h20.1q2.45 0 4.1-1.65 1.7-1.65 1.7-4.1 0-.3.3-.3t.3.3q0 1.75-.85 3.2a6.33 6.33 0 0 1-2.3 2.3q-1.45.85-3.25.85zm10.15-14q0-.3.3-.3h5.9q2.05 0 3.4-1.15 1.4-1.2 1.45-3.2 0-.3.3-.3t.3.3q-.05 2.25-1.6 3.6t-3.85 1.35h-5.9q-.3 0-.3-.3m24.86 13.9q-1.85 0-3.2-1.35-1.3-1.4-1.3-3.45V23.85q0-2.05 1.3-3.45 1.35-1.4 3.2-1.4h3.7q2.2 0 3.5 1.25 1.35 1.25 1.55 2.9.9-1.9 3.25-3.25 2.4-1.35 6.05-1.35 4 0 6.45 1.6t3.6 4.05 1.15 5.05q0 3.35-1.7 6.05t-4.9 3.85q1.95 1 3.55 2.8 1.65 1.75 2.65 4.4 1 2.6 1 6.2 0 2.45-1.5 3.9t-3.95 1.45h-4.8q-2.1 0-3.5-1.4-1.4-1.45-1.4-3.45 0-.3.3-.3t.3.3q0 1.8 1.2 3.05 1.25 1.2 3.1 1.2h4.8q2.2 0 3.5-1.25 1.35-1.3 1.35-3.5 0-3.65-1.05-6.2-1-2.6-2.65-4.3t-3.65-2.65q-1.65.5-3.8.5-.35 0-.35-.3t.3-.3q2.2 0 4-.6 3.25-1.05 4.9-3.6 1.7-2.6 1.7-5.85 0-2.45-1.1-4.75-1.05-2.35-3.4-3.85-2.3-1.5-6.1-1.5-3.3 0-5.55 1.2-2.2 1.15-3.15 2.9-.55 1.1-.55 2.2 0 .3-.3.3t-.3-.3V23.9q0-1.8-1.25-3.05-1.2-1.25-3.25-1.25h-3.7q-1.65 0-2.8 1.25-1.1 1.25-1.1 3V53.1q0 1.8 1.1 3 1.15 1.2 2.8 1.2h4.3q1.7 0 2.85-1 1.15-1.05 1.15-2.85 0-.3.3-.3t.3.3q0 2-1.35 3.25-1.3 1.2-3.25 1.2z"/><path fill="url(#b)" d="m3.3 56.65-.733.68.006.007.007.007zm0-36.15-.72-.694-.006.007-.007.007zm10.35-.25-.677.736.015.014.016.013zm1.55 2.85-.99.141.525 3.674 1.392-3.44zm3.1-3.3.47.882.008-.003zm11.9.5-.551.834.009.006.01.006zm4.05 4.45-.898.44.004.007.003.007zm.15 11.55-.901-.433zm-3.7 4.15.522.853.006-.004.007-.004zm-.35-.55-.525-.851-.008.005zm3.5-3.85-.898-.44-.004.008zm-.1-11-.898.44.004.007zM29.9 20.8l-.543.84.012.007zm-11.4-.35.512.86.005-.004zm-2.9 3.15.906.423.008-.017.008-.018zm-2.1-2.7-.737.676.007.008.008.008zm-9.8.05-.736-.677-.007.008-.008.008zm0 35.25-.737.676.007.008.008.008zm9.95 0-.722-.692zm.4.4-.72-.694-.006.007-.007.007zM6.5 57c-1 0-1.804-.342-2.48-1.044l-1.44 1.388C3.638 58.442 4.966 59 6.5 59zm-2.467-1.03C3.35 55.235 3 54.333 3 53.2H1c0 1.599.516 2.998 1.567 4.13zM3 53.2V23.95H1V53.2zm0-29.25c0-1.134.351-2.035 1.033-2.77l-1.466-1.36C1.516 20.952 1 22.35 1 23.95zm1.02-2.756c.722-.749 1.533-1.094 2.48-1.094v-2c-1.52 0-2.842.588-3.92 1.706zM6.5 20.1h4.2v-2H6.5zm4.2 0c.883 0 1.624.29 2.273.886l1.354-1.472A5.2 5.2 0 0 0 10.7 18.1zm2.304.913c.672.569 1.073 1.294 1.206 2.228l1.98-.282c-.2-1.4-.833-2.574-1.894-3.472zm3.123 2.462c.468-1.155 1.323-2.088 2.644-2.793l-.942-1.764c-1.679.895-2.89 2.162-3.556 3.807zm2.65-2.796c1.37-.744 2.952-1.129 4.773-1.129v-2c-2.112 0-4.03.449-5.727 1.371zm4.773-1.129c2.521 0 4.534.55 6.099 1.584l1.102-1.669c-1.968-1.299-4.39-1.915-7.201-1.915zm6.117 1.596c1.65 1.04 2.87 2.385 3.685 4.045l1.796-.882c-.986-2.007-2.465-3.627-4.415-4.855zm3.692 4.058A11.7 11.7 0 0 1 34.65 30.6h2c0-2.224-.504-4.33-1.509-6.304zM34.65 30.6c0 1.928-.388 3.678-1.151 5.267l1.802.866c.903-1.878 1.349-3.928 1.349-6.133zm-1.151 5.267a8.9 8.9 0 0 1-3.334 3.738l1.07 1.69a10.9 10.9 0 0 0 4.066-4.562zm-3.321 3.73c-1.439.881-3.28 1.353-5.578 1.353v2c2.568 0 4.794-.528 6.622-1.647zM24.6 40.95h-8.5v2h8.5zm-8.5 0c.054 0 .278.014.482.218a.7.7 0 0 1 .218.482h-2c0 .254.064.628.368.932a1.3 1.3 0 0 0 .932.368zm.7.7a.7.7 0 0 1-.218.482.7.7 0 0 1-.482.218v-2a1.3 1.3 0 0 0-.932.368 1.3 1.3 0 0 0-.368.932zm-.7.7h8.5v-2h-8.5zm8.5 0c2.438 0 4.552-.513 6.283-1.604l-1.066-1.692c-1.336.842-3.055 1.296-5.217 1.296zm6.275-1.599c1.723-1.063 3.024-2.49 3.877-4.269l-1.804-.864c-.68 1.42-1.713 2.561-3.123 3.431zm3.873-4.261c.874-1.784 1.302-3.753 1.302-5.89h-2c0 1.863-.372 3.527-1.098 5.01zm1.302-5.89c0-2.12-.468-4.123-1.406-5.997l-1.788.894A11.24 11.24 0 0 1 34.05 30.6zm-1.402-5.99c-.95-1.937-2.362-3.494-4.217-4.657l-1.062 1.694c1.545.97 2.7 2.247 3.483 3.843zm-4.205-4.65c-1.898-1.228-4.215-1.81-6.893-1.81v2c2.389 0 4.305.518 5.807 1.49zm-6.893-1.81c-2.087 0-3.955.47-5.567 1.444l1.034 1.712c1.255-.759 2.753-1.156 4.533-1.156zm-5.562 1.44c-1.548.922-2.679 2.124-3.31 3.622l1.844.776c.436-1.035 1.238-1.934 2.49-2.679zm-3.294 3.587c-.307.657-.444 1.39-.444 2.173h2c0-.55.096-.984.256-1.327zm-.444 2.173c0-.003-.003-.192.166-.388a.73.73 0 0 1 .534-.262v2c.298 0 .69-.094.984-.437.269-.313.316-.677.316-.913zm.7-.65c.098 0 .34.036.534.262.169.196.166.385.166.388h-2c0 .236.047.6.316.913.293.343.686.437.984.437zm.7.65v-1.4h-2v1.4zm0-1.4c0-1.46-.462-2.734-1.428-3.742l-1.444 1.384c.567.592.872 1.35.872 2.358zm-1.413-3.726C13.305 19.207 12.1 18.7 10.7 18.7v2c.867 0 1.528.293 2.063.876zM10.7 18.7H6.5v2h4.2zm-4.2 0c-1.389 0-2.586.54-3.536 1.573l1.472 1.354c.584-.634 1.253-.927 2.064-.927zm-3.55 1.59c-.903 1.025-1.35 2.264-1.35 3.66h2c0-.937.287-1.698.85-2.34zM1.6 23.95V53.2h2V23.95zm0 29.25c0 1.422.442 2.671 1.363 3.676l1.474-1.352C3.891 54.93 3.6 54.178 3.6 53.2zm1.378 3.692c.954.995 2.147 1.508 3.522 1.508v-2c-.825 0-1.498-.287-2.078-.892zM6.5 58.4h4.3v-2H6.5zm4.3 0c1.399 0 2.612-.506 3.572-1.508l-1.444-1.384c-.573.598-1.26.892-2.128.892zm3.572-1.508c.96-1.003 1.428-2.258 1.428-3.692h-2c0 .966-.3 1.71-.872 2.308zM15.8 53.2a.7.7 0 0 1-.218.482.7.7 0 0 1-.482.218v-2a1.3 1.3 0 0 0-.932.368 1.3 1.3 0 0 0-.368.932zm-.7.7a.7.7 0 0 1-.482-.218.7.7 0 0 1-.218-.482h2a1.3 1.3 0 0 0-.368-.932 1.3 1.3 0 0 0-.932-.368zm-.7-.7c0 1.083-.355 1.965-1.07 2.706l1.44 1.388c1.085-1.125 1.63-2.51 1.63-4.094zm-1.083 2.72c-.673.724-1.489 1.08-2.517 1.08v2c1.571 0 2.922-.578 3.983-1.72zM10.8 57H6.5v2h4.3zm29.121-.45-.733.68.013.014.013.013zm0-36.15-.72-.694-.006.007-.007.006zm10.4-.15-.693.72.007.007.007.007zm1.55 2.9-.993.12.416 3.433 1.48-3.125zm3.25-3.25-.49-.872-.008.005zm12.5.25-.547.837zm3.6 4.05.905-.425zm-.55 11.1.846.533zm-4.9 3.85-.338-.941-2.169.78 2.05 1.05zm3.55 2.8-.747.664.01.011.01.011zm2.65 4.4-.936.353.003.006zm-.5 10.1-.695-.719zm-12.25.05-.72.695.007.006.006.006zm.4-.4-.721.692.014.015.015.014zm11.4-.05.693.72zm.3-9.7-.933.359.004.01.004.012zm-2.65-4.3-.718.697zm-3.65-2.65.43-.903-.35-.166-.37.112zm.15-.7-.307-.952-.01.003zm4.9-3.6-.837-.547-.002.004zm.6-10.6-.913.408.005.012.006.011zm-3.4-3.85-.546.838.008.005zm-11.65-.3.463.886.008-.004zm-3.15 2.9-.879-.477-.008.015-.007.015zm-2.4-2.4-.721.692.007.008.007.007zm-9.75 0-.736-.677-.007.008-.008.008zm0 35.25-.737.676.007.008.008.008zm9.95.2.656.755.01-.008.008-.008zm.4.4.678.735.002-.001zm-7.55.2c-.959 0-1.774-.338-2.493-1.057l-1.414 1.414c1.08 1.08 2.4 1.643 3.907 1.643zm-2.467-1.03c-.682-.735-1.033-1.636-1.033-2.77h-2c0 1.599.516 2.998 1.567 4.13zM39.62 53.1V23.85h-2V53.1zm0-29.25c0-1.134.351-2.035 1.033-2.77l-1.466-1.36c-1.051 1.132-1.567 2.531-1.567 4.13zm1.02-2.756c.722-.749 1.534-1.094 2.48-1.094v-2c-1.52 0-2.842.588-3.92 1.706zM43.12 20h3.7v-2h-3.7zm3.7 0c1.269 0 2.166.354 2.807.97l1.386-1.44C49.922 18.478 48.486 18 46.821 18zm2.82.984c.747.69 1.136 1.447 1.237 2.286l1.986-.24c-.165-1.361-.81-2.538-1.863-3.514zm3.134 2.594c.49-1.036 1.404-1.983 2.844-2.81l-.996-1.735c-1.693.972-2.946 2.191-3.656 3.689zm2.836-2.806c1.41-.793 3.245-1.222 5.56-1.222v-2c-2.55 0-4.75.471-6.54 1.478zm5.56-1.222c2.542 0 4.482.51 5.903 1.437l1.094-1.674c-1.846-1.205-4.205-1.763-6.997-1.763zm5.903 1.437c1.491.974 2.56 2.186 3.242 3.638l1.81-.85c-.852-1.815-2.182-3.303-3.958-4.462zm3.242 3.638c.707 1.506 1.055 3.045 1.055 4.625h2c0-1.886-.418-3.714-1.245-5.475zm1.055 4.625c0 2.055-.518 3.885-1.546 5.517l1.692 1.066c1.24-1.968 1.854-4.171 1.854-6.583zm-1.546 5.517c-1.006 1.598-2.454 2.746-4.392 3.442l.676 1.882c2.329-.837 4.148-2.256 5.408-4.258zm-4.51 5.273c1.18.605 2.266 1.458 3.259 2.574l1.495-1.328c-1.141-1.284-2.421-2.297-3.842-3.026zm3.279 2.596c.994 1.055 1.813 2.402 2.442 4.067l1.87-.706c-.705-1.869-1.652-3.455-2.857-4.733zm2.444 4.073c.612 1.59.933 3.53.933 5.841h2c0-2.489-.345-4.683-1.067-6.559zm.933 5.841c0 1.413-.424 2.436-1.195 3.181l1.39 1.438c1.229-1.188 1.805-2.766 1.805-4.619zm-1.195 3.181c-.781.755-1.832 1.169-3.255 1.169v2c1.844 0 3.427-.553 4.645-1.731zM67.521 56.9h-4.8v2h4.8zm-4.8 0c-1.152 0-2.06-.374-2.793-1.107l-1.414 1.414c1.133 1.133 2.56 1.693 4.207 1.693zm-2.78-1.095c-.755-.782-1.12-1.683-1.12-2.755h-2c0 1.595.569 2.993 1.68 4.145zm-1.12-2.755a.7.7 0 0 1-.218.482.7.7 0 0 1-.482.218v-2a1.3 1.3 0 0 0-.932.368 1.3 1.3 0 0 0-.368.932zm-.7.7a.7.7 0 0 1-.482-.218.7.7 0 0 1-.218-.482h2a1.3 1.3 0 0 0-.368-.932 1.3 1.3 0 0 0-.932-.368zm-.7-.7c0 1.447.492 2.715 1.479 3.742l1.443-1.385c-.614-.639-.922-1.404-.922-2.357zm1.508 3.771c1.032.992 2.32 1.479 3.792 1.479v-2c-.994 0-1.774-.313-2.407-.921zM62.72 58.3h4.8v-2h-4.8zm4.8 0c1.665 0 3.101-.479 4.193-1.53l-1.386-1.44c-.641.616-1.538.97-2.807.97zm4.194-1.53c1.13-1.088 1.656-2.533 1.656-4.22h-2c0 1.246-.373 2.134-1.043 2.78zm1.656-4.22c0-2.524-.362-4.728-1.125-6.58l-1.85.76c.637 1.548.975 3.477.975 5.82zm-1.117-6.559c-.706-1.837-1.656-3.392-2.865-4.638l-1.435 1.393c.99 1.021 1.807 2.334 2.434 3.963zm-2.865-4.638c-1.177-1.212-2.49-2.168-3.939-2.856l-.858 1.806c1.218.579 2.339 1.39 3.362 2.444zm-4.658-2.91c-.986.299-2.152.457-3.51.457v2c1.509 0 2.876-.175 4.09-.543zm-3.51.457c.003 0 .192-.003.388.166a.73.73 0 0 1 .262.534h-2c0 .298.094.69.437.984.313.269.677.316.913.316zm.65.7a.7.7 0 0 1-.218.482.7.7 0 0 1-.482.218v-2a1.3 1.3 0 0 0-.932.368 1.3 1.3 0 0 0-.368.932zm-.7.7c1.557 0 3-.212 4.316-.651l-.632-1.898c-1.083.361-2.308.549-3.684.549zm4.307-.648c2.357-.762 4.192-2.091 5.433-4.009l-1.68-1.086c-.959 1.482-2.39 2.553-4.367 3.191zm5.43-4.005c1.245-1.904 1.863-4.045 1.863-6.397h-2c0 1.982-.515 3.74-1.537 5.303zm1.863-6.397c0-1.789-.403-3.519-1.198-5.181l-1.804.863c.672 1.404 1.002 2.84 1.002 4.318zm-1.187-5.158c-.786-1.76-2.058-3.189-3.775-4.285l-1.076 1.686c1.416.904 2.411 2.042 3.025 3.415zm-3.767-4.28c-1.747-1.139-3.99-1.662-6.646-1.662v2c2.411 0 4.234.477 5.554 1.338zm-6.646-1.662c-2.317 0-4.34.421-6.02 1.318l.94 1.764c1.32-.703 2.997-1.082 5.08-1.082zm-6.013 1.314c-1.6.836-2.817 1.929-3.566 3.309l1.758.954c.517-.953 1.4-1.793 2.734-2.49zm-3.581 3.339c-.428.855-.656 1.74-.656 2.647h2c0-.56.139-1.142.444-1.753zm-.656 2.647c0-.054.014-.278.218-.482a.7.7 0 0 1 .482-.218v2a1.3 1.3 0 0 0 .932-.368 1.3 1.3 0 0 0 .368-.932zm.7-.7c.054 0 .279.014.482.218a.7.7 0 0 1 .218.482h-2c0 .254.064.628.368.932a1.3 1.3 0 0 0 .932.368zm.7.7V23.9h-2v1.55zm0-1.55c0-1.46-.518-2.732-1.543-3.757l-1.414 1.414c.642.642.957 1.403.957 2.343zm-1.529-3.742c-1.022-1.066-2.386-1.558-3.97-1.558v2c1.147 0 1.95.341 2.528.942zm-3.97-1.558h-3.7v2h3.7zm-3.7 0c-1.39 0-2.587.54-3.537 1.573l1.472 1.354c.584-.634 1.253-.927 2.064-.927zm-3.552 1.59c-.902 1.025-1.349 2.264-1.349 3.66h2c0-.937.287-1.699.85-2.34zm-1.349 3.66V53.1h2V23.85zm0 29.25c0 1.422.442 2.671 1.363 3.676l1.474-1.352c-.546-.595-.837-1.346-.837-2.324zm1.378 3.692c.954.995 2.147 1.508 3.522 1.508v-2c-.825 0-1.498-.287-2.078-.892zm3.522 1.508h4.3v-2h-4.3zm4.3 0c1.345 0 2.536-.402 3.506-1.245l-1.312-1.51c-.563.49-1.272.755-2.194.755zm3.524-1.261c1.008-.92 1.476-2.156 1.476-3.589h-2c0 .967-.298 1.631-.824 2.111zm1.476-3.589a.7.7 0 0 1-.218.482.7.7 0 0 1-.482.218v-2a1.3 1.3 0 0 0-.932.368 1.3 1.3 0 0 0-.368.932zm-.7.7a.7.7 0 0 1-.482-.218.7.7 0 0 1-.218-.482h2a1.3 1.3 0 0 0-.368-.932 1.3 1.3 0 0 0-.932-.368zm-.7-.7c0 1.082-.353 1.89-1.03 2.516l1.36 1.468c1.123-1.04 1.67-2.4 1.67-3.984zm-1.028 2.515c-.663.612-1.495.935-2.572.935v2c1.524 0 2.858-.477 3.928-1.465zm-2.572.935h-4.3v2h4.3zm31.693.25-.514.858.016.01.017.009zm-2.4-2.4.858-.514zm-.05-7.8-.857-.515-.007.011-.006.011zm2.35-2.4.527.85.01-.007.011-.007zm3.25-.95v1h1v-1zm0-10.45h1v-.973l-.973-.027zm-3.3-.95.527-.85zm-2.3-9.9-.85-.527-.006.01-.007.011zm2.35-2.3.506.863.009-.005zm19.2 0-.527.85.017.01.017.01zm2.35 2.3-.863.506.007.01.006.011zm.05 7.55-.863-.506-.006.011-.007.012zm-2.3 2.35-.514-.858-.007.004-.006.004zm-3.4.95-.026-1-.974.025v.975zm4.15-2.3-.687-.727-.01.01zm1-8.25-.86.51zm-2.15-2.1-.51.86.012.007.012.007zm-19.8.9-.697-.717-.005.005-.005.005zm.05 9.45.697-.717zm1.3 14.15.496.868.012-.006.011-.007zm-2.25 2.2-.855-.519-.005.01zm.95 8.5-.707.707.01.01.01.01zm21.05 0 .697.717zm-.05-9.75-.717.697.01.01zm-4.7-1.9.017-1h-.017zm-1.4.25-.316-.949-.01.004-.01.003zm-1.35.85.555.832.065-.044.058-.053zm-.5 0-.707.707zm.05-.45.707.707zm1.5-.9.316.949.015-.005.015-.006zm7.9 3.2-.878.479.006.01.005.01zm.05 7.75-.857-.514zm-2.45 2.4.493.87.01-.005zM82.514 57c-1.073 0-2.04-.245-2.92-.727l-.96 1.754c1.187.651 2.487.973 3.88.973zm-2.885-.708a5.9 5.9 0 0 1-2.057-2.056l-1.715 1.029a7.9 7.9 0 0 0 2.743 2.742zm-2.057-2.056c-.5-.832-.758-1.784-.758-2.886h-2c0 1.432.341 2.746 1.043 3.914zm-.758-2.886v-1.1h-2v1.1zm0-1.1c0-1.035.242-1.964.72-2.807l-1.74-.986c-.656 1.157-.98 2.428-.98 3.793zm.708-2.785a6.04 6.04 0 0 1 2.02-2.065l-1.055-1.7a8.04 8.04 0 0 0-2.68 2.735zm2.04-2.079c.797-.522 1.689-.786 2.702-.786v-2c-1.387 0-2.662.37-3.798 1.114zm3.702-1.786V33.15h-2V43.6zm-.973-11.45c-1.072-.029-1.996-.3-2.8-.8l-1.054 1.7c1.13.7 2.405 1.062 3.8 1.1zm-2.8-.8a5.75 5.75 0 0 1-1.964-2.006L75.8 30.356a7.75 7.75 0 0 0 2.636 2.694zm-1.964-2.006a5.1 5.1 0 0 1-.713-2.644h-2c0 1.309.33 2.534.987 3.656zm-.713-2.644v-1.1h-2v1.1zm0-1.1c0-1.074.245-1.996.713-2.794L75.8 21.794c-.665 1.136-.987 2.413-.987 3.806zm.7-2.773a5.75 5.75 0 0 1 2.006-1.964l-1.012-1.726a7.75 7.75 0 0 0-2.694 2.636zm2.015-1.97a5.3 5.3 0 0 1 2.785-.757v-2a7.3 7.3 0 0 0-3.814 1.042zm2.785-.757h12.6v-2h-12.6zm12.6 0c1.063 0 1.978.256 2.773.75l1.054-1.7c-1.138-.706-2.424-1.05-3.827-1.05zm2.807.77a5.23 5.23 0 0 1 1.98 1.936l1.726-1.012a7.23 7.23 0 0 0-2.72-2.664zm1.993 1.957c.494.795.75 1.71.75 2.773h2c0-1.403-.344-2.69-1.05-3.827zm.75 2.773v1.1h2v-1.1zm0 1.1a5.1 5.1 0 0 1-.713 2.644l1.726 1.012a7.1 7.1 0 0 0 .987-3.656zm-.725 2.667c-.444.803-1.082 1.461-1.94 1.976l1.03 1.714c1.142-.685 2.037-1.594 2.661-2.724zm-1.952 1.983c-.796.494-1.75.77-2.899.8l.052 2c1.451-.038 2.763-.394 3.901-1.1zm-3.873 1.8v8.45h2v-8.45zm0 8.45c0-.054.014-.278.218-.482a.7.7 0 0 1 .482-.218v2a1.3 1.3 0 0 0 .932-.368 1.3 1.3 0 0 0 .368-.932zm.7-.7c.054 0 .278.014.482.218a.7.7 0 0 1 .218.482h-2c0 .254.064.628.368.932a1.3 1.3 0 0 0 .932.368zm.7.7v-8.75h-2v8.75zm0-8.75c0 .014 0 .211-.17.415a.78.78 0 0 1-.58.285v-2c-.29 0-.673.096-.956.435a1.34 1.34 0 0 0-.294.865zm-.75.7c2.058 0 3.82-.644 5.197-1.983l-1.394-1.434c-.956.928-2.194 1.417-3.803 1.417zm5.187-1.973c1.397-1.32 2.113-2.965 2.113-4.877h-2c0 1.355-.484 2.476-1.487 3.423zm2.113-4.877v-1.1h-2v1.1zm0-1.1c0-1.27-.31-2.447-.94-3.51l-1.72 1.02c.437.737.66 1.56.66 2.49zm-.94-3.51a6.65 6.65 0 0 0-2.524-2.464l-.972 1.748c.743.413 1.331.986 1.776 1.736zm-2.5-2.45c-1.062-.63-2.24-.94-3.51-.94v2c.93 0 1.753.223 2.49.66zm-3.51-.94h-12.6v2h12.6zm-12.6 0c-1.892 0-3.542.667-4.897 1.983l1.394 1.434c.979-.95 2.129-1.417 3.503-1.417zm-4.907 1.993c-1.33 1.329-1.993 2.987-1.993 4.907h2c0-1.413.47-2.555 1.407-3.493zM75.414 25.6v1.1h2v-1.1zm0 1.1c0 1.902.692 3.545 2.053 4.867l1.394-1.434c-.972-.944-1.447-2.069-1.447-3.433zm2.053 4.867c1.37 1.331 3.095 1.983 5.097 1.983v-2c-1.531 0-2.74-.482-3.703-1.417zm5.097 1.983a.7.7 0 0 1-.482-.218.7.7 0 0 1-.218-.482h2a1.3 1.3 0 0 0-.368-.932 1.3 1.3 0 0 0-.932-.368zm-.7-.7V43.9h2V32.85zm0 11.05c0-.124.046-.381.285-.58.204-.17.4-.17.415-.17v2c.214 0 .561-.04.865-.294.34-.283.435-.666.435-.956zm.7-.75c-1.309 0-2.523.33-3.619.995l1.038 1.71a4.86 4.86 0 0 1 2.581-.705zm-3.596.982a7.2 7.2 0 0 0-2.609 2.549l1.71 1.038a5.2 5.2 0 0 1 1.891-1.85zm-2.614 2.558c-.633 1.067-.94 2.263-.94 3.56h2c0-.97.226-1.807.66-2.54zm-.94 3.56v1.1h2v-1.1zm0 1.1c0 1.984.678 3.693 2.043 5.057l1.414-1.414c-.969-.969-1.457-2.16-1.457-3.643zm2.063 5.077c1.392 1.314 3.09 1.973 5.037 1.973v-2c-1.453 0-2.655-.475-3.663-1.427zm5.037 1.973h12.35v-2h-12.35zm12.35 0c1.975 0 3.68-.655 5.047-1.983l-1.394-1.434c-.967.939-2.16 1.417-3.653 1.417zm5.047-1.983c1.401-1.362 2.103-3.074 2.103-5.067h-2c0 1.474-.498 2.662-1.497 3.633zm2.103-5.067v-.6h-2v.6zm0-.6c0-2.195-.697-4.062-2.143-5.507l-1.414 1.414c1.021 1.021 1.557 2.355 1.557 4.093zm-2.133-5.497c-1.408-1.447-3.238-2.166-5.4-2.203l-.034 2c1.705.03 3.008.577 4 1.597zm-5.417-2.203c-.561 0-1.135.108-1.716.301l.632 1.898c.42-.14.779-.199 1.084-.199zm-1.736.308c-.615.22-1.178.583-1.692 1.057l1.356 1.47c.353-.326.69-.53 1.008-.643zm-1.569.96c.002-.001.025-.017.07-.033a.692.692 0 0 1 .693.158l-1.415 1.414c.227.227.548.393.932.393.35 0 .635-.138.83-.268zm.762.125a.75.75 0 0 1 .112.88c-.032.054-.059.08-.062.084l-1.414-1.414c-.159.159-.38.438-.424.834-.05.45.151.807.374 1.03zm.05.964c.278-.278.639-.502 1.11-.658l-.633-1.898c-.73.244-1.369.62-1.891 1.142zm1.139-.669c.559-.206 1.005-.288 1.354-.288v-2c-.651 0-1.338.15-2.046.412zm1.354-.288c1.244 0 2.296.28 3.19.81l1.02-1.72c-1.24-.736-2.654-1.09-4.21-1.09zm3.19.81a5.7 5.7 0 0 1 2.132 2.219l1.756-.958a7.7 7.7 0 0 0-2.867-2.98zm2.143 2.239c.538.933.817 2.008.817 3.251h2c0-1.557-.354-2.982-1.083-4.249zm.817 3.251v.6h2v-.6zm0 .6c0 1.102-.259 2.054-.757 2.886l1.715 1.029c.701-1.17 1.042-2.483 1.042-3.915zm-.757 2.886a5.77 5.77 0 0 1-2.095 2.05l1.004 1.729a7.8 7.8 0 0 0 2.806-2.75zM97.77 56.28c-.835.473-1.795.72-2.907.72v2c1.421 0 2.728-.32 3.893-.98zm-2.907.72h-12.35v2h12.35zm11.463-.4-.732.68.006.007.006.007zm0-36.1-.72-.694-.006.007-.006.007zm10.45-.4-.64.768.01.008.01.008zm1.6 2.4-.964.266.824 2.985 1.078-2.903zm2.1-2.55.483.876.01-.006zm13.7.65-.719.695zm0 10.4-.719-.695zm-.45-.4-.707-.707zm0-9.6-.72.693.006.007.007.007zm-13.6-.05.625.78.008-.005.008-.007zm-3.25.1-.775.632.013.015.013.016zm-10.15-.1-.736-.677-.007.008-.007.008zm0 35.25-.75.66.014.017.014.015zm27-.45-.696-.718-.005.006-.006.005zm1.45-.9-.862-.506zm-2.3 2.3-.505-.863zm-3.6-14.6.649.761.002-.002zm1.45-3.2 1 .025v-.025zm.6 0 1 .022v-.022zm-1.6 3.6.657.754zM109.527 57c-.946 0-1.757-.345-2.48-1.094l-1.44 1.388c1.078 1.118 2.4 1.706 3.92 1.706zm-2.467-1.08c-.682-.735-1.033-1.636-1.033-2.77h-2c0 1.599.516 2.998 1.568 4.13zm-1.033-2.77v-29.2h-2v29.2zm0-29.2c0-1.134.351-2.035 1.033-2.77l-1.465-1.36c-1.052 1.132-1.568 2.531-1.568 4.13zm1.02-2.756c.723-.749 1.534-1.094 2.48-1.094v-2c-1.52 0-2.842.588-3.92 1.706zm2.48-1.094h4.55v-2h-4.55zm4.55 0c.756 0 1.432.245 2.06.768l1.281-1.536c-.972-.81-2.096-1.232-3.341-1.232zm2.08.784a3.53 3.53 0 0 1 1.256 1.882l1.928-.532a5.53 5.53 0 0 0-1.943-2.918zm3.158 1.964c.361-.972.915-1.62 1.645-2.022l-.966-1.752c-1.203.664-2.049 1.717-2.554 3.078zm1.655-2.028a5.4 5.4 0 0 1 2.707-.72v-2a7.4 7.4 0 0 0-3.693.98zm2.707-.72h6.9v-2h-6.9zm6.9 0c1.172 0 2.109.396 2.881 1.195l1.438-1.39c-1.161-1.202-2.624-1.805-4.319-1.805zm2.881 1.195c.785.812 1.169 1.762 1.169 2.905h2c0-1.657-.582-3.107-1.731-4.295zm1.169 2.905v3.2h2v-3.2zm0 3.2c0 1.143-.384 2.093-1.169 2.905l1.438 1.39c1.149-1.188 1.731-2.638 1.731-4.295zm-1.169 2.905c-.727.753-1.658 1.145-2.881 1.145v2c1.711 0 3.18-.575 4.32-1.755zm-2.881 1.145h-10.6v2h10.6zm-10.6 0c.054 0 .279.014.482.218a.7.7 0 0 1 .218.482h-2c0 .254.065.628.368.932a1.3 1.3 0 0 0 .932.368zm.7.7a.7.7 0 0 1-.218.482.7.7 0 0 1-.482.218v-2a1.3 1.3 0 0 0-.932.368 1.3 1.3 0 0 0-.368.932zm-.7.7h10.6v-2h-10.6zm10.6 0c1.51 0 2.822-.507 3.857-1.543l-1.414-1.414c-.631.63-1.419.957-2.443.957zm3.857-1.543c1.062-1.061 1.593-2.385 1.593-3.907h-2c0 1.011-.335 1.82-1.007 2.493zm1.593-3.907v-3.2h-2v3.2zm0-3.2c0-1.522-.531-2.846-1.593-3.907l-1.414 1.414c.672.672 1.007 1.482 1.007 2.493zm-1.579-3.893c-1.033-1.074-2.348-1.607-3.871-1.607v2c1.011 0 1.796.334 2.43.993zm-3.871-1.607h-6.9v2h6.9zm-6.9 0c-1.588 0-3.001.49-4.19 1.482l1.281 1.536c.81-.675 1.764-1.018 2.909-1.018zm-4.174 1.47c-1.319 1.054-1.876 2.682-1.876 4.63h2c0-1.585.444-2.524 1.125-3.07zm-1.876 4.63c0-.054.015-.278.218-.482a.7.7 0 0 1 .482-.218v2c.254 0 .629-.064.932-.368s.368-.678.368-.932zm.7-.7c.054 0 .279.014.482.218a.7.7 0 0 1 .218.482h-2c0 .254.065.628.368.932a1.3 1.3 0 0 0 .932.368zm.7.7v-.7h-2v.7zm0-.7c0-1.408-.471-2.661-1.401-3.713l-1.498 1.326c.604.682.899 1.462.899 2.387zm-1.374-3.682c-.918-1.126-2.133-1.718-3.576-1.718v2c.825 0 1.476.308 2.025.982zm-3.576-1.718h-4.55v2h4.55zm-4.55 0c-1.389 0-2.586.54-3.536 1.573l1.472 1.354c.584-.634 1.253-.927 2.064-.927zm-3.55 1.59c-.903 1.025-1.35 2.264-1.35 3.66h2c0-.937.287-1.698.851-2.34zm-1.35 3.66v29.2h2v-29.2zm0 29.2c0 1.422.442 2.68 1.35 3.71l1.501-1.32c-.559-.636-.851-1.412-.851-2.39zm1.378 3.742c.954.995 2.147 1.508 3.522 1.508v-2c-.825 0-1.498-.287-2.078-.892zm3.522 1.508h20.1v-2h-20.1zm20.1 0c1.884 0 3.51-.645 4.807-1.943l-1.414-1.414c-.902.902-2.01 1.357-3.393 1.357zm4.797-1.932c1.334-1.296 2.003-2.925 2.003-4.818h-2c0 1.373-.464 2.478-1.396 3.382zm2.003-4.818a.7.7 0 0 1-.218.482.7.7 0 0 1-.482.218v-2a1.3 1.3 0 0 0-.932.368 1.3 1.3 0 0 0-.368.932zm-.7.7a.7.7 0 0 1-.482-.218.7.7 0 0 1-.218-.482h2c0-.254-.064-.628-.368-.932a1.3 1.3 0 0 0-.932-.368zm-.7-.7c0 .997-.239 1.887-.712 2.694l1.725 1.012c.66-1.127.987-2.37.987-3.706zm-.712 2.694a5.35 5.35 0 0 1-1.943 1.943l1.011 1.726a7.34 7.34 0 0 0 2.657-2.657zm-1.943 1.943c-.803.47-1.709.713-2.745.713v2c1.365 0 2.625-.324 3.756-.987zm-2.745.713h-20.1v2h20.1zm-8.95-13a.7.7 0 0 1-.218.482.7.7 0 0 1-.482.218v-2a1.3 1.3 0 0 0-.932.368 1.3 1.3 0 0 0-.368.932zm-.7.7h5.9v-2h-5.9zm5.9 0c1.565 0 2.94-.444 4.049-1.389l-1.297-1.522c-.691.589-1.583.911-2.752.911zm4.051-1.39c1.168-1.002 1.759-2.346 1.799-3.935l-1.999-.05c-.027 1.077-.403 1.867-1.101 2.466zm1.799-3.96a.7.7 0 0 1-.218.482.7.7 0 0 1-.482.218v-2a1.3 1.3 0 0 0-.932.368 1.3 1.3 0 0 0-.368.932zm-.7.7a.7.7 0 0 1-.482-.218.7.7 0 0 1-.218-.482h2c0-.254-.064-.628-.368-.932a1.3 1.3 0 0 0-.932-.368zm-.699-.722c-.028 1.248-.458 2.171-1.257 2.868l1.313 1.508c1.267-1.104 1.904-2.58 1.943-4.332zm-1.257 2.868c-.83.722-1.871 1.104-3.194 1.104v2c1.744 0 3.27-.518 4.507-1.596zm-3.194 1.104h-5.9v2h5.9zm-5.9 0c.054 0 .279.014.482.218a.7.7 0 0 1 .218.482h-2c0 .254.065.628.368.932a1.3 1.3 0 0 0 .932.368zm21.36 13.25-.733.68.013.014.013.013zm0-36.15-.72-.694-.006.007-.007.006zm10.4-.15-.693.72.007.007.007.007zm1.55 2.9-.993.12.416 3.433 1.481-3.125zm3.25-3.25-.49-.872-.008.005zm12.5.25-.547.837zm3.6 4.05.905-.425zm-.55 11.1.846.533zm-4.9 3.85-.338-.941-2.169.78 2.051 1.05zm3.55 2.8-.747.664.009.011.011.011zm2.65 4.4-.936.353.003.006zm-.5 10.1-.695-.719zm-12.25.05-.719.695.006.006.006.006zm.4-.4-.721.692.014.015.015.014zm11.4-.05.693.72h.001zm.3-9.7-.933.359.004.01.004.012zm-2.65-4.3-.717.697zm-3.65-2.65.429-.903-.349-.166-.37.112zm.15-.7-.307-.952-.009.003zm4.9-3.6-.837-.547-.002.004zm.6-10.6-.913.408.005.012.006.011zm-3.4-3.85-.546.838.008.005zm-11.65-.3.463.886.008-.004zm-3.15 2.9-.879-.477-.008.015-.007.015zm-2.4-2.4-.721.692.007.008.007.007zm-9.75 0-.736-.677-.007.008-.008.008zm0 35.25-.737.676.007.008.008.008zm9.95.2.656.755.009-.008.009-.008zm.4.4.678.735.002-.001zm-7.55.2c-.959 0-1.774-.338-2.493-1.057l-1.414 1.414c1.081 1.08 2.399 1.643 3.907 1.643zm-2.467-1.03c-.682-.735-1.033-1.636-1.033-2.77h-2c0 1.599.516 2.998 1.567 4.13zm-1.033-2.77V23.85h-2V53.1zm0-29.25c0-1.134.351-2.035 1.033-2.77l-1.466-1.36c-1.051 1.132-1.567 2.531-1.567 4.13zm1.02-2.756c.722-.749 1.533-1.094 2.48-1.094v-2c-1.52 0-2.842.588-3.92 1.706zm2.48-1.094h3.7v-2h-3.7zm3.7 0c1.268 0 2.166.354 2.807.97l1.386-1.44c-1.092-1.051-2.528-1.53-4.193-1.53zm2.821.984c.746.69 1.135 1.447 1.236 2.286l1.986-.24c-.165-1.361-.81-2.538-1.863-3.514zm3.133 2.594c.49-1.036 1.403-1.983 2.844-2.81l-.996-1.735c-1.693.972-2.946 2.191-3.656 3.689zm2.836-2.806c1.41-.793 3.244-1.222 5.56-1.222v-2c-2.551 0-4.75.471-6.54 1.478zm5.56-1.222c2.542 0 4.482.51 5.903 1.437l1.094-1.674c-1.846-1.205-4.205-1.763-6.997-1.763zm5.903 1.437c1.491.974 2.56 2.186 3.242 3.638l1.81-.85c-.852-1.815-2.182-3.303-3.958-4.462zm3.242 3.638c.707 1.506 1.055 3.045 1.055 4.625h2c0-1.886-.418-3.714-1.245-5.475zm1.055 4.625c0 2.055-.518 3.885-1.546 5.517l1.692 1.066c1.239-1.968 1.854-4.171 1.854-6.583zm-1.546 5.517c-1.006 1.598-2.454 2.746-4.392 3.442l.676 1.882c2.329-.837 4.148-2.256 5.408-4.258zm-4.51 5.273c1.179.605 2.266 1.458 3.259 2.574l1.495-1.328c-1.141-1.284-2.421-2.297-3.842-3.026zm3.279 2.596c.994 1.055 1.813 2.402 2.442 4.067l1.871-.706c-.705-1.869-1.653-3.455-2.858-4.733zm2.444 4.073c.612 1.59.933 3.53.933 5.841h2c0-2.489-.345-4.683-1.067-6.559zm.933 5.841c0 1.413-.424 2.436-1.195 3.181l1.39 1.438c1.229-1.188 1.805-2.766 1.805-4.619zm-1.195 3.181c-.781.755-1.832 1.169-3.255 1.169v2c1.844 0 3.426-.553 4.645-1.731zm-3.255 1.169h-4.8v2h4.8zm-4.8 0c-1.153 0-2.059-.374-2.793-1.107l-1.414 1.414c1.133 1.133 2.56 1.693 4.207 1.693zm-2.78-1.095c-.755-.782-1.12-1.683-1.12-2.755h-2c0 1.595.569 2.993 1.681 4.145zm-1.12-2.755a.7.7 0 0 1-.218.482.7.7 0 0 1-.482.218v-2a1.3 1.3 0 0 0-.932.368 1.3 1.3 0 0 0-.368.932zm-.7.7a.7.7 0 0 1-.482-.218.7.7 0 0 1-.218-.482h2c0-.254-.064-.628-.368-.932a1.3 1.3 0 0 0-.932-.368zm-.7-.7c0 1.447.492 2.715 1.479 3.742l1.442-1.385c-.613-.639-.921-1.404-.921-2.357zm1.508 3.771c1.033.992 2.32 1.479 3.792 1.479v-2c-.994 0-1.774-.313-2.407-.921zm3.792 1.479h4.8v-2h-4.8zm4.8 0c1.665 0 3.101-.479 4.193-1.53l-1.386-1.44c-.641.616-1.539.97-2.807.97zm4.194-1.53c1.13-1.088 1.656-2.533 1.656-4.22h-2c0 1.246-.373 2.134-1.044 2.78zm1.656-4.22c0-2.524-.362-4.728-1.125-6.58l-1.85.76c.637 1.548.975 3.477.975 5.82zm-1.117-6.559c-.706-1.837-1.656-3.392-2.865-4.638l-1.435 1.393c.991 1.021 1.807 2.334 2.434 3.963zm-2.865-4.638c-1.178-1.212-2.49-2.168-3.939-2.856l-.858 1.806c1.218.579 2.339 1.39 3.362 2.444zm-4.658-2.91c-.986.299-2.152.457-3.51.457v2c1.509 0 2.876-.175 4.09-.543zm-3.51.457c.003 0 .192-.003.388.166a.73.73 0 0 1 .262.534h-2c0 .298.094.69.437.984.313.269.677.316.913.316zm.65.7a.7.7 0 0 1-.218.482.7.7 0 0 1-.482.218v-2a1.3 1.3 0 0 0-.932.368 1.3 1.3 0 0 0-.368.932zm-.7.7c1.557 0 3-.212 4.316-.651l-.632-1.898c-1.083.361-2.308.549-3.684.549zm4.308-.648c2.356-.762 4.191-2.091 5.432-4.009l-1.679-1.086c-.96 1.482-2.392 2.553-4.368 3.191zm5.429-4.005c1.245-1.904 1.863-4.045 1.863-6.397h-2c0 1.982-.515 3.74-1.537 5.303zm1.863-6.397c0-1.789-.403-3.519-1.198-5.181l-1.804.863c.672 1.404 1.002 2.84 1.002 4.318zM173 24.092c-.786-1.76-2.058-3.189-3.775-4.285l-1.076 1.686c1.416.904 2.412 2.042 3.025 3.415zm-3.767-4.28c-1.747-1.139-3.99-1.662-6.646-1.662v2c2.411 0 4.234.477 5.554 1.338zm-6.646-1.662c-2.317 0-4.339.421-6.02 1.318l.941 1.764c1.319-.703 2.996-1.082 5.079-1.082zm-6.013 1.314c-1.599.836-2.817 1.929-3.566 3.309l1.758.954c.517-.953 1.4-1.793 2.734-2.49zm-3.581 3.339c-.428.855-.656 1.74-.656 2.647h2c0-.56.139-1.142.445-1.753zm-.656 2.647c0-.054.014-.278.218-.482a.7.7 0 0 1 .482-.218v2c.254 0 .629-.064.932-.368s.368-.678.368-.932zm.7-.7c.054 0 .279.014.482.218a.7.7 0 0 1 .218.482h-2c0 .254.064.628.368.932a1.3 1.3 0 0 0 .932.368zm.7.7V23.9h-2v1.55zm0-1.55c0-1.46-.518-2.732-1.543-3.757l-1.414 1.414c.642.642.957 1.403.957 2.343zm-1.529-3.742c-1.022-1.066-2.386-1.558-3.971-1.558v2c1.148 0 1.952.341 2.529.942zm-3.971-1.558h-3.7v2h3.7zm-3.7 0c-1.389 0-2.586.54-3.536 1.573l1.472 1.354c.584-.634 1.253-.927 2.064-.927zm-3.551 1.59c-.902 1.025-1.349 2.264-1.349 3.66h2c0-.937.287-1.699.851-2.34zm-1.349 3.66V53.1h2V23.85zm0 29.25c0 1.422.442 2.671 1.363 3.676l1.474-1.352c-.546-.595-.837-1.346-.837-2.324zm1.378 3.692c.954.995 2.147 1.508 3.522 1.508v-2c-.825 0-1.498-.287-2.078-.892zm3.522 1.508h4.3v-2h-4.3zm4.3 0c1.345 0 2.536-.402 3.506-1.245l-1.312-1.51c-.563.49-1.272.755-2.194.755zm3.524-1.261c1.008-.92 1.476-2.156 1.476-3.589h-2c0 .967-.298 1.631-.824 2.111zm1.476-3.589a.7.7 0 0 1-.218.482.7.7 0 0 1-.482.218v-2a1.3 1.3 0 0 0-.932.368 1.3 1.3 0 0 0-.368.932zm-.7.7a.7.7 0 0 1-.482-.218.7.7 0 0 1-.218-.482h2c0-.254-.064-.628-.368-.932a1.3 1.3 0 0 0-.932-.368zm-.7-.7c0 1.082-.353 1.89-1.029 2.516l1.359 1.468c1.123-1.04 1.67-2.4 1.67-3.984zm-1.028 2.515c-.663.612-1.495.935-2.572.935v2c1.524 0 2.857-.477 3.928-1.465zm-2.572.935h-4.3v2h4.3z" mask="url(#c)"/><path stroke="#23BE87" d="m164.5 30.5-.002.008a.1.1 0 0 1-.016.033.6.6 0 0 1-.145.15c-.165.13-.435.27-.813.395-.751.25-1.82.414-3.024.414s-2.273-.163-3.024-.414c-.378-.126-.648-.265-.813-.395a.6.6 0 0 1-.145-.15.1.1 0 0 1-.016-.033l-.002-.008.002-.008a.1.1 0 0 1 .016-.033.6.6 0 0 1 .145-.15c.165-.13.435-.27.813-.395.751-.25 1.82-.414 3.024-.414s2.273.163 3.024.414c.378.126.648.265.813.395a.6.6 0 0 1 .145.15.1.1 0 0 1 .018.041Z"/><path stroke="#2D7CCE" d="m63.5 30.5-.002.008a.2.2 0 0 1-.015.033.6.6 0 0 1-.146.15c-.165.13-.435.27-.813.395-.751.25-1.82.414-3.024.414s-2.273-.163-3.024-.414c-.378-.126-.648-.265-.813-.395a.6.6 0 0 1-.145-.15.2.2 0 0 1-.017-.033L55.5 30.5l.002-.008a.2.2 0 0 1 .015-.033.6.6 0 0 1 .146-.15c.165-.13.435-.27.813-.395.751-.25 1.82-.414 3.024-.414s2.273.163 3.024.414c.378.126.648.265.813.395a.6.6 0 0 1 .145.15q.014.025.017.033z"/><path stroke="#325BF1" d="m26.5 30.5-.002.008a.2.2 0 0 1-.015.033.6.6 0 0 1-.146.15c-.165.13-.435.27-.813.395-.751.25-1.82.414-3.024.414s-2.273-.163-3.024-.414c-.378-.126-.648-.265-.813-.395a.6.6 0 0 1-.146-.15.2.2 0 0 1-.015-.033L18.5 30.5l.002-.008a.2.2 0 0 1 .015-.033.6.6 0 0 1 .146-.15c.165-.13.435-.27.813-.395.751-.25 1.82-.414 3.024-.414s2.273.163 3.024.414c.378.126.648.265.813.395a.6.6 0 0 1 .146.15q.014.025.015.033z"/><defs><linearGradient id="a" x1="7" x2="166.513" y1="22.5" y2="75.879" gradientUnits="userSpaceOnUse"><stop stop-color="#315AF1"/><stop offset=".659" stop-color="#2A8CBC"/><stop offset=".843" stop-color="#23BE87"/></linearGradient><linearGradient id="b" x1="2.409" x2="85.775" y1="45.28" y2="45.28" gradientUnits="userSpaceOnUse"><stop stop-color="#315AF1"/><stop offset=".382" stop-color="#2A8CBC"/><stop offset="1" stop-color="#23BE87"/></linearGradient></defs></svg>