<svg width="179" height="75" viewBox="0 0 179 75" fill="none" xmlns="http://www.w3.org/2000/svg">
<mask id="path-1-outside-1_376_1396" maskUnits="userSpaceOnUse" x="1" y="17" width="175" height="42" fill="black">
<rect fill="white" x="1" y="17" width="175" height="42"/>
<path d="M6.5 58C5.23333 58 4.16667 57.55 3.3 56.65C2.43333 55.7167 2 54.5667 2 53.2V23.95C2 22.5833 2.43333 21.4333 3.3 20.5C4.2 19.5667 5.26667 19.1 6.5 19.1H10.7C11.8333 19.1 12.8167 19.4833 13.65 20.25C14.5167 20.9833 15.0333 21.9333 15.2 23.1C15.7667 21.7 16.8 20.6 18.3 19.8C19.8333 18.9667 21.5833 18.55 23.55 18.55C26.2167 18.55 28.4333 19.1333 30.2 20.3C32 21.4333 33.35 22.9167 34.25 24.75C35.1833 26.5833 35.65 28.5333 35.65 30.6C35.65 32.6667 35.2333 34.5667 34.4 36.3C33.5667 38.0333 32.3333 39.4167 30.7 40.45C29.0667 41.45 27.0333 41.95 24.6 41.95H16.1C15.9 41.95 15.8 41.85 15.8 41.65C15.8 41.45 15.9 41.35 16.1 41.35H24.6C26.9 41.35 28.8167 40.8667 30.35 39.9C31.9167 38.9333 33.0833 37.65 33.85 36.05C34.65 34.4167 35.05 32.6 35.05 30.6C35.05 28.6333 34.6167 26.7833 33.75 25.05C32.8833 23.2833 31.6 21.8667 29.9 20.8C28.2 19.7 26.0833 19.15 23.55 19.15C21.6167 19.15 19.9333 19.5833 18.5 20.45C17.1 21.2833 16.1333 22.3333 15.6 23.6C15.3667 24.1 15.25 24.6833 15.25 25.35C15.25 25.5833 15.15 25.7 14.95 25.7C14.75 25.7 14.65 25.5833 14.65 25.35V23.95C14.65 22.7167 14.2667 21.7 13.5 20.9C12.7667 20.1 11.8333 19.7 10.7 19.7H6.5C5.4 19.7 4.46667 20.1167 3.7 20.95C2.96667 21.7833 2.6 22.7833 2.6 23.95V53.2C2.6 54.4 2.96667 55.4 3.7 56.2C4.46667 57 5.4 57.4 6.5 57.4H10.8C11.9333 57.4 12.8833 57 13.65 56.2C14.4167 55.4 14.8 54.4 14.8 53.2C14.8 53 14.9 52.9 15.1 52.9C15.3 52.9 15.4 53 15.4 53.2C15.4 54.5333 14.95 55.6667 14.05 56.6C13.1833 57.5333 12.1 58 10.8 58H6.5ZM43.1211 57.9C41.8878 57.9 40.8211 57.45 39.9211 56.55C39.0544 55.6167 38.6211 54.4667 38.6211 53.1V23.85C38.6211 22.4833 39.0544 21.3333 39.9211 20.4C40.8211 19.4667 41.8878 19 43.1211 19H46.8211C48.2878 19 49.4544 19.4167 50.3211 20.25C51.2211 21.0833 51.7378 22.05 51.8711 23.15C52.4711 21.8833 53.5544 20.8 55.1211 19.9C56.7211 19 58.7378 18.55 61.1711 18.55C63.8378 18.55 65.9878 19.0833 67.6211 20.15C69.2544 21.2167 70.4544 22.5667 71.2211 24.2C71.9878 25.8333 72.3711 27.5167 72.3711 29.25C72.3711 31.4833 71.8044 33.5 70.6711 35.3C69.5378 37.1 67.9044 38.3833 65.7711 39.15C67.0711 39.8167 68.2544 40.75 69.3211 41.95C70.4211 43.1167 71.3044 44.5833 71.9711 46.35C72.6378 48.0833 72.9711 50.15 72.9711 52.55C72.9711 54.1833 72.4711 55.4833 71.4711 56.45C70.4711 57.4167 69.1544 57.9 67.5211 57.9H62.7211C61.3211 57.9 60.1544 57.4333 59.2211 56.5C58.2878 55.5333 57.8211 54.3833 57.8211 53.05C57.8211 52.85 57.9211 52.75 58.1211 52.75C58.3211 52.75 58.4211 52.85 58.4211 53.05C58.4211 54.25 58.8211 55.2667 59.6211 56.1C60.4544 56.9 61.4878 57.3 62.7211 57.3H67.5211C68.9878 57.3 70.1544 56.8833 71.0211 56.05C71.9211 55.1833 72.3711 54.0167 72.3711 52.55C72.3711 50.1167 72.0211 48.05 71.3211 46.35C70.6544 44.6167 69.7711 43.1833 68.6711 42.05C67.5711 40.9167 66.3544 40.0333 65.0211 39.4C63.9211 39.7333 62.6544 39.9 61.2211 39.9C60.9878 39.9 60.8711 39.8 60.8711 39.6C60.8711 39.4 60.9711 39.3 61.1711 39.3C62.6378 39.3 63.9711 39.1 65.1711 38.7C67.3378 38 68.9711 36.8 70.0711 35.1C71.2044 33.3667 71.7711 31.4167 71.7711 29.25C71.7711 27.6167 71.4044 26.0333 70.6711 24.5C69.9711 22.9333 68.8378 21.65 67.2711 20.65C65.7378 19.65 63.7044 19.15 61.1711 19.15C58.9711 19.15 57.1211 19.55 55.6211 20.35C54.1544 21.1167 53.1044 22.0833 52.4711 23.25C52.1044 23.9833 51.9211 24.7167 51.9211 25.45C51.9211 25.65 51.8211 25.75 51.6211 25.75C51.4211 25.75 51.3211 25.65 51.3211 25.45V23.9C51.3211 22.7 50.9044 21.6833 50.0711 20.85C49.2711 20.0167 48.1878 19.6 46.8211 19.6H43.1211C42.0211 19.6 41.0878 20.0167 40.3211 20.85C39.5878 21.6833 39.2211 22.6833 39.2211 23.85V53.1C39.2211 54.3 39.5878 55.3 40.3211 56.1C41.0878 56.9 42.0211 57.3 43.1211 57.3H47.4211C48.5544 57.3 49.5044 56.9667 50.2711 56.3C51.0378 55.6 51.4211 54.65 51.4211 53.45C51.4211 53.25 51.5211 53.15 51.7211 53.15C51.9211 53.15 52.0211 53.25 52.0211 53.45C52.0211 54.7833 51.5711 55.8667 50.6711 56.7C49.8044 57.5 48.7211 57.9 47.4211 57.9H43.1211ZM82.5141 58C81.2807 58 80.1474 57.7167 79.1141 57.15C78.1141 56.55 77.3141 55.75 76.7141 54.75C76.1141 53.75 75.8141 52.6167 75.8141 51.35V50.25C75.8141 49.05 76.0974 47.95 76.6641 46.95C77.2641 45.95 78.0474 45.15 79.0141 44.55C79.9807 43.9167 81.0641 43.6 82.2641 43.6V33.15C81.0307 33.1167 79.9307 32.8 78.9641 32.2C77.9974 31.6 77.2307 30.8167 76.6641 29.85C76.0974 28.8833 75.8141 27.8333 75.8141 26.7V25.6C75.8141 24.3667 76.0974 23.2667 76.6641 22.3C77.2641 21.3333 78.0474 20.5667 79.0141 20C80.0141 19.4 81.1141 19.1 82.3141 19.1H94.9141C96.1474 19.1 97.2474 19.4 98.2141 20C99.2141 20.5667 99.9974 21.3333 100.564 22.3C101.164 23.2667 101.464 24.3667 101.464 25.6V26.7C101.464 27.8333 101.181 28.8833 100.614 29.85C100.081 30.8167 99.3141 31.6 98.3141 32.2C97.3474 32.8 96.2141 33.1167 94.9141 33.15V41.6C94.9141 41.8 94.8141 41.9 94.6141 41.9C94.4141 41.9 94.3141 41.8 94.3141 41.6V32.85C94.3141 32.65 94.3974 32.55 94.5641 32.55C96.3974 32.55 97.8974 31.9833 99.0641 30.85C100.264 29.7167 100.864 28.3333 100.864 26.7V25.6C100.864 24.5 100.597 23.5 100.064 22.6C99.5307 21.7 98.8141 21 97.9141 20.5C97.0141 19.9667 96.0141 19.7 94.9141 19.7H82.3141C80.6807 19.7 79.2807 20.2667 78.1141 21.4C76.9807 22.5333 76.4141 23.9333 76.4141 25.6V26.7C76.4141 28.3333 76.9974 29.7167 78.1641 30.85C79.3307 31.9833 80.7974 32.55 82.5641 32.55C82.7641 32.55 82.8641 32.65 82.8641 32.85V43.9C82.8641 44.0667 82.7641 44.15 82.5641 44.15C81.4307 44.15 80.3974 44.4333 79.4641 45C78.5307 45.5333 77.7807 46.2667 77.2141 47.2C76.6807 48.1 76.4141 49.1167 76.4141 50.25V51.35C76.4141 53.0833 76.9974 54.5333 78.1641 55.7C79.3641 56.8333 80.8141 57.4 82.5141 57.4H94.8641C96.5974 57.4 98.0474 56.8333 99.2141 55.7C100.414 54.5333 101.014 53.0833 101.014 51.35V50.75C101.014 48.7833 100.397 47.1833 99.1641 45.95C97.9641 44.7167 96.3974 44.0833 94.4641 44.05C94.0307 44.05 93.5641 44.1333 93.0641 44.3C92.5974 44.4667 92.1474 44.75 91.7141 45.15C91.5141 45.2833 91.3474 45.2833 91.2141 45.15C91.0807 45.0167 91.0974 44.8667 91.2641 44.7C91.6641 44.3 92.1641 44 92.7641 43.8C93.3974 43.5667 93.9641 43.45 94.4641 43.45C95.8641 43.45 97.0974 43.7667 98.1641 44.4C99.2307 45.0333 100.064 45.9 100.664 47C101.297 48.1 101.614 49.35 101.614 50.75V51.35C101.614 52.6167 101.314 53.75 100.714 54.75C100.114 55.75 99.2974 56.55 98.2641 57.15C97.2641 57.7167 96.1307 58 94.8641 58H82.5141ZM109.527 58C108.294 58 107.227 57.5333 106.327 56.6C105.461 55.6667 105.027 54.5167 105.027 53.15V23.95C105.027 22.5833 105.461 21.4333 106.327 20.5C107.227 19.5667 108.294 19.1 109.527 19.1H114.077C115.077 19.1 115.977 19.4333 116.777 20.1C117.577 20.7333 118.111 21.5333 118.377 22.5C118.811 21.3333 119.511 20.4833 120.477 19.95C121.477 19.3833 122.544 19.1 123.677 19.1H130.577C132.011 19.1 133.211 19.6 134.177 20.6C135.144 21.6 135.627 22.8 135.627 24.2V27.4C135.627 28.8 135.144 30 134.177 31C133.244 31.9667 132.044 32.45 130.577 32.45H119.977C119.777 32.45 119.677 32.35 119.677 32.15C119.677 31.95 119.777 31.85 119.977 31.85H130.577C131.844 31.85 132.894 31.4333 133.727 30.6C134.594 29.7333 135.027 28.6667 135.027 27.4V24.2C135.027 22.9333 134.594 21.8667 133.727 21C132.894 20.1333 131.844 19.7 130.577 19.7H123.677C122.311 19.7 121.127 20.1167 120.127 20.95C119.127 21.75 118.627 23.0333 118.627 24.8C118.627 25 118.527 25.1 118.327 25.1C118.127 25.1 118.027 25 118.027 24.8V24.1C118.027 22.9333 117.644 21.9167 116.877 21.05C116.144 20.15 115.211 19.7 114.077 19.7H109.527C108.427 19.7 107.494 20.1167 106.727 20.95C105.994 21.7833 105.627 22.7833 105.627 23.95V53.15C105.627 54.35 105.994 55.3667 106.727 56.2C107.494 57 108.427 57.4 109.527 57.4H129.627C131.261 57.4 132.627 56.85 133.727 55.75C134.861 54.65 135.427 53.2833 135.427 51.65C135.427 51.45 135.527 51.35 135.727 51.35C135.927 51.35 136.027 51.45 136.027 51.65C136.027 52.8167 135.744 53.8833 135.177 54.85C134.611 55.8167 133.844 56.5833 132.877 57.15C131.911 57.7167 130.827 58 129.627 58H109.527ZM119.677 44C119.677 43.8 119.777 43.7 119.977 43.7H125.877C127.244 43.7 128.377 43.3167 129.277 42.55C130.211 41.75 130.694 40.6833 130.727 39.35C130.727 39.15 130.827 39.05 131.027 39.05C131.227 39.05 131.327 39.15 131.327 39.35C131.294 40.85 130.761 42.05 129.727 42.95C128.694 43.85 127.411 44.3 125.877 44.3H119.977C119.777 44.3 119.677 44.2 119.677 44ZM144.537 57.9C143.304 57.9 142.237 57.45 141.337 56.55C140.47 55.6167 140.037 54.4667 140.037 53.1V23.85C140.037 22.4833 140.47 21.3333 141.337 20.4C142.237 19.4667 143.304 19 144.537 19H148.237C149.704 19 150.87 19.4167 151.737 20.25C152.637 21.0833 153.154 22.05 153.287 23.15C153.887 21.8833 154.97 20.8 156.537 19.9C158.137 19 160.154 18.55 162.587 18.55C165.254 18.55 167.404 19.0833 169.037 20.15C170.67 21.2167 171.87 22.5667 172.637 24.2C173.404 25.8333 173.787 27.5167 173.787 29.25C173.787 31.4833 173.22 33.5 172.087 35.3C170.954 37.1 169.32 38.3833 167.187 39.15C168.487 39.8167 169.67 40.75 170.737 41.95C171.837 43.1167 172.72 44.5833 173.387 46.35C174.054 48.0833 174.387 50.15 174.387 52.55C174.387 54.1833 173.887 55.4833 172.887 56.45C171.887 57.4167 170.57 57.9 168.937 57.9H164.137C162.737 57.9 161.57 57.4333 160.637 56.5C159.704 55.5333 159.237 54.3833 159.237 53.05C159.237 52.85 159.337 52.75 159.537 52.75C159.737 52.75 159.837 52.85 159.837 53.05C159.837 54.25 160.237 55.2667 161.037 56.1C161.87 56.9 162.904 57.3 164.137 57.3H168.937C170.404 57.3 171.57 56.8833 172.437 56.05C173.337 55.1833 173.787 54.0167 173.787 52.55C173.787 50.1167 173.437 48.05 172.737 46.35C172.07 44.6167 171.187 43.1833 170.087 42.05C168.987 40.9167 167.77 40.0333 166.437 39.4C165.337 39.7333 164.07 39.9 162.637 39.9C162.404 39.9 162.287 39.8 162.287 39.6C162.287 39.4 162.387 39.3 162.587 39.3C164.054 39.3 165.387 39.1 166.587 38.7C168.754 38 170.387 36.8 171.487 35.1C172.62 33.3667 173.187 31.4167 173.187 29.25C173.187 27.6167 172.82 26.0333 172.087 24.5C171.387 22.9333 170.254 21.65 168.687 20.65C167.154 19.65 165.12 19.15 162.587 19.15C160.387 19.15 158.537 19.55 157.037 20.35C155.57 21.1167 154.52 22.0833 153.887 23.25C153.52 23.9833 153.337 24.7167 153.337 25.45C153.337 25.65 153.237 25.75 153.037 25.75C152.837 25.75 152.737 25.65 152.737 25.45V23.9C152.737 22.7 152.32 21.6833 151.487 20.85C150.687 20.0167 149.604 19.6 148.237 19.6H144.537C143.437 19.6 142.504 20.0167 141.737 20.85C141.004 21.6833 140.637 22.6833 140.637 23.85V53.1C140.637 54.3 141.004 55.3 141.737 56.1C142.504 56.9 143.437 57.3 144.537 57.3H148.837C149.97 57.3 150.92 56.9667 151.687 56.3C152.454 55.6 152.837 54.65 152.837 53.45C152.837 53.25 152.937 53.15 153.137 53.15C153.337 53.15 153.437 53.25 153.437 53.45C153.437 54.7833 152.987 55.8667 152.087 56.7C151.22 57.5 150.137 57.9 148.837 57.9H144.537Z"/>
</mask>
<path d="M6.5 58C5.23333 58 4.16667 57.55 3.3 56.65C2.43333 55.7167 2 54.5667 2 53.2V23.95C2 22.5833 2.43333 21.4333 3.3 20.5C4.2 19.5667 5.26667 19.1 6.5 19.1H10.7C11.8333 19.1 12.8167 19.4833 13.65 20.25C14.5167 20.9833 15.0333 21.9333 15.2 23.1C15.7667 21.7 16.8 20.6 18.3 19.8C19.8333 18.9667 21.5833 18.55 23.55 18.55C26.2167 18.55 28.4333 19.1333 30.2 20.3C32 21.4333 33.35 22.9167 34.25 24.75C35.1833 26.5833 35.65 28.5333 35.65 30.6C35.65 32.6667 35.2333 34.5667 34.4 36.3C33.5667 38.0333 32.3333 39.4167 30.7 40.45C29.0667 41.45 27.0333 41.95 24.6 41.95H16.1C15.9 41.95 15.8 41.85 15.8 41.65C15.8 41.45 15.9 41.35 16.1 41.35H24.6C26.9 41.35 28.8167 40.8667 30.35 39.9C31.9167 38.9333 33.0833 37.65 33.85 36.05C34.65 34.4167 35.05 32.6 35.05 30.6C35.05 28.6333 34.6167 26.7833 33.75 25.05C32.8833 23.2833 31.6 21.8667 29.9 20.8C28.2 19.7 26.0833 19.15 23.55 19.15C21.6167 19.15 19.9333 19.5833 18.5 20.45C17.1 21.2833 16.1333 22.3333 15.6 23.6C15.3667 24.1 15.25 24.6833 15.25 25.35C15.25 25.5833 15.15 25.7 14.95 25.7C14.75 25.7 14.65 25.5833 14.65 25.35V23.95C14.65 22.7167 14.2667 21.7 13.5 20.9C12.7667 20.1 11.8333 19.7 10.7 19.7H6.5C5.4 19.7 4.46667 20.1167 3.7 20.95C2.96667 21.7833 2.6 22.7833 2.6 23.95V53.2C2.6 54.4 2.96667 55.4 3.7 56.2C4.46667 57 5.4 57.4 6.5 57.4H10.8C11.9333 57.4 12.8833 57 13.65 56.2C14.4167 55.4 14.8 54.4 14.8 53.2C14.8 53 14.9 52.9 15.1 52.9C15.3 52.9 15.4 53 15.4 53.2C15.4 54.5333 14.95 55.6667 14.05 56.6C13.1833 57.5333 12.1 58 10.8 58H6.5ZM43.1211 57.9C41.8878 57.9 40.8211 57.45 39.9211 56.55C39.0544 55.6167 38.6211 54.4667 38.6211 53.1V23.85C38.6211 22.4833 39.0544 21.3333 39.9211 20.4C40.8211 19.4667 41.8878 19 43.1211 19H46.8211C48.2878 19 49.4544 19.4167 50.3211 20.25C51.2211 21.0833 51.7378 22.05 51.8711 23.15C52.4711 21.8833 53.5544 20.8 55.1211 19.9C56.7211 19 58.7378 18.55 61.1711 18.55C63.8378 18.55 65.9878 19.0833 67.6211 20.15C69.2544 21.2167 70.4544 22.5667 71.2211 24.2C71.9878 25.8333 72.3711 27.5167 72.3711 29.25C72.3711 31.4833 71.8044 33.5 70.6711 35.3C69.5378 37.1 67.9044 38.3833 65.7711 39.15C67.0711 39.8167 68.2544 40.75 69.3211 41.95C70.4211 43.1167 71.3044 44.5833 71.9711 46.35C72.6378 48.0833 72.9711 50.15 72.9711 52.55C72.9711 54.1833 72.4711 55.4833 71.4711 56.45C70.4711 57.4167 69.1544 57.9 67.5211 57.9H62.7211C61.3211 57.9 60.1544 57.4333 59.2211 56.5C58.2878 55.5333 57.8211 54.3833 57.8211 53.05C57.8211 52.85 57.9211 52.75 58.1211 52.75C58.3211 52.75 58.4211 52.85 58.4211 53.05C58.4211 54.25 58.8211 55.2667 59.6211 56.1C60.4544 56.9 61.4878 57.3 62.7211 57.3H67.5211C68.9878 57.3 70.1544 56.8833 71.0211 56.05C71.9211 55.1833 72.3711 54.0167 72.3711 52.55C72.3711 50.1167 72.0211 48.05 71.3211 46.35C70.6544 44.6167 69.7711 43.1833 68.6711 42.05C67.5711 40.9167 66.3544 40.0333 65.0211 39.4C63.9211 39.7333 62.6544 39.9 61.2211 39.9C60.9878 39.9 60.8711 39.8 60.8711 39.6C60.8711 39.4 60.9711 39.3 61.1711 39.3C62.6378 39.3 63.9711 39.1 65.1711 38.7C67.3378 38 68.9711 36.8 70.0711 35.1C71.2044 33.3667 71.7711 31.4167 71.7711 29.25C71.7711 27.6167 71.4044 26.0333 70.6711 24.5C69.9711 22.9333 68.8378 21.65 67.2711 20.65C65.7378 19.65 63.7044 19.15 61.1711 19.15C58.9711 19.15 57.1211 19.55 55.6211 20.35C54.1544 21.1167 53.1044 22.0833 52.4711 23.25C52.1044 23.9833 51.9211 24.7167 51.9211 25.45C51.9211 25.65 51.8211 25.75 51.6211 25.75C51.4211 25.75 51.3211 25.65 51.3211 25.45V23.9C51.3211 22.7 50.9044 21.6833 50.0711 20.85C49.2711 20.0167 48.1878 19.6 46.8211 19.6H43.1211C42.0211 19.6 41.0878 20.0167 40.3211 20.85C39.5878 21.6833 39.2211 22.6833 39.2211 23.85V53.1C39.2211 54.3 39.5878 55.3 40.3211 56.1C41.0878 56.9 42.0211 57.3 43.1211 57.3H47.4211C48.5544 57.3 49.5044 56.9667 50.2711 56.3C51.0378 55.6 51.4211 54.65 51.4211 53.45C51.4211 53.25 51.5211 53.15 51.7211 53.15C51.9211 53.15 52.0211 53.25 52.0211 53.45C52.0211 54.7833 51.5711 55.8667 50.6711 56.7C49.8044 57.5 48.7211 57.9 47.4211 57.9H43.1211ZM82.5141 58C81.2807 58 80.1474 57.7167 79.1141 57.15C78.1141 56.55 77.3141 55.75 76.7141 54.75C76.1141 53.75 75.8141 52.6167 75.8141 51.35V50.25C75.8141 49.05 76.0974 47.95 76.6641 46.95C77.2641 45.95 78.0474 45.15 79.0141 44.55C79.9807 43.9167 81.0641 43.6 82.2641 43.6V33.15C81.0307 33.1167 79.9307 32.8 78.9641 32.2C77.9974 31.6 77.2307 30.8167 76.6641 29.85C76.0974 28.8833 75.8141 27.8333 75.8141 26.7V25.6C75.8141 24.3667 76.0974 23.2667 76.6641 22.3C77.2641 21.3333 78.0474 20.5667 79.0141 20C80.0141 19.4 81.1141 19.1 82.3141 19.1H94.9141C96.1474 19.1 97.2474 19.4 98.2141 20C99.2141 20.5667 99.9974 21.3333 100.564 22.3C101.164 23.2667 101.464 24.3667 101.464 25.6V26.7C101.464 27.8333 101.181 28.8833 100.614 29.85C100.081 30.8167 99.3141 31.6 98.3141 32.2C97.3474 32.8 96.2141 33.1167 94.9141 33.15V41.6C94.9141 41.8 94.8141 41.9 94.6141 41.9C94.4141 41.9 94.3141 41.8 94.3141 41.6V32.85C94.3141 32.65 94.3974 32.55 94.5641 32.55C96.3974 32.55 97.8974 31.9833 99.0641 30.85C100.264 29.7167 100.864 28.3333 100.864 26.7V25.6C100.864 24.5 100.597 23.5 100.064 22.6C99.5307 21.7 98.8141 21 97.9141 20.5C97.0141 19.9667 96.0141 19.7 94.9141 19.7H82.3141C80.6807 19.7 79.2807 20.2667 78.1141 21.4C76.9807 22.5333 76.4141 23.9333 76.4141 25.6V26.7C76.4141 28.3333 76.9974 29.7167 78.1641 30.85C79.3307 31.9833 80.7974 32.55 82.5641 32.55C82.7641 32.55 82.8641 32.65 82.8641 32.85V43.9C82.8641 44.0667 82.7641 44.15 82.5641 44.15C81.4307 44.15 80.3974 44.4333 79.4641 45C78.5307 45.5333 77.7807 46.2667 77.2141 47.2C76.6807 48.1 76.4141 49.1167 76.4141 50.25V51.35C76.4141 53.0833 76.9974 54.5333 78.1641 55.7C79.3641 56.8333 80.8141 57.4 82.5141 57.4H94.8641C96.5974 57.4 98.0474 56.8333 99.2141 55.7C100.414 54.5333 101.014 53.0833 101.014 51.35V50.75C101.014 48.7833 100.397 47.1833 99.1641 45.95C97.9641 44.7167 96.3974 44.0833 94.4641 44.05C94.0307 44.05 93.5641 44.1333 93.0641 44.3C92.5974 44.4667 92.1474 44.75 91.7141 45.15C91.5141 45.2833 91.3474 45.2833 91.2141 45.15C91.0807 45.0167 91.0974 44.8667 91.2641 44.7C91.6641 44.3 92.1641 44 92.7641 43.8C93.3974 43.5667 93.9641 43.45 94.4641 43.45C95.8641 43.45 97.0974 43.7667 98.1641 44.4C99.2307 45.0333 100.064 45.9 100.664 47C101.297 48.1 101.614 49.35 101.614 50.75V51.35C101.614 52.6167 101.314 53.75 100.714 54.75C100.114 55.75 99.2974 56.55 98.2641 57.15C97.2641 57.7167 96.1307 58 94.8641 58H82.5141ZM109.527 58C108.294 58 107.227 57.5333 106.327 56.6C105.461 55.6667 105.027 54.5167 105.027 53.15V23.95C105.027 22.5833 105.461 21.4333 106.327 20.5C107.227 19.5667 108.294 19.1 109.527 19.1H114.077C115.077 19.1 115.977 19.4333 116.777 20.1C117.577 20.7333 118.111 21.5333 118.377 22.5C118.811 21.3333 119.511 20.4833 120.477 19.95C121.477 19.3833 122.544 19.1 123.677 19.1H130.577C132.011 19.1 133.211 19.6 134.177 20.6C135.144 21.6 135.627 22.8 135.627 24.2V27.4C135.627 28.8 135.144 30 134.177 31C133.244 31.9667 132.044 32.45 130.577 32.45H119.977C119.777 32.45 119.677 32.35 119.677 32.15C119.677 31.95 119.777 31.85 119.977 31.85H130.577C131.844 31.85 132.894 31.4333 133.727 30.6C134.594 29.7333 135.027 28.6667 135.027 27.4V24.2C135.027 22.9333 134.594 21.8667 133.727 21C132.894 20.1333 131.844 19.7 130.577 19.7H123.677C122.311 19.7 121.127 20.1167 120.127 20.95C119.127 21.75 118.627 23.0333 118.627 24.8C118.627 25 118.527 25.1 118.327 25.1C118.127 25.1 118.027 25 118.027 24.8V24.1C118.027 22.9333 117.644 21.9167 116.877 21.05C116.144 20.15 115.211 19.7 114.077 19.7H109.527C108.427 19.7 107.494 20.1167 106.727 20.95C105.994 21.7833 105.627 22.7833 105.627 23.95V53.15C105.627 54.35 105.994 55.3667 106.727 56.2C107.494 57 108.427 57.4 109.527 57.4H129.627C131.261 57.4 132.627 56.85 133.727 55.75C134.861 54.65 135.427 53.2833 135.427 51.65C135.427 51.45 135.527 51.35 135.727 51.35C135.927 51.35 136.027 51.45 136.027 51.65C136.027 52.8167 135.744 53.8833 135.177 54.85C134.611 55.8167 133.844 56.5833 132.877 57.15C131.911 57.7167 130.827 58 129.627 58H109.527ZM119.677 44C119.677 43.8 119.777 43.7 119.977 43.7H125.877C127.244 43.7 128.377 43.3167 129.277 42.55C130.211 41.75 130.694 40.6833 130.727 39.35C130.727 39.15 130.827 39.05 131.027 39.05C131.227 39.05 131.327 39.15 131.327 39.35C131.294 40.85 130.761 42.05 129.727 42.95C128.694 43.85 127.411 44.3 125.877 44.3H119.977C119.777 44.3 119.677 44.2 119.677 44ZM144.537 57.9C143.304 57.9 142.237 57.45 141.337 56.55C140.47 55.6167 140.037 54.4667 140.037 53.1V23.85C140.037 22.4833 140.47 21.3333 141.337 20.4C142.237 19.4667 143.304 19 144.537 19H148.237C149.704 19 150.87 19.4167 151.737 20.25C152.637 21.0833 153.154 22.05 153.287 23.15C153.887 21.8833 154.97 20.8 156.537 19.9C158.137 19 160.154 18.55 162.587 18.55C165.254 18.55 167.404 19.0833 169.037 20.15C170.67 21.2167 171.87 22.5667 172.637 24.2C173.404 25.8333 173.787 27.5167 173.787 29.25C173.787 31.4833 173.22 33.5 172.087 35.3C170.954 37.1 169.32 38.3833 167.187 39.15C168.487 39.8167 169.67 40.75 170.737 41.95C171.837 43.1167 172.72 44.5833 173.387 46.35C174.054 48.0833 174.387 50.15 174.387 52.55C174.387 54.1833 173.887 55.4833 172.887 56.45C171.887 57.4167 170.57 57.9 168.937 57.9H164.137C162.737 57.9 161.57 57.4333 160.637 56.5C159.704 55.5333 159.237 54.3833 159.237 53.05C159.237 52.85 159.337 52.75 159.537 52.75C159.737 52.75 159.837 52.85 159.837 53.05C159.837 54.25 160.237 55.2667 161.037 56.1C161.87 56.9 162.904 57.3 164.137 57.3H168.937C170.404 57.3 171.57 56.8833 172.437 56.05C173.337 55.1833 173.787 54.0167 173.787 52.55C173.787 50.1167 173.437 48.05 172.737 46.35C172.07 44.6167 171.187 43.1833 170.087 42.05C168.987 40.9167 167.77 40.0333 166.437 39.4C165.337 39.7333 164.07 39.9 162.637 39.9C162.404 39.9 162.287 39.8 162.287 39.6C162.287 39.4 162.387 39.3 162.587 39.3C164.054 39.3 165.387 39.1 166.587 38.7C168.754 38 170.387 36.8 171.487 35.1C172.62 33.3667 173.187 31.4167 173.187 29.25C173.187 27.6167 172.82 26.0333 172.087 24.5C171.387 22.9333 170.254 21.65 168.687 20.65C167.154 19.65 165.12 19.15 162.587 19.15C160.387 19.15 158.537 19.55 157.037 20.35C155.57 21.1167 154.52 22.0833 153.887 23.25C153.52 23.9833 153.337 24.7167 153.337 25.45C153.337 25.65 153.237 25.75 153.037 25.75C152.837 25.75 152.737 25.65 152.737 25.45V23.9C152.737 22.7 152.32 21.6833 151.487 20.85C150.687 20.0167 149.604 19.6 148.237 19.6H144.537C143.437 19.6 142.504 20.0167 141.737 20.85C141.004 21.6833 140.637 22.6833 140.637 23.85V53.1C140.637 54.3 141.004 55.3 141.737 56.1C142.504 56.9 143.437 57.3 144.537 57.3H148.837C149.97 57.3 150.92 56.9667 151.687 56.3C152.454 55.6 152.837 54.65 152.837 53.45C152.837 53.25 152.937 53.15 153.137 53.15C153.337 53.15 153.437 53.25 153.437 53.45C153.437 54.7833 152.987 55.8667 152.087 56.7C151.22 57.5 150.137 57.9 148.837 57.9H144.537Z" fill="url(#paint0_linear_376_1396)"/>
<path d="M3.3 56.65L2.56721 57.3305L2.57338 57.3371L2.57968 57.3436L3.3 56.65ZM3.3 20.5L2.58016 19.8059L2.57362 19.8126L2.56721 19.8195L3.3 20.5ZM13.65 20.25L12.9729 20.9859L12.9882 21L13.0041 21.0134L13.65 20.25ZM15.2 23.1L14.2101 23.2414L14.7348 26.9146L16.1269 23.4752L15.2 23.1ZM18.3 19.8L18.7706 20.6824L18.7775 20.6786L18.3 19.8ZM30.2 20.3L29.6489 21.1345L29.658 21.1404L29.6672 21.1462L30.2 20.3ZM34.25 24.75L33.3523 25.1907L33.3555 25.1972L33.3588 25.2037L34.25 24.75ZM34.4 36.3L33.4987 35.8667L33.4987 35.8667L34.4 36.3ZM30.7 40.45L31.2222 41.3029L31.2284 41.299L31.2346 41.2951L30.7 40.45ZM30.35 39.9L29.8249 39.0489L29.8167 39.0541L30.35 39.9ZM33.85 36.05L32.9519 35.6101L32.9482 35.6179L33.85 36.05ZM33.75 25.05L32.8522 25.4904L32.8556 25.4972L33.75 25.05ZM29.9 20.8L29.3567 21.6397L29.3685 21.6471L29.9 20.8ZM18.5 20.45L19.0115 21.3093L19.0174 21.3057L18.5 20.45ZM15.6 23.6L16.5062 24.0229L16.5142 24.0056L16.5216 23.9881L15.6 23.6ZM13.5 20.9L12.7628 21.5757L12.7703 21.5839L12.778 21.5919L13.5 20.9ZM3.7 20.95L2.96407 20.2729L2.95659 20.2811L2.94929 20.2894L3.7 20.95ZM3.7 56.2L2.96285 56.8757L2.97034 56.8839L2.97801 56.8919L3.7 56.2ZM13.65 56.2L12.928 55.5081L12.928 55.5081L13.65 56.2ZM14.05 56.6L13.3302 55.9059L13.3236 55.9126L13.3172 55.9195L14.05 56.6ZM6.5 57C5.50086 57 4.69557 56.6576 4.02032 55.9564L2.57968 57.3436C3.63777 58.4424 4.96581 59 6.5 59V57ZM4.03279 55.9695C3.35112 55.2354 3 54.3344 3 53.2H1C1 54.7989 1.51554 56.1979 2.56721 57.3305L4.03279 55.9695ZM3 53.2V23.95H1V53.2H3ZM3 23.95C3 22.8156 3.35112 21.9146 4.03279 21.1804L2.56721 19.8195C1.51554 20.9521 1 22.3511 1 23.95H3ZM4.01984 21.1941C4.74219 20.445 5.55338 20.1 6.5 20.1V18.1C4.97995 18.1 3.65781 18.6883 2.58016 19.8059L4.01984 21.1941ZM6.5 20.1H10.7V18.1H6.5V20.1ZM10.7 20.1C11.5828 20.1 12.3244 20.3892 12.9729 20.9859L14.3271 19.5141C13.309 18.5774 12.0839 18.1 10.7 18.1V20.1ZM13.0041 21.0134C13.6761 21.582 14.0766 22.3071 14.2101 23.2414L16.19 22.9586C15.9901 21.5596 15.3572 20.3846 14.2959 19.4866L13.0041 21.0134ZM16.1269 23.4752C16.5946 22.3199 17.4498 21.3868 18.7706 20.6823L17.8294 18.9176C16.1502 19.8132 14.9388 21.0801 14.2731 22.7248L16.1269 23.4752ZM18.7775 20.6786C20.1465 19.9346 21.7286 19.55 23.55 19.55V17.55C21.438 17.55 19.5202 17.9987 17.8225 18.9214L18.7775 20.6786ZM23.55 19.55C26.0715 19.55 28.0835 20.1007 29.6489 21.1345L30.7511 19.4655C28.7831 18.166 26.3618 17.55 23.55 17.55V19.55ZM29.6672 21.1462C31.3172 22.1851 32.5375 23.5308 33.3523 25.1907L35.1477 24.3093C34.1625 22.3025 32.6828 20.6816 30.7328 19.4538L29.6672 21.1462ZM33.3588 25.2037C34.2203 26.8958 34.65 28.6903 34.65 30.6H36.65C36.65 28.3764 36.1464 26.2708 35.1412 24.2963L33.3588 25.2037ZM34.65 30.6C34.65 32.5281 34.2623 34.2785 33.4987 35.8667L35.3013 36.7333C36.2044 34.8548 36.65 32.8053 36.65 30.6H34.65ZM33.4987 35.8667C32.747 37.4303 31.6411 38.6713 30.1654 39.6049L31.2346 41.2951C33.0255 40.1621 34.3863 38.6364 35.3013 36.7333L33.4987 35.8667ZM30.1778 39.5971C28.739 40.4781 26.8983 40.95 24.6 40.95V42.95C27.1684 42.95 29.3944 42.4219 31.2222 41.3029L30.1778 39.5971ZM24.6 40.95H16.1V42.95H24.6V40.95ZM16.1 40.95C16.1541 40.95 16.3784 40.9642 16.5821 41.1679C16.7858 41.3716 16.8 41.5959 16.8 41.65H14.8C14.8 41.9041 14.8642 42.2784 15.1679 42.5821C15.4716 42.8858 15.8459 42.95 16.1 42.95V40.95ZM16.8 41.65C16.8 41.7041 16.7858 41.9284 16.5821 42.1321C16.3784 42.3358 16.1541 42.35 16.1 42.35V40.35C15.8459 40.35 15.4716 40.4142 15.1679 40.7179C14.8642 41.0216 14.8 41.3959 14.8 41.65H16.8ZM16.1 42.35H24.6V40.35H16.1V42.35ZM24.6 42.35C27.0384 42.35 29.1525 41.8371 30.8833 40.7459L29.8167 39.0541C28.4808 39.8963 26.7616 40.35 24.6 40.35V42.35ZM30.8751 40.751C32.5984 39.6877 33.8991 38.2617 34.7518 36.4821L32.9482 35.6179C32.2676 37.0383 31.2349 38.179 29.8249 39.049L30.8751 40.751ZM34.7481 36.4899C35.6216 34.7064 36.05 32.7371 36.05 30.6H34.05C34.05 32.4629 33.6784 34.1269 32.9519 35.6101L34.7481 36.4899ZM36.05 30.6C36.05 28.4805 35.5816 26.4771 34.6444 24.6028L32.8556 25.4972C33.6518 27.0896 34.05 28.7862 34.05 30.6H36.05ZM34.6478 24.6096C33.6975 22.6725 32.2857 21.1164 30.4315 19.9529L29.3685 21.6471C30.9143 22.617 32.0692 23.8942 32.8522 25.4904L34.6478 24.6096ZM30.4433 19.9604C28.5451 18.7322 26.2278 18.15 23.55 18.15V20.15C25.9389 20.15 27.8549 20.6678 29.3568 21.6396L30.4433 19.9604ZM23.55 18.15C21.4629 18.15 19.5948 18.6194 17.9826 19.5943L19.0174 21.3057C20.2719 20.5472 21.7705 20.15 23.55 20.15V18.15ZM17.9885 19.5907C16.44 20.5124 15.3091 21.7139 14.6784 23.2119L16.5216 23.9881C16.9575 22.9528 17.76 22.0543 19.0115 21.3093L17.9885 19.5907ZM14.6938 23.1771C14.3872 23.8342 14.25 24.5671 14.25 25.35H16.25C16.25 24.7995 16.3462 24.3658 16.5062 24.0229L14.6938 23.1771ZM14.25 25.35C14.25 25.347 14.2474 25.1582 14.4157 24.9617C14.6094 24.7358 14.8521 24.7 14.95 24.7V26.7C15.2479 26.7 15.6406 26.6059 15.9343 26.2633C16.2026 25.9502 16.25 25.5863 16.25 25.35H14.25ZM14.95 24.7C15.0479 24.7 15.2906 24.7358 15.4843 24.9617C15.6526 25.1582 15.65 25.347 15.65 25.35H13.65C13.65 25.5863 13.6974 25.9502 13.9657 26.2633C14.2594 26.6059 14.6521 26.7 14.95 26.7V24.7ZM15.65 25.35V23.95H13.65V25.35H15.65ZM15.65 23.95C15.65 22.4905 15.1879 21.216 14.222 20.2081L12.778 21.5919C13.3455 22.184 13.65 22.9428 13.65 23.95H15.65ZM14.2372 20.2243C13.3051 19.2075 12.0996 18.7 10.7 18.7V20.7C11.5671 20.7 12.2282 20.9925 12.7628 21.5757L14.2372 20.2243ZM10.7 18.7H6.5V20.7H10.7V18.7ZM6.5 18.7C5.11113 18.7 3.91378 19.2406 2.96407 20.2729L4.43593 21.6271C5.01956 20.9927 5.68887 20.7 6.5 20.7V18.7ZM2.94929 20.2894C2.04657 21.3152 1.6 22.5537 1.6 23.95H3.6C3.6 23.013 3.88677 22.2515 4.45071 21.6106L2.94929 20.2894ZM1.6 23.95V53.2H3.6V23.95H1.6ZM1.6 53.2C1.6 54.6216 2.04205 55.8712 2.96285 56.8757L4.43715 55.5243C3.89129 54.9288 3.6 54.1784 3.6 53.2H1.6ZM2.97801 56.8919C3.93173 57.8871 5.12515 58.4 6.5 58.4V56.4C5.67485 56.4 5.00161 56.1129 4.42199 55.5081L2.97801 56.8919ZM6.5 58.4H10.8V56.4H6.5V58.4ZM10.8 58.4C12.1989 58.4 13.4119 57.8937 14.372 56.8919L12.928 55.5081C12.3548 56.1063 11.6678 56.4 10.8 56.4V58.4ZM14.372 56.8919C15.3327 55.8895 15.8 54.6344 15.8 53.2H13.8C13.8 54.1656 13.5007 54.9105 12.928 55.5081L14.372 56.8919ZM15.8 53.2C15.8 53.2541 15.7858 53.4784 15.5821 53.6821C15.3784 53.8858 15.1541 53.9 15.1 53.9V51.9C14.8459 51.9 14.4716 51.9642 14.1679 52.2679C13.8642 52.5716 13.8 52.9459 13.8 53.2H15.8ZM15.1 53.9C15.0459 53.9 14.8216 53.8858 14.6179 53.6821C14.4142 53.4784 14.4 53.2541 14.4 53.2H16.4C16.4 52.9459 16.3358 52.5716 16.0321 52.2679C15.7284 51.9642 15.3541 51.9 15.1 51.9V53.9ZM14.4 53.2C14.4 54.2826 14.0448 55.1647 13.3302 55.9059L14.7698 57.2941C15.8552 56.1686 16.4 54.7841 16.4 53.2H14.4ZM13.3172 55.9195C12.6441 56.6444 11.8285 57 10.8 57V59C12.3715 59 13.7225 58.4223 14.7828 57.2805L13.3172 55.9195ZM10.8 57H6.5V59H10.8V57ZM39.9211 56.55L39.1883 57.2305L39.2009 57.244L39.214 57.2571L39.9211 56.55ZM39.9211 20.4L39.2012 19.7059L39.1947 19.7126L39.1883 19.7195L39.9211 20.4ZM50.3211 20.25L49.628 20.9708L49.6348 20.9774L49.6417 20.9838L50.3211 20.25ZM51.8711 23.15L50.8784 23.2703L51.2945 26.7033L52.7748 23.5781L51.8711 23.15ZM55.1211 19.9L54.6308 19.0284L54.623 19.0329L55.1211 19.9ZM67.6211 20.15L67.0743 20.9873L67.0743 20.9873L67.6211 20.15ZM71.2211 24.2L72.1263 23.7751L72.1263 23.7751L71.2211 24.2ZM70.6711 35.3L71.5173 35.8328L71.5173 35.8328L70.6711 35.3ZM65.7711 39.15L65.4329 38.2089L63.2643 38.9883L65.3148 40.0398L65.7711 39.15ZM69.3211 41.95L68.5737 42.6144L68.5834 42.6253L68.5935 42.636L69.3211 41.95ZM71.9711 46.35L71.0355 46.7031L71.0377 46.709L71.9711 46.35ZM71.4711 56.45L70.7761 55.731L70.7761 55.731L71.4711 56.45ZM59.2211 56.5L58.5017 57.1946L58.5078 57.2009L58.514 57.2071L59.2211 56.5ZM59.6211 56.1L58.8997 56.7925L58.9138 56.8073L58.9286 56.8214L59.6211 56.1ZM71.0211 56.05L71.7142 56.7708L71.7147 56.7703L71.0211 56.05ZM71.3211 46.35L70.3877 46.709L70.392 46.7199L70.3964 46.7307L71.3211 46.35ZM68.6711 42.05L67.9535 42.7465L67.9535 42.7465L68.6711 42.05ZM65.0211 39.4L65.4502 38.4967L65.101 38.3309L64.7311 38.443L65.0211 39.4ZM65.1711 38.7L64.8637 37.7484L64.8549 37.7513L65.1711 38.7ZM70.0711 35.1L69.2341 34.5527L69.2315 34.5567L70.0711 35.1ZM70.6711 24.5L69.7581 24.9079L69.7634 24.9198L69.769 24.9315L70.6711 24.5ZM67.2711 20.65L66.7248 21.4876L66.7331 21.4929L67.2711 20.65ZM55.6211 20.35L56.0844 21.2363L56.0917 21.2324L55.6211 20.35ZM52.4711 23.25L51.5922 22.7729L51.5842 22.7877L51.5767 22.8028L52.4711 23.25ZM50.0711 20.85L49.3497 21.5425L49.3568 21.5499L49.364 21.5571L50.0711 20.85ZM40.3211 20.85L39.5852 20.1729L39.5777 20.1811L39.5704 20.1894L40.3211 20.85ZM40.3211 56.1L39.5839 56.7757L39.5914 56.7839L39.5991 56.7919L40.3211 56.1ZM50.2711 56.3L50.9273 57.0546L50.9364 57.0467L50.9454 57.0385L50.2711 56.3ZM50.6711 56.7L51.3494 57.4348L51.3505 57.4338L50.6711 56.7ZM43.1211 56.9C42.1623 56.9 41.3474 56.5621 40.6282 55.8429L39.214 57.2571C40.2948 58.3379 41.6132 58.9 43.1211 58.9V56.9ZM40.6539 55.8695C39.9722 55.1354 39.6211 54.2344 39.6211 53.1H37.6211C37.6211 54.6989 38.1366 56.0979 39.1883 57.2305L40.6539 55.8695ZM39.6211 53.1V23.85H37.6211V53.1H39.6211ZM39.6211 23.85C39.6211 22.7156 39.9722 21.8146 40.6539 21.0804L39.1883 19.7195C38.1366 20.8521 37.6211 22.2511 37.6211 23.85H39.6211ZM40.6409 21.0941C41.3633 20.345 42.1745 20 43.1211 20V18C41.601 18 40.2789 18.5883 39.2012 19.7059L40.6409 21.0941ZM43.1211 20H46.8211V18H43.1211V20ZM46.8211 20C48.0895 20 48.9869 20.3544 49.628 20.9708L51.0142 19.5292C49.922 18.479 48.4861 18 46.8211 18V20ZM49.6417 20.9838C50.3878 21.6746 50.7766 22.431 50.8784 23.2703L52.8638 23.0297C52.6989 21.669 52.0544 20.4921 51.0005 19.5162L49.6417 20.9838ZM52.7748 23.5781C53.2654 22.5424 54.1785 21.5948 55.6192 20.7671L54.623 19.0329C52.9304 20.0052 51.6768 21.2242 50.9674 22.7219L52.7748 23.5781ZM55.6114 20.7716C57.0207 19.9788 58.8555 19.55 61.1711 19.55V17.55C58.6201 17.55 56.4215 18.0212 54.6308 19.0284L55.6114 20.7716ZM61.1711 19.55C63.7127 19.55 65.6531 20.0591 67.0743 20.9873L68.1679 19.3127C66.3224 18.1075 63.9629 17.55 61.1711 17.55V19.55ZM67.0743 20.9873C68.5653 21.961 69.6345 23.1733 70.3159 24.6249L72.1263 23.7751C71.2744 21.9601 69.9436 20.4724 68.1679 19.3127L67.0743 20.9873ZM70.3159 24.6249C71.0227 26.1309 71.3711 27.6696 71.3711 29.25H73.3711C73.3711 27.3637 72.9528 25.5358 72.1263 23.7751L70.3159 24.6249ZM71.3711 29.25C71.3711 31.3047 70.8526 33.1349 69.8249 34.7672L71.5173 35.8328C72.7563 33.8651 73.3711 31.662 73.3711 29.25H71.3711ZM69.8249 34.7672C68.8186 36.3653 67.3708 37.5125 65.4329 38.2089L66.1093 40.0911C68.438 39.2542 70.2569 37.8347 71.5173 35.8328L69.8249 34.7672ZM65.3148 40.0398C66.4942 40.6447 67.5811 41.4977 68.5737 42.6144L70.0685 41.2856C68.9277 40.0023 67.648 38.9887 66.2274 38.2602L65.3148 40.0398ZM68.5935 42.636C69.5882 43.691 70.4073 45.0384 71.0355 46.7031L72.9067 45.9969C72.2015 44.1283 71.254 42.5423 70.0487 41.264L68.5935 42.636ZM71.0377 46.709C71.6496 48.2997 71.9711 50.2386 71.9711 52.55H73.9711C73.9711 50.0614 73.626 47.867 72.9044 45.991L71.0377 46.709ZM71.9711 52.55C71.9711 53.9634 71.5472 54.9856 70.7761 55.731L72.1661 57.169C73.395 55.9811 73.9711 54.4032 73.9711 52.55H71.9711ZM70.7761 55.731C69.9947 56.4863 68.9436 56.9 67.5211 56.9V58.9C69.3653 58.9 70.9475 58.347 72.1661 57.169L70.7761 55.731ZM67.5211 56.9H62.7211V58.9H67.5211V56.9ZM62.7211 56.9C61.5685 56.9 60.6617 56.5264 59.9282 55.7929L58.514 57.2071C59.6471 58.3402 61.0737 58.9 62.7211 58.9V56.9ZM59.9405 55.8054C59.1856 55.0235 58.8211 54.1219 58.8211 53.05H56.8211C56.8211 54.6447 57.3899 56.0431 58.5017 57.1946L59.9405 55.8054ZM58.8211 53.05C58.8211 53.1041 58.8069 53.3284 58.6032 53.5321C58.3995 53.7358 58.1752 53.75 58.1211 53.75V51.75C57.8669 51.75 57.4927 51.8142 57.189 52.1179C56.8853 52.4216 56.8211 52.7959 56.8211 53.05H58.8211ZM58.1211 53.75C58.067 53.75 57.8427 53.7358 57.639 53.5321C57.4353 53.3284 57.4211 53.1041 57.4211 53.05H59.4211C59.4211 52.7959 59.3569 52.4216 59.0532 52.1179C58.7495 51.8142 58.3752 51.75 58.1211 51.75V53.75ZM57.4211 53.05C57.4211 54.497 57.9134 55.7651 58.8997 56.7925L60.3425 55.4075C59.7288 54.7682 59.4211 54.003 59.4211 53.05H57.4211ZM58.9286 56.8214C59.9615 57.8131 61.2488 58.3 62.7211 58.3V56.3C61.7267 56.3 60.9473 55.9869 60.3136 55.3786L58.9286 56.8214ZM62.7211 58.3H67.5211V56.3H62.7211V58.3ZM67.5211 58.3C69.1861 58.3 70.622 57.821 71.7142 56.7708L70.328 55.3292C69.6869 55.9456 68.7895 56.3 67.5211 56.3V58.3ZM71.7147 56.7703C72.8446 55.6823 73.3711 54.2372 73.3711 52.55H71.3711C71.3711 53.7961 70.9976 54.6843 70.3275 55.3297L71.7147 56.7703ZM73.3711 52.55C73.3711 50.0261 73.0088 47.8222 72.2458 45.9692L70.3964 46.7307C71.0334 48.2778 71.3711 50.2073 71.3711 52.55H73.3711ZM72.2544 45.991C71.5477 44.1536 70.5976 42.5991 69.3887 41.3535L67.9535 42.7465C68.9445 43.7675 69.7611 45.0797 70.3877 46.709L72.2544 45.991ZM69.3887 41.3535C68.2115 40.1406 66.8986 39.1847 65.4502 38.4967L64.592 40.3033C65.8103 40.882 66.9307 41.6927 67.9535 42.7465L69.3887 41.3535ZM64.7311 38.443C63.745 38.7418 62.5793 38.9 61.2211 38.9V40.9C62.7295 40.9 64.0972 40.7249 65.3111 40.357L64.7311 38.443ZM61.2211 38.9C61.2241 38.9 61.4129 38.8974 61.6094 39.0657C61.8353 39.2594 61.8711 39.5021 61.8711 39.6H59.8711C59.8711 39.8979 59.9652 40.2906 60.3078 40.5843C60.6209 40.8526 60.9848 40.9 61.2211 40.9V38.9ZM61.8711 39.6C61.8711 39.6541 61.8569 39.8784 61.6532 40.0821C61.4495 40.2858 61.2252 40.3 61.1711 40.3V38.3C60.917 38.3 60.5427 38.3642 60.239 38.6679C59.9353 38.9716 59.8711 39.3459 59.8711 39.6H61.8711ZM61.1711 40.3C62.7285 40.3 64.1706 40.0876 65.4873 39.6487L64.8549 37.7513C63.7716 38.1124 62.5471 38.3 61.1711 38.3V40.3ZM65.4785 39.6516C67.8354 38.8901 69.67 37.5606 70.9107 35.6432L69.2315 34.5567C68.2722 36.0394 66.8401 37.1099 64.8637 37.7484L65.4785 39.6516ZM70.9081 35.6472C72.1528 33.7435 72.7711 31.6016 72.7711 29.25H70.7711C70.7711 31.2317 70.256 32.9899 69.2341 34.5527L70.9081 35.6472ZM72.7711 29.25C72.7711 27.4612 72.3683 25.731 71.5732 24.0685L69.769 24.9315C70.4406 26.3357 70.7711 27.7721 70.7711 29.25H72.7711ZM71.5841 24.0921C70.7977 22.332 69.5263 20.9032 67.8091 19.8071L66.7331 21.4929C68.1492 22.3968 69.1445 23.5347 69.7581 24.9079L71.5841 24.0921ZM67.8174 19.8124C66.0703 18.673 63.8266 18.15 61.1711 18.15V20.15C63.5823 20.15 65.4052 20.627 66.7248 21.4876L67.8174 19.8124ZM61.1711 18.15C58.8538 18.15 56.8317 18.571 55.1505 19.4676L56.0917 21.2324C57.4105 20.529 59.0884 20.15 61.1711 20.15V18.15ZM55.1578 19.4638C53.5587 20.2997 52.3414 21.3929 51.5922 22.7729L53.3499 23.7271C53.8674 22.7738 54.7502 21.9336 56.0843 21.2362L55.1578 19.4638ZM51.5767 22.8028C51.1489 23.6584 50.9211 24.5439 50.9211 25.45H52.9211C52.9211 24.8894 53.06 24.3083 53.3655 23.6972L51.5767 22.8028ZM50.9211 25.45C50.9211 25.3959 50.9353 25.1716 51.139 24.9679C51.3427 24.7642 51.567 24.75 51.6211 24.75V26.75C51.8752 26.75 52.2495 26.6858 52.5532 26.3821C52.8569 26.0784 52.9211 25.7041 52.9211 25.45H50.9211ZM51.6211 24.75C51.6752 24.75 51.8995 24.7642 52.1032 24.9679C52.3069 25.1716 52.3211 25.3959 52.3211 25.45H50.3211C50.3211 25.7041 50.3853 26.0784 50.689 26.3821C50.9927 26.6858 51.367 26.75 51.6211 26.75V24.75ZM52.3211 25.45V23.9H50.3211V25.45H52.3211ZM52.3211 23.9C52.3211 22.4402 51.8029 21.1676 50.7782 20.1429L49.364 21.5571C50.006 22.1991 50.3211 22.9598 50.3211 23.9H52.3211ZM50.7925 20.1575C49.7696 19.0919 48.4061 18.6 46.8211 18.6V20.6C47.9694 20.6 48.7726 20.9414 49.3497 21.5425L50.7925 20.1575ZM46.8211 18.6H43.1211V20.6H46.8211V18.6ZM43.1211 18.6C41.7322 18.6 40.5349 19.1407 39.5852 20.1729L41.057 21.5271C41.6406 20.8927 42.31 20.6 43.1211 20.6V18.6ZM39.5704 20.1894C38.6677 21.2152 38.2211 22.4537 38.2211 23.85H40.2211C40.2211 22.913 40.5079 22.1515 41.0718 21.5106L39.5704 20.1894ZM38.2211 23.85V53.1H40.2211V23.85H38.2211ZM38.2211 53.1C38.2211 54.5216 38.6631 55.7712 39.5839 56.7757L41.0582 55.4243C40.5124 54.8288 40.2211 54.0784 40.2211 53.1H38.2211ZM39.5991 56.7919C40.5528 57.7871 41.7462 58.3 43.1211 58.3V56.3C42.2959 56.3 41.6227 56.0129 41.0431 55.4081L39.5991 56.7919ZM43.1211 58.3H47.4211V56.3H43.1211V58.3ZM47.4211 58.3C48.7657 58.3 49.9573 57.8981 50.9273 57.0546L49.6149 55.5454C49.0516 56.0353 48.3431 56.3 47.4211 56.3V58.3ZM50.9454 57.0385C51.9526 56.1188 52.4211 54.8829 52.4211 53.45H50.4211C50.4211 54.4171 50.1229 55.0812 49.5968 55.5615L50.9454 57.0385ZM52.4211 53.45C52.4211 53.5041 52.4069 53.7284 52.2032 53.9321C51.9995 54.1358 51.7752 54.15 51.7211 54.15V52.15C51.467 52.15 51.0927 52.2142 50.789 52.5179C50.4853 52.8216 50.4211 53.1959 50.4211 53.45H52.4211ZM51.7211 54.15C51.667 54.15 51.4427 54.1358 51.239 53.9321C51.0353 53.7284 51.0211 53.5041 51.0211 53.45H53.0211C53.0211 53.1959 52.9569 52.8216 52.6532 52.5179C52.3495 52.2142 51.9752 52.15 51.7211 52.15V54.15ZM51.0211 53.45C51.0211 54.5318 50.6682 55.3398 49.9917 55.9662L51.3505 57.4338C52.474 56.3935 53.0211 55.0348 53.0211 53.45H51.0211ZM49.9928 55.9652C49.3304 56.5767 48.4976 56.9 47.4211 56.9V58.9C48.9446 58.9 50.2785 58.4233 51.3494 57.4348L49.9928 55.9652ZM47.4211 56.9H43.1211V58.9H47.4211V56.9ZM79.1141 57.15L78.5996 58.0075L78.6162 58.0175L78.6332 58.0268L79.1141 57.15ZM76.7141 54.75L77.5716 54.2355L77.5716 54.2355L76.7141 54.75ZM76.6641 46.95L75.8066 46.4355L75.8002 46.4462L75.794 46.457L76.6641 46.95ZM79.0141 44.55L79.5414 45.3996L79.5518 45.3932L79.5621 45.3865L79.0141 44.55ZM82.2641 43.6V44.6H83.2641V43.6H82.2641ZM82.2641 33.15H83.2641V32.1767L82.2911 32.1504L82.2641 33.15ZM78.9641 32.2L79.4914 31.3504L79.4914 31.3504L78.9641 32.2ZM76.6641 22.3L75.8144 21.7726L75.8078 21.7834L75.8014 21.7943L76.6641 22.3ZM79.0141 20L79.5198 20.8627L79.5286 20.8575L79.0141 20ZM98.2141 20L97.6867 20.8496L97.7037 20.8602L97.7211 20.87L98.2141 20ZM100.564 22.3L99.7014 22.8057L99.7078 22.8166L99.7144 22.8274L100.564 22.3ZM100.614 29.85L99.7514 29.3443L99.7448 29.3555L99.7385 29.3669L100.614 29.85ZM98.3141 32.2L97.7996 31.3425L97.7931 31.3464L97.7867 31.3504L98.3141 32.2ZM94.9141 33.15L94.8884 32.1503L93.9141 32.1753V33.15H94.9141ZM99.0641 30.85L98.3774 30.1229L98.3673 30.1327L99.0641 30.85ZM100.064 22.6L99.2038 23.1098L99.2038 23.1098L100.064 22.6ZM97.9141 20.5L97.4043 21.3603L97.4162 21.3674L97.4284 21.3742L97.9141 20.5ZM78.1141 21.4L77.4173 20.6827L77.4121 20.6878L77.407 20.6929L78.1141 21.4ZM78.1641 30.85L78.8608 30.1327L78.8608 30.1327L78.1641 30.85ZM79.4641 45L79.9602 45.8682L79.9717 45.8617L79.983 45.8548L79.4641 45ZM77.2141 47.2L76.3592 46.681L76.3538 46.6902L77.2141 47.2ZM78.1641 55.7L77.457 56.4071L77.4671 56.4172L77.4774 56.427L78.1641 55.7ZM99.2141 55.7L99.9108 56.4173L99.9111 56.417L99.2141 55.7ZM99.1641 45.95L98.4473 46.6474L98.457 46.6571L99.1641 45.95ZM94.4641 44.05L94.4813 43.0501L94.4727 43.05H94.4641V44.05ZM93.0641 44.3L92.7478 43.3513L92.7377 43.3547L92.7277 43.3583L93.0641 44.3ZM91.7141 45.15L92.2688 45.9821L92.3344 45.9383L92.3923 45.8848L91.7141 45.15ZM91.2141 45.15L90.507 45.8571L91.2141 45.15ZM91.2641 44.7L91.9712 45.4071L91.9712 45.4071L91.2641 44.7ZM92.7641 43.8L93.0803 44.7487L93.0951 44.7437L93.1098 44.7383L92.7641 43.8ZM100.664 47L99.7862 47.4789L99.7917 47.489L99.7974 47.499L100.664 47ZM100.714 54.75L99.8566 54.2355L99.8566 54.2355L100.714 54.75ZM98.2641 57.15L98.7571 58.0201L98.7662 58.0148L98.2641 57.15ZM82.5141 57C81.4407 57 80.4739 56.7552 79.5949 56.2732L78.6332 58.0268C79.8209 58.6781 81.1208 59 82.5141 59V57ZM79.6286 56.2925C78.7693 55.777 78.0871 55.0948 77.5716 54.2355L75.8566 55.2645C76.541 56.4052 77.4588 57.323 78.5996 58.0075L79.6286 56.2925ZM77.5716 54.2355C77.0728 53.4042 76.8141 52.4516 76.8141 51.35H74.8141C74.8141 52.7818 75.1553 54.0958 75.8566 55.2645L77.5716 54.2355ZM76.8141 51.35V50.25H74.8141V51.35H76.8141ZM76.8141 50.25C76.8141 49.2149 77.0564 48.2859 77.5341 47.443L75.794 46.457C75.1384 47.6141 74.8141 48.8851 74.8141 50.25H76.8141ZM77.5216 47.4645C78.0419 46.5973 78.7133 45.9136 79.5414 45.3996L78.4867 43.7004C77.3814 44.3864 76.4863 45.3027 75.8066 46.4355L77.5216 47.4645ZM79.5621 45.3865C80.3594 44.8641 81.2509 44.6 82.2641 44.6V42.6C80.8773 42.6 79.602 42.9693 78.466 43.7135L79.5621 45.3865ZM83.2641 43.6V33.15H81.2641V43.6H83.2641ZM82.2911 32.1504C81.2194 32.1214 80.2949 31.8491 79.4914 31.3504L78.4367 33.0496C79.5665 33.7509 80.842 34.1119 82.237 34.1496L82.2911 32.1504ZM79.4914 31.3504C78.6606 30.8347 78.0099 30.1685 77.5268 29.3443L75.8014 30.3557C76.4515 31.4648 77.3342 32.3653 78.4367 33.0496L79.4914 31.3504ZM77.5268 29.3443C77.0511 28.5328 76.8141 27.6577 76.8141 26.7H74.8141C74.8141 28.009 75.1437 29.2338 75.8014 30.3557L77.5268 29.3443ZM76.8141 26.7V25.6H74.8141V26.7H76.8141ZM76.8141 25.6C76.8141 24.526 77.0589 23.6039 77.5268 22.8057L75.8014 21.7943C75.1359 22.9295 74.8141 24.2073 74.8141 25.6H76.8141ZM77.5137 22.8274C78.0294 21.9965 78.6955 21.3459 79.5198 20.8627L78.5083 19.1373C77.3993 19.7874 76.4987 20.6701 75.8144 21.7726L77.5137 22.8274ZM79.5286 20.8575C80.3685 20.3535 81.2898 20.1 82.3141 20.1V18.1C80.9383 18.1 79.6596 18.4465 78.4996 19.1425L79.5286 20.8575ZM82.3141 20.1H94.9141V18.1H82.3141V20.1ZM94.9141 20.1C95.9773 20.1 96.8916 20.3562 97.6867 20.8496L98.7414 19.1504C97.6031 18.4438 96.3175 18.1 94.9141 18.1V20.1ZM97.7211 20.87C98.572 21.3522 99.2261 21.995 99.7014 22.8057L101.427 21.7943C100.769 20.6717 99.8561 19.7811 98.7071 19.13L97.7211 20.87ZM99.7144 22.8274C100.208 23.6224 100.464 24.5368 100.464 25.6H102.464C102.464 24.1966 102.12 22.9109 101.414 21.7726L99.7144 22.8274ZM100.464 25.6V26.7H102.464V25.6H100.464ZM100.464 26.7C100.464 27.6577 100.227 28.5328 99.7514 29.3443L101.477 30.3557C102.134 29.2338 102.464 28.009 102.464 26.7H100.464ZM99.7385 29.3669C99.2952 30.1703 98.6571 30.828 97.7996 31.3425L98.8286 33.0575C99.971 32.372 100.866 31.463 101.49 30.3331L99.7385 29.3669ZM97.7867 31.3504C96.9915 31.8439 96.0367 32.1209 94.8884 32.1503L94.9397 34.1497C96.3915 34.1124 97.7033 33.7561 98.8414 33.0496L97.7867 31.3504ZM93.9141 33.15V41.6H95.9141V33.15H93.9141ZM93.9141 41.6C93.9141 41.5459 93.9283 41.3216 94.132 41.1179C94.3356 40.9142 94.5599 40.9 94.6141 40.9V42.9C94.8682 42.9 95.2425 42.8358 95.5462 42.5321C95.8498 42.2284 95.9141 41.8541 95.9141 41.6H93.9141ZM94.6141 40.9C94.6682 40.9 94.8925 40.9142 95.0962 41.1179C95.2999 41.3216 95.3141 41.5459 95.3141 41.6H93.3141C93.3141 41.8541 93.3783 42.2284 93.682 42.5321C93.9856 42.8358 94.3599 42.9 94.6141 42.9V40.9ZM95.3141 41.6V32.85H93.3141V41.6H95.3141ZM95.3141 32.85C95.3141 32.8642 95.3149 33.0611 95.1448 33.2652C94.9456 33.5042 94.6877 33.55 94.5641 33.55V31.55C94.2738 31.55 93.8909 31.6458 93.6083 31.9848C93.3549 32.2889 93.3141 32.6358 93.3141 32.85H95.3141ZM94.5641 33.55C96.6217 33.55 98.3833 32.9055 99.7609 31.5673L98.3673 30.1327C97.4115 31.0612 96.1731 31.55 94.5641 31.55V33.55ZM99.7507 31.577C101.148 30.257 101.864 28.6117 101.864 26.7H99.8641C99.8641 28.0549 99.3798 29.1763 98.3774 30.123L99.7507 31.577ZM101.864 26.7V25.6H99.8641V26.7H101.864ZM101.864 25.6C101.864 24.3302 101.554 23.1526 100.924 22.0902L99.2038 23.1098C99.6409 23.8474 99.8641 24.6698 99.8641 25.6H101.864ZM100.924 22.0902C100.302 21.0403 99.4573 20.2134 98.3997 19.6258L97.4284 21.3742C98.1708 21.7866 98.7593 22.3597 99.2038 23.1098L100.924 22.0902ZM98.4239 19.6397C97.3615 19.0101 96.1838 18.7 94.9141 18.7V20.7C95.8443 20.7 96.6667 20.9232 97.4043 21.3603L98.4239 19.6397ZM94.9141 18.7H82.3141V20.7H94.9141V18.7ZM82.3141 18.7C80.4218 18.7 78.7715 19.3672 77.4173 20.6827L78.8108 22.1173C79.79 21.1661 80.9397 20.7 82.3141 20.7V18.7ZM77.407 20.6929C76.0779 22.0219 75.4141 23.6799 75.4141 25.6H77.4141C77.4141 24.1868 77.8836 23.0447 78.8212 22.1071L77.407 20.6929ZM75.4141 25.6V26.7H77.4141V25.6H75.4141ZM75.4141 26.7C75.4141 28.6023 76.1059 30.2448 77.4673 31.5673L78.8608 30.1327C77.8889 29.1886 77.4141 28.0644 77.4141 26.7H75.4141ZM77.4673 31.5673C78.8375 32.8984 80.5618 33.55 82.5641 33.55V31.55C81.033 31.55 79.8239 31.0683 78.8608 30.1327L77.4673 31.5673ZM82.5641 33.55C82.5099 33.55 82.2856 33.5358 82.082 33.3321C81.8783 33.1284 81.8641 32.9041 81.8641 32.85H83.8641C83.8641 32.5959 83.7998 32.2216 83.4962 31.9179C83.1925 31.6142 82.8182 31.55 82.5641 31.55V33.55ZM81.8641 32.85V43.9H83.8641V32.85H81.8641ZM81.8641 43.9C81.8641 43.7764 81.9099 43.5185 82.1489 43.3193C82.353 43.1492 82.5498 43.15 82.5641 43.15V45.15C82.7783 45.15 83.1251 45.1091 83.4292 44.8557C83.7683 44.5732 83.8641 44.1903 83.8641 43.9H81.8641ZM82.5641 43.15C81.255 43.15 80.041 43.4799 78.9451 44.1452L79.983 45.8548C80.7538 45.3868 81.6065 45.15 82.5641 45.15V43.15ZM78.9679 44.1318C77.885 44.7506 77.0125 45.6051 76.3593 46.681L78.0689 47.719C78.549 46.9282 79.1765 46.3161 79.9602 45.8682L78.9679 44.1318ZM76.3538 46.6902C75.7214 47.7573 75.4141 48.9527 75.4141 50.25H77.4141C77.4141 49.2806 77.64 48.4427 78.0744 47.7098L76.3538 46.6902ZM75.4141 50.25V51.35H77.4141V50.25H75.4141ZM75.4141 51.35C75.4141 53.3336 76.0925 55.0426 77.457 56.4071L78.8712 54.9929C77.9023 54.0241 77.4141 52.833 77.4141 51.35H75.4141ZM77.4774 56.427C78.8691 57.7414 80.5672 58.4 82.5141 58.4V56.4C81.0609 56.4 79.859 55.9253 78.8507 54.973L77.4774 56.427ZM82.5141 58.4H94.8641V56.4H82.5141V58.4ZM94.8641 58.4C96.8387 58.4 98.5444 57.7446 99.9108 56.4173L98.5173 54.9827C97.5503 55.922 96.3561 56.4 94.8641 56.4V58.4ZM99.9111 56.417C101.312 55.0546 102.014 53.3426 102.014 51.35H100.014C100.014 52.824 99.5157 54.012 98.517 54.983L99.9111 56.417ZM102.014 51.35V50.75H100.014V51.35H102.014ZM102.014 50.75C102.014 48.555 101.317 46.6883 99.8712 45.2429L98.457 46.6571C99.4782 47.6783 100.014 49.0116 100.014 50.75H102.014ZM99.8808 45.2526C98.4733 43.806 96.643 43.0874 94.4813 43.0501L94.4468 45.0499C96.1518 45.0792 97.4549 45.6273 98.4473 46.6474L99.8808 45.2526ZM94.4641 43.05C93.9029 43.05 93.3285 43.1578 92.7478 43.3513L93.3803 45.2487C93.7996 45.1089 94.1586 45.05 94.4641 45.05V43.05ZM92.7277 43.3583C92.1126 43.5779 91.5495 43.941 91.0358 44.4152L92.3923 45.8848C92.7452 45.559 93.0822 45.3554 93.4004 45.2417L92.7277 43.3583ZM91.1594 44.3179C91.1611 44.3168 91.1844 44.3013 91.2286 44.2852C91.274 44.2687 91.3462 44.25 91.4391 44.25C91.6566 44.25 91.8271 44.3489 91.9212 44.4429L90.507 45.8571C90.7343 46.0845 91.0548 46.25 91.4391 46.25C91.7892 46.25 92.0737 46.1121 92.2688 45.9821L91.1594 44.3179ZM91.9212 44.4429C92.0106 44.5323 92.1539 44.7471 92.1204 45.0479C92.1064 45.1741 92.0647 45.2675 92.0326 45.3229C92.0015 45.3766 91.9743 45.4039 91.9712 45.4071L90.557 43.9929C90.3981 44.1518 90.1767 44.4305 90.1327 44.8271C90.0826 45.2779 90.2842 45.6344 90.507 45.8571L91.9212 44.4429ZM91.9712 45.4071C92.249 45.1293 92.61 44.9054 93.0803 44.7487L92.4478 42.8513C91.7181 43.0946 91.0791 43.4707 90.557 43.9929L91.9712 45.4071ZM93.1098 44.7383C93.6687 44.5324 94.1153 44.45 94.4641 44.45V42.45C93.8128 42.45 93.1261 42.6009 92.4184 42.8617L93.1098 44.7383ZM94.4641 44.45C95.708 44.45 96.7605 44.7296 97.6535 45.2599L98.6746 43.5401C97.4343 42.8037 96.0201 42.45 94.4641 42.45V44.45ZM97.6535 45.2599C98.5641 45.8005 99.2713 46.5349 99.7862 47.4789L101.542 46.5211C100.857 45.2651 99.8973 44.2661 98.6746 43.5401L97.6535 45.2599ZM99.7974 47.499C100.335 48.4319 100.614 49.5066 100.614 50.75H102.614C102.614 49.1934 102.26 47.7681 101.531 46.501L99.7974 47.499ZM100.614 50.75V51.35H102.614V50.75H100.614ZM100.614 51.35C100.614 52.4516 100.355 53.4042 99.8566 54.2355L101.572 55.2645C102.273 54.0958 102.614 52.7818 102.614 51.35H100.614ZM99.8566 54.2355C99.3457 55.0869 98.6529 55.7679 97.7619 56.2852L98.7662 58.0148C99.9419 57.3321 100.882 56.4131 101.572 55.2645L99.8566 54.2355ZM97.7711 56.28C96.9364 56.753 95.976 57 94.8641 57V59C96.2855 59 97.5918 58.6804 98.7571 58.02L97.7711 56.28ZM94.8641 57H82.5141V59H94.8641V57ZM106.327 56.6L105.595 57.2805L105.601 57.2874L105.607 57.2941L106.327 56.6ZM106.327 20.5L105.607 19.8059L105.601 19.8126L105.595 19.8195L106.327 20.5ZM116.777 20.1L116.137 20.8682L116.147 20.8763L116.157 20.884L116.777 20.1ZM118.377 22.5L117.413 22.7659L118.237 25.7506L119.315 22.8482L118.377 22.5ZM120.477 19.95L120.96 20.8256L120.97 20.82L120.477 19.95ZM134.177 20.6L133.458 21.295L133.458 21.295L134.177 20.6ZM134.177 31L133.458 30.305L133.458 30.3054L134.177 31ZM133.727 30.6L133.02 29.8929L133.02 29.8929L133.727 30.6ZM133.727 21L133.007 21.6931L133.013 21.7002L133.02 21.7071L133.727 21ZM120.127 20.95L120.752 21.7309L120.76 21.7246L120.768 21.7182L120.127 20.95ZM116.877 21.05L116.102 21.6817L116.115 21.6974L116.128 21.7126L116.877 21.05ZM106.727 20.95L105.991 20.2729L105.984 20.2811L105.977 20.2894L106.727 20.95ZM106.727 56.2L105.977 56.8606L105.991 56.8766L106.005 56.8919L106.727 56.2ZM133.727 55.75L133.031 55.0324L133.026 55.0376L133.02 55.0429L133.727 55.75ZM135.177 54.85L134.315 54.3443L134.315 54.3443L135.177 54.85ZM132.877 57.15L132.372 56.2873L132.372 56.2873L132.877 57.15ZM129.277 42.55L129.926 43.3112L129.928 43.3093L129.277 42.55ZM130.727 39.35L131.727 39.375L131.727 39.3625V39.35H130.727ZM131.327 39.35L132.327 39.3722L132.327 39.3611V39.35H131.327ZM129.727 42.95L130.384 43.7041L130.384 43.7041L129.727 42.95ZM109.527 57C108.581 57 107.77 56.655 107.047 55.9059L105.607 57.2941C106.685 58.4117 108.007 59 109.527 59V57ZM107.06 55.9195C106.378 55.1854 106.027 54.2844 106.027 53.15H104.027C104.027 54.7489 104.543 56.1479 105.595 57.2805L107.06 55.9195ZM106.027 53.15V23.95H104.027V53.15H106.027ZM106.027 23.95C106.027 22.8156 106.378 21.9146 107.06 21.1804L105.595 19.8195C104.543 20.9521 104.027 22.3511 104.027 23.95H106.027ZM107.047 21.1941C107.77 20.445 108.581 20.1 109.527 20.1V18.1C108.007 18.1 106.685 18.6883 105.607 19.8059L107.047 21.1941ZM109.527 20.1H114.077V18.1H109.527V20.1ZM114.077 20.1C114.833 20.1 115.509 20.3446 116.137 20.8682L117.418 19.3318C116.446 18.5221 115.322 18.1 114.077 18.1V20.1ZM116.157 20.884C116.793 21.388 117.204 22.0079 117.413 22.7659L119.341 22.2341C119.017 21.0588 118.361 20.0787 117.398 19.316L116.157 20.884ZM119.315 22.8482C119.676 21.8756 120.23 21.2284 120.96 20.8256L119.994 19.0744C118.791 19.7383 117.945 20.7911 117.44 22.1518L119.315 22.8482ZM120.97 20.82C121.822 20.3373 122.719 20.1 123.677 20.1V18.1C122.369 18.1 121.132 18.4294 119.984 19.08L120.97 20.82ZM123.677 20.1H130.577V18.1H123.677V20.1ZM130.577 20.1C131.749 20.1 132.686 20.4965 133.458 21.295L134.896 19.905C133.735 18.7035 132.272 18.1 130.577 18.1V20.1ZM133.458 21.295C134.243 22.1072 134.627 23.0574 134.627 24.2H136.627C136.627 22.5426 136.045 21.0928 134.896 19.905L133.458 21.295ZM134.627 24.2V27.4H136.627V24.2H134.627ZM134.627 27.4C134.627 28.5426 134.243 29.4928 133.458 30.305L134.896 31.695C136.045 30.5072 136.627 29.0574 136.627 27.4H134.627ZM133.458 30.3054C132.731 31.058 131.8 31.45 130.577 31.45V33.45C132.288 33.45 133.757 32.8754 134.897 31.6946L133.458 30.3054ZM130.577 31.45H119.977V33.45H130.577V31.45ZM119.977 31.45C120.031 31.45 120.256 31.4642 120.459 31.6679C120.663 31.8716 120.677 32.0959 120.677 32.15H118.677C118.677 32.4041 118.742 32.7784 119.045 33.0821C119.349 33.3858 119.723 33.45 119.977 33.45V31.45ZM120.677 32.15C120.677 32.2041 120.663 32.4284 120.459 32.6321C120.256 32.8358 120.031 32.85 119.977 32.85V30.85C119.723 30.85 119.349 30.9142 119.045 31.2179C118.742 31.5216 118.677 31.8959 118.677 32.15H120.677ZM119.977 32.85H130.577V30.85H119.977V32.85ZM130.577 32.85C132.087 32.85 133.399 32.3429 134.434 31.3071L133.02 29.8929C132.389 30.5237 131.601 30.85 130.577 30.85V32.85ZM134.434 31.3071C135.496 30.246 136.027 28.922 136.027 27.4H134.027C134.027 28.4114 133.692 29.2207 133.02 29.8929L134.434 31.3071ZM136.027 27.4V24.2H134.027V27.4H136.027ZM136.027 24.2C136.027 22.678 135.496 21.354 134.434 20.2929L133.02 21.7071C133.692 22.3793 134.027 23.1886 134.027 24.2H136.027ZM134.448 20.3069C133.415 19.2327 132.1 18.7 130.577 18.7V20.7C131.588 20.7 132.373 21.034 133.007 21.6931L134.448 20.3069ZM130.577 18.7H123.677V20.7H130.577V18.7ZM123.677 18.7C122.089 18.7 120.676 19.1908 119.487 20.1818L120.768 21.7182C121.578 21.0426 122.532 20.7 123.677 20.7V18.7ZM119.503 20.1691C118.184 21.2239 117.627 22.8516 117.627 24.8H119.627C119.627 23.215 120.071 22.2761 120.752 21.7309L119.503 20.1691ZM117.627 24.8C117.627 24.7459 117.642 24.5216 117.845 24.3179C118.049 24.1142 118.273 24.1 118.327 24.1V26.1C118.581 26.1 118.956 26.0358 119.259 25.7321C119.563 25.4284 119.627 25.0541 119.627 24.8H117.627ZM118.327 24.1C118.381 24.1 118.606 24.1142 118.809 24.3179C119.013 24.5216 119.027 24.7459 119.027 24.8H117.027C117.027 25.0541 117.092 25.4284 117.395 25.7321C117.699 26.0358 118.073 26.1 118.327 26.1V24.1ZM119.027 24.8V24.1H117.027V24.8H119.027ZM119.027 24.1C119.027 22.6915 118.556 21.4386 117.626 20.3874L116.128 21.7126C116.732 22.3948 117.027 23.1752 117.027 24.1H119.027ZM117.653 20.4183C116.735 19.2918 115.52 18.7 114.077 18.7V20.7C114.902 20.7 115.553 21.0082 116.102 21.6817L117.653 20.4183ZM114.077 18.7H109.527V20.7H114.077V18.7ZM109.527 18.7C108.138 18.7 106.941 19.2406 105.991 20.2729L107.463 21.6271C108.047 20.9927 108.716 20.7 109.527 20.7V18.7ZM105.977 20.2894C105.074 21.3152 104.627 22.5537 104.627 23.95H106.627C106.627 23.013 106.914 22.2515 107.478 21.6106L105.977 20.2894ZM104.627 23.95V53.15H106.627V23.95H104.627ZM104.627 53.15C104.627 54.5719 105.069 55.8293 105.977 56.8606L107.478 55.5394C106.919 54.904 106.627 54.1281 106.627 53.15H104.627ZM106.005 56.8919C106.959 57.8871 108.152 58.4 109.527 58.4V56.4C108.702 56.4 108.029 56.1129 107.449 55.5081L106.005 56.8919ZM109.527 58.4H129.627V56.4H109.527V58.4ZM129.627 58.4C131.511 58.4 133.137 57.7548 134.434 56.4571L133.02 55.0429C132.118 55.9452 131.01 56.4 129.627 56.4V58.4ZM134.424 56.4676C135.758 55.1722 136.427 53.5434 136.427 51.65H134.427C134.427 53.0233 133.963 54.1278 133.031 55.0324L134.424 56.4676ZM136.427 51.65C136.427 51.7041 136.413 51.9284 136.209 52.1321C136.006 52.3358 135.781 52.35 135.727 52.35V50.35C135.473 50.35 135.099 50.4142 134.795 50.7179C134.492 51.0216 134.427 51.3959 134.427 51.65H136.427ZM135.727 52.35C135.673 52.35 135.449 52.3358 135.245 52.1321C135.042 51.9284 135.027 51.7041 135.027 51.65H137.027C137.027 51.3959 136.963 51.0216 136.659 50.7179C136.356 50.4142 135.981 50.35 135.727 50.35V52.35ZM135.027 51.65C135.027 52.6465 134.788 53.5374 134.315 54.3443L136.04 55.3557C136.7 54.2292 137.027 52.9868 137.027 51.65H135.027ZM134.315 54.3443C133.834 55.1634 133.191 55.8071 132.372 56.2873L133.383 58.0127C134.497 57.3595 135.387 56.47 136.04 55.3557L134.315 54.3443ZM132.372 56.2873C131.569 56.7577 130.663 57 129.627 57V59C130.992 59 132.252 58.6757 133.383 58.0127L132.372 56.2873ZM129.627 57H109.527V59H129.627V57ZM120.677 44C120.677 44.0541 120.663 44.2784 120.459 44.4821C120.256 44.6858 120.031 44.7 119.977 44.7V42.7C119.723 42.7 119.349 42.7642 119.045 43.0679C118.742 43.3716 118.677 43.7459 118.677 44H120.677ZM119.977 44.7H125.877V42.7H119.977V44.7ZM125.877 44.7C127.442 44.7 128.817 44.2557 129.926 43.3112L128.629 41.7888C127.938 42.3777 127.046 42.7 125.877 42.7V44.7ZM129.928 43.3093C131.096 42.3081 131.687 40.9645 131.727 39.375L129.728 39.325C129.701 40.4022 129.325 41.1919 128.627 41.7907L129.928 43.3093ZM131.727 39.35C131.727 39.4041 131.713 39.6284 131.509 39.8321C131.306 40.0358 131.081 40.05 131.027 40.05V38.05C130.773 38.05 130.399 38.1142 130.095 38.4179C129.792 38.7216 129.727 39.0959 129.727 39.35H131.727ZM131.027 40.05C130.973 40.05 130.749 40.0358 130.545 39.8321C130.342 39.6284 130.327 39.4041 130.327 39.35H132.327C132.327 39.0959 132.263 38.7216 131.959 38.4179C131.656 38.1142 131.281 38.05 131.027 38.05V40.05ZM130.328 39.3278C130.3 40.5763 129.87 41.4995 129.071 42.1959L130.384 43.7041C131.651 42.6005 132.288 41.1237 132.327 39.3722L130.328 39.3278ZM129.071 42.1959C128.241 42.9182 127.2 43.3 125.877 43.3V45.3C127.621 45.3 129.147 44.7818 130.384 43.7041L129.071 42.1959ZM125.877 43.3H119.977V45.3H125.877V43.3ZM119.977 43.3C120.031 43.3 120.256 43.3142 120.459 43.5179C120.663 43.7216 120.677 43.9459 120.677 44H118.677C118.677 44.2541 118.742 44.6284 119.045 44.9321C119.349 45.2358 119.723 45.3 119.977 45.3V43.3ZM141.337 56.55L140.604 57.2305L140.617 57.244L140.63 57.2571L141.337 56.55ZM141.337 20.4L140.617 19.7059L140.611 19.7126L140.604 19.7195L141.337 20.4ZM151.737 20.25L151.044 20.9708L151.051 20.9774L151.058 20.9838L151.737 20.25ZM153.287 23.15L152.294 23.2703L152.71 26.7033L154.191 23.5781L153.287 23.15ZM156.537 19.9L156.047 19.0284L156.039 19.0329L156.537 19.9ZM169.037 20.15L168.49 20.9873L168.49 20.9873L169.037 20.15ZM172.637 24.2L173.542 23.7751L173.542 23.7751L172.637 24.2ZM172.087 35.3L172.933 35.8328L172.933 35.8328L172.087 35.3ZM167.187 39.15L166.849 38.2089L164.68 38.9883L166.731 40.0398L167.187 39.15ZM170.737 41.95L169.99 42.6144L169.999 42.6253L170.01 42.636L170.737 41.95ZM173.387 46.35L172.451 46.7031L172.454 46.709L173.387 46.35ZM172.887 56.45L172.192 55.731L172.192 55.731L172.887 56.45ZM160.637 56.5L159.918 57.1946L159.924 57.2009L159.93 57.2071L160.637 56.5ZM161.037 56.1L160.316 56.7925L160.33 56.8073L160.345 56.8214L161.037 56.1ZM172.437 56.05L173.13 56.7708L173.131 56.7703L172.437 56.05ZM172.737 46.35L171.804 46.709L171.808 46.7199L171.812 46.7307L172.737 46.35ZM170.087 42.05L169.37 42.7465L169.37 42.7465L170.087 42.05ZM166.437 39.4L166.866 38.4967L166.517 38.3309L166.147 38.443L166.437 39.4ZM166.587 38.7L166.28 37.7484L166.271 37.7513L166.587 38.7ZM171.487 35.1L170.65 34.5527L170.648 34.5567L171.487 35.1ZM172.087 24.5L171.174 24.9079L171.179 24.9198L171.185 24.9315L172.087 24.5ZM168.687 20.65L168.141 21.4876L168.149 21.4929L168.687 20.65ZM157.037 20.35L157.5 21.2363L157.508 21.2324L157.037 20.35ZM153.887 23.25L153.008 22.7729L153 22.7877L152.993 22.8028L153.887 23.25ZM151.487 20.85L150.766 21.5425L150.773 21.5499L150.78 21.5571L151.487 20.85ZM141.737 20.85L141.001 20.1729L140.994 20.1811L140.986 20.1894L141.737 20.85ZM141.737 56.1L141 56.7757L141.007 56.7839L141.015 56.7919L141.737 56.1ZM151.687 56.3L152.343 57.0546L152.352 57.0467L152.361 57.0385L151.687 56.3ZM152.087 56.7L152.765 57.4348L152.767 57.4338L152.087 56.7ZM144.537 56.9C143.578 56.9 142.763 56.5621 142.044 55.8429L140.63 57.2571C141.711 58.3379 143.029 58.9 144.537 58.9V56.9ZM142.07 55.8695C141.388 55.1354 141.037 54.2344 141.037 53.1H139.037C139.037 54.6989 139.553 56.0979 140.604 57.2305L142.07 55.8695ZM141.037 53.1V23.85H139.037V53.1H141.037ZM141.037 23.85C141.037 22.7156 141.388 21.8146 142.07 21.0804L140.604 19.7195C139.553 20.8521 139.037 22.2511 139.037 23.85H141.037ZM142.057 21.0941C142.779 20.345 143.59 20 144.537 20V18C143.017 18 141.695 18.5883 140.617 19.7059L142.057 21.0941ZM144.537 20H148.237V18H144.537V20ZM148.237 20C149.505 20 150.403 20.3544 151.044 20.9708L152.43 19.5292C151.338 18.479 149.902 18 148.237 18V20ZM151.058 20.9838C151.804 21.6746 152.193 22.431 152.294 23.2703L154.28 23.0297C154.115 21.669 153.47 20.4921 152.417 19.5162L151.058 20.9838ZM154.191 23.5781C154.681 22.5424 155.594 21.5948 157.035 20.7671L156.039 19.0329C154.346 20.0052 153.093 21.2242 152.383 22.7219L154.191 23.5781ZM157.027 20.7716C158.437 19.9788 160.271 19.55 162.587 19.55V17.55C160.036 17.55 157.837 18.0212 156.047 19.0284L157.027 20.7716ZM162.587 19.55C165.129 19.55 167.069 20.0591 168.49 20.9873L169.584 19.3127C167.738 18.1075 165.379 17.55 162.587 17.55V19.55ZM168.49 20.9873C169.981 21.961 171.05 23.1733 171.732 24.6249L173.542 23.7751C172.69 21.9601 171.36 20.4724 169.584 19.3127L168.49 20.9873ZM171.732 24.6249C172.439 26.1309 172.787 27.6696 172.787 29.25H174.787C174.787 27.3637 174.369 25.5358 173.542 23.7751L171.732 24.6249ZM172.787 29.25C172.787 31.3047 172.269 33.1349 171.241 34.7672L172.933 35.8328C174.172 33.8651 174.787 31.662 174.787 29.25H172.787ZM171.241 34.7672C170.235 36.3653 168.787 37.5125 166.849 38.2089L167.525 40.0911C169.854 39.2542 171.673 37.8347 172.933 35.8328L171.241 34.7672ZM166.731 40.0398C167.91 40.6447 168.997 41.4977 169.99 42.6144L171.485 41.2856C170.344 40.0023 169.064 38.9887 167.643 38.2602L166.731 40.0398ZM170.01 42.636C171.004 43.691 171.823 45.0384 172.452 46.7031L174.323 45.9969C173.618 44.1283 172.67 42.5423 171.465 41.264L170.01 42.636ZM172.454 46.709C173.066 48.2997 173.387 50.2386 173.387 52.55H175.387C175.387 50.0614 175.042 47.867 174.32 45.991L172.454 46.709ZM173.387 52.55C173.387 53.9634 172.963 54.9856 172.192 55.731L173.582 57.169C174.811 55.9811 175.387 54.4032 175.387 52.55H173.387ZM172.192 55.731C171.411 56.4863 170.36 56.9 168.937 56.9V58.9C170.781 58.9 172.364 58.347 173.582 57.169L172.192 55.731ZM168.937 56.9H164.137V58.9H168.937V56.9ZM164.137 56.9C162.984 56.9 162.078 56.5264 161.344 55.7929L159.93 57.2071C161.063 58.3402 162.49 58.9 164.137 58.9V56.9ZM161.357 55.8054C160.602 55.0235 160.237 54.1219 160.237 53.05H158.237C158.237 54.6447 158.806 56.0431 159.918 57.1946L161.357 55.8054ZM160.237 53.05C160.237 53.1041 160.223 53.3284 160.019 53.5321C159.816 53.7358 159.591 53.75 159.537 53.75V51.75C159.283 51.75 158.909 51.8142 158.605 52.1179C158.301 52.4216 158.237 52.7959 158.237 53.05H160.237ZM159.537 53.75C159.483 53.75 159.259 53.7358 159.055 53.5321C158.851 53.3284 158.837 53.1041 158.837 53.05H160.837C160.837 52.7959 160.773 52.4216 160.469 52.1179C160.166 51.8142 159.791 51.75 159.537 51.75V53.75ZM158.837 53.05C158.837 54.497 159.329 55.7651 160.316 56.7925L161.758 55.4075C161.145 54.7682 160.837 54.003 160.837 53.05H158.837ZM160.345 56.8214C161.378 57.8131 162.665 58.3 164.137 58.3V56.3C163.143 56.3 162.363 55.9869 161.73 55.3786L160.345 56.8214ZM164.137 58.3H168.937V56.3H164.137V58.3ZM168.937 58.3C170.602 58.3 172.038 57.821 173.13 56.7708L171.744 55.3292C171.103 55.9456 170.205 56.3 168.937 56.3V58.3ZM173.131 56.7703C174.261 55.6823 174.787 54.2372 174.787 52.55H172.787C172.787 53.7961 172.414 54.6843 171.743 55.3297L173.131 56.7703ZM174.787 52.55C174.787 50.0261 174.425 47.8222 173.662 45.9692L171.812 46.7307C172.449 48.2778 172.787 50.2073 172.787 52.55H174.787ZM173.67 45.991C172.964 44.1536 172.014 42.5991 170.805 41.3535L169.37 42.7465C170.361 43.7675 171.177 45.0797 171.804 46.709L173.67 45.991ZM170.805 41.3535C169.627 40.1406 168.315 39.1847 166.866 38.4967L166.008 40.3033C167.226 40.882 168.347 41.6927 169.37 42.7465L170.805 41.3535ZM166.147 38.443C165.161 38.7418 163.995 38.9 162.637 38.9V40.9C164.146 40.9 165.513 40.7249 166.727 40.357L166.147 38.443ZM162.637 38.9C162.64 38.9 162.829 38.8974 163.025 39.0657C163.251 39.2594 163.287 39.5021 163.287 39.6H161.287C161.287 39.8979 161.381 40.2906 161.724 40.5843C162.037 40.8526 162.401 40.9 162.637 40.9V38.9ZM163.287 39.6C163.287 39.6541 163.273 39.8784 163.069 40.0821C162.866 40.2858 162.641 40.3 162.587 40.3V38.3C162.333 38.3 161.959 38.3642 161.655 38.6679C161.351 38.9716 161.287 39.3459 161.287 39.6H163.287ZM162.587 40.3C164.144 40.3 165.587 40.0876 166.903 39.6487L166.271 37.7513C165.188 38.1124 163.963 38.3 162.587 38.3V40.3ZM166.895 39.6516C169.251 38.8901 171.086 37.5606 172.327 35.6432L170.648 34.5567C169.688 36.0394 168.256 37.1099 166.28 37.7484L166.895 39.6516ZM172.324 35.6472C173.569 33.7435 174.187 31.6016 174.187 29.25H172.187C172.187 31.2317 171.672 32.9899 170.65 34.5527L172.324 35.6472ZM174.187 29.25C174.187 27.4612 173.784 25.731 172.989 24.0685L171.185 24.9315C171.857 26.3357 172.187 27.7721 172.187 29.25H174.187ZM173 24.0921C172.214 22.332 170.942 20.9032 169.225 19.8071L168.149 21.4929C169.565 22.3968 170.561 23.5347 171.174 24.9079L173 24.0921ZM169.233 19.8124C167.486 18.673 165.243 18.15 162.587 18.15V20.15C164.998 20.15 166.821 20.627 168.141 21.4876L169.233 19.8124ZM162.587 18.15C160.27 18.15 158.248 18.571 156.567 19.4676L157.508 21.2324C158.827 20.529 160.504 20.15 162.587 20.15V18.15ZM156.574 19.4638C154.975 20.2997 153.757 21.3929 153.008 22.7729L154.766 23.7271C155.283 22.7738 156.166 21.9336 157.5 21.2362L156.574 19.4638ZM152.993 22.8028C152.565 23.6584 152.337 24.5439 152.337 25.45H154.337C154.337 24.8894 154.476 24.3083 154.782 23.6972L152.993 22.8028ZM152.337 25.45C152.337 25.3959 152.351 25.1716 152.555 24.9679C152.759 24.7642 152.983 24.75 153.037 24.75V26.75C153.291 26.75 153.666 26.6858 153.969 26.3821C154.273 26.0784 154.337 25.7041 154.337 25.45H152.337ZM153.037 24.75C153.091 24.75 153.316 24.7642 153.519 24.9679C153.723 25.1716 153.737 25.3959 153.737 25.45H151.737C151.737 25.7041 151.801 26.0784 152.105 26.3821C152.409 26.6858 152.783 26.75 153.037 26.75V24.75ZM153.737 25.45V23.9H151.737V25.45H153.737ZM153.737 23.9C153.737 22.4402 153.219 21.1676 152.194 20.1429L150.78 21.5571C151.422 22.1991 151.737 22.9598 151.737 23.9H153.737ZM152.208 20.1575C151.186 19.0919 149.822 18.6 148.237 18.6V20.6C149.385 20.6 150.189 20.9414 150.766 21.5425L152.208 20.1575ZM148.237 18.6H144.537V20.6H148.237V18.6ZM144.537 18.6C143.148 18.6 141.951 19.1407 141.001 20.1729L142.473 21.5271C143.057 20.8927 143.726 20.6 144.537 20.6V18.6ZM140.986 20.1894C140.084 21.2152 139.637 22.4537 139.637 23.85H141.637C141.637 22.913 141.924 22.1515 142.488 21.5106L140.986 20.1894ZM139.637 23.85V53.1H141.637V23.85H139.637ZM139.637 53.1C139.637 54.5216 140.079 55.7712 141 56.7757L142.474 55.4243C141.928 54.8288 141.637 54.0784 141.637 53.1H139.637ZM141.015 56.7919C141.969 57.7871 143.162 58.3 144.537 58.3V56.3C143.712 56.3 143.039 56.0129 142.459 55.4081L141.015 56.7919ZM144.537 58.3H148.837V56.3H144.537V58.3ZM148.837 58.3C150.182 58.3 151.373 57.8981 152.343 57.0546L151.031 55.5454C150.468 56.0353 149.759 56.3 148.837 56.3V58.3ZM152.361 57.0385C153.369 56.1188 153.837 54.8829 153.837 53.45H151.837C151.837 54.4171 151.539 55.0812 151.013 55.5615L152.361 57.0385ZM153.837 53.45C153.837 53.5041 153.823 53.7284 153.619 53.9321C153.416 54.1358 153.191 54.15 153.137 54.15V52.15C152.883 52.15 152.509 52.2142 152.205 52.5179C151.901 52.8216 151.837 53.1959 151.837 53.45H153.837ZM153.137 54.15C153.083 54.15 152.859 54.1358 152.655 53.9321C152.451 53.7284 152.437 53.5041 152.437 53.45H154.437C154.437 53.1959 154.373 52.8216 154.069 52.5179C153.766 52.2142 153.391 52.15 153.137 52.15V54.15ZM152.437 53.45C152.437 54.5318 152.084 55.3398 151.408 55.9662L152.767 57.4338C153.89 56.3935 154.437 55.0348 154.437 53.45H152.437ZM151.409 55.9652C150.746 56.5767 149.914 56.9 148.837 56.9V58.9C150.361 58.9 151.694 58.4233 152.765 57.4348L151.409 55.9652ZM148.837 56.9H144.537V58.9H148.837V56.9Z" fill="url(#paint1_linear_376_1396)" mask="url(#path-1-outside-1_376_1396)"/>
<path d="M162.502 31.1377C162.502 31.1377 162.502 31.138 162.501 31.1386L162.502 31.1377ZM162.352 31.0193C162.443 31.0855 162.48 31.1313 162.494 31.1539C162.48 31.1765 162.443 31.2223 162.352 31.2885C162.187 31.4088 161.915 31.538 161.535 31.6551C160.78 31.8873 159.707 32.0385 158.5 32.0385C157.293 32.0385 156.22 31.8873 155.465 31.6551C155.085 31.538 154.813 31.4088 154.648 31.2885C154.557 31.2223 154.52 31.1765 154.506 31.1539C154.52 31.1313 154.557 31.0855 154.648 31.0193C154.813 30.899 155.085 30.7698 155.465 30.6527C156.22 30.4205 157.293 30.2693 158.5 30.2693C159.707 30.2693 160.78 30.4205 161.535 30.6527C161.915 30.7698 162.187 30.899 162.352 31.0193ZM154.498 31.1701C154.498 31.1701 154.498 31.1698 154.499 31.1692L154.498 31.1701Z" stroke="#23BE87"/>
<path d="M61.5017 31.1377C61.5017 31.1377 61.5016 31.138 61.5014 31.1386L61.5017 31.1377ZM61.3522 31.0193C61.4432 31.0855 61.4796 31.1313 61.4936 31.1539C61.4796 31.1765 61.4432 31.2223 61.3522 31.2885C61.1868 31.4088 60.9154 31.538 60.5349 31.6551C59.7802 31.8873 58.7071 32.0385 57.5 32.0385C56.2929 32.0385 55.2198 31.8873 54.4651 31.6551C54.0846 31.538 53.8132 31.4088 53.6478 31.2885C53.5568 31.2223 53.5204 31.1765 53.5064 31.1539C53.5204 31.1313 53.5568 31.0855 53.6478 31.0193C53.8132 30.899 54.0846 30.7698 54.4651 30.6527C55.2198 30.4205 56.2929 30.2693 57.5 30.2693C58.7071 30.2693 59.7802 30.4205 60.5349 30.6527C60.9154 30.7698 61.1868 30.899 61.3522 31.0193ZM53.4983 31.1701C53.4983 31.1701 53.4984 31.1698 53.4986 31.1692L53.4983 31.1701Z" stroke="#2D7CCE"/>
<path d="M24.5017 31.1377C24.5017 31.1377 24.5016 31.138 24.5014 31.1386L24.5017 31.1377ZM24.3522 31.0193C24.4432 31.0855 24.4796 31.1313 24.4936 31.1539C24.4796 31.1765 24.4432 31.2223 24.3522 31.2885C24.1868 31.4088 23.9154 31.538 23.5349 31.6551C22.7802 31.8873 21.7071 32.0385 20.5 32.0385C19.2929 32.0385 18.2198 31.8873 17.4651 31.6551C17.0846 31.538 16.8132 31.4088 16.6478 31.2885C16.5568 31.2223 16.5204 31.1765 16.5064 31.1539C16.5204 31.1313 16.5568 31.0855 16.6478 31.0193C16.8132 30.899 17.0846 30.7698 17.4651 30.6527C18.2198 30.4205 19.2929 30.2693 20.5 30.2693C21.7071 30.2693 22.7802 30.4205 23.5349 30.6527C23.9154 30.7698 24.1868 30.899 24.3522 31.0193ZM16.4983 31.1701C16.4983 31.1701 16.4984 31.1698 16.4986 31.1692L16.4983 31.1701Z" stroke="#325BF1"/>
<defs>
<linearGradient id="paint0_linear_376_1396" x1="4.71053" y1="18.544" x2="115.781" y2="48.8916" gradientUnits="userSpaceOnUse">
<stop stop-color="#315AF1"/>
<stop offset="0.659213" stop-color="#2A8CBC"/>
<stop offset="0.842771" stop-color="#23BE87"/>
</linearGradient>
<linearGradient id="paint1_linear_376_1396" x1="1.62138" y1="37.3188" x2="57.721" y2="37.3188" gradientUnits="userSpaceOnUse">
<stop stop-color="#315AF1"/>
<stop offset="0.382247" stop-color="#2A8CBC"/>
<stop offset="1" stop-color="#23BE87"/>
</linearGradient>
</defs>
</svg>
