<svg xmlns="http://www.w3.org/2000/svg" width="547" height="203" fill="none"><path fill="#2D7CCE" stroke="#2D7CCE" stroke-width="3" d="M189.5 91c0 .122-.059.407-.531.836-.472.43-1.24.886-2.315 1.3-2.141.823-5.2 1.364-8.654 1.364s-6.513-.541-8.654-1.365c-1.075-.413-1.843-.869-2.315-1.299s-.531-.714-.531-.836.059-.407.531-.836c.472-.43 1.24-.886 2.315-1.3 2.141-.823 5.2-1.364 8.654-1.364s6.513.541 8.654 1.365c1.075.413 1.843.869 2.315 1.299s.531.714.531.836Z"/><path fill="#2F6FDC" stroke="#2F6FDB" stroke-width="3" d="M86.5 90c0 .122-.059.407-.53.836-.473.43-1.24.886-2.316 1.3-2.141.823-5.2 1.364-8.654 1.364s-6.513-.541-8.654-1.365c-1.075-.413-1.843-.869-2.315-1.299S63.5 90.122 63.5 90s.059-.407.53-.836c.473-.43 1.24-.886 2.316-1.3 2.141-.823 5.2-1.364 8.654-1.364s6.513.541 8.654 1.365c1.075.413 1.843.869 2.315 1.299s.531.714.531.836Z"/><path fill="#24BE87" stroke="#24BE87" stroke-width="3" d="M498.5 90c0 .122-.059.407-.531.836-.472.43-1.24.886-2.315 1.3-2.141.823-5.2 1.364-8.654 1.364s-6.513-.541-8.654-1.365c-1.075-.413-1.843-.869-2.315-1.299s-.531-.714-.531-.836.059-.407.531-.836c.472-.43 1.24-.886 2.315-1.3 2.141-.823 5.2-1.364 8.654-1.364s6.513.541 8.654 1.365c1.075.413 1.843.869 2.315 1.299s.531.714.531.836Z"/><mask id="c" width="522" height="123" x="4" y="53" fill="#000" maskUnits="userSpaceOnUse"><path fill="#fff" d="M4 53h522v123H4z"/><path d="M19.5 174q-5.7 0-9.6-4.05Q6 165.75 6 159.6V71.85Q6 65.7 9.9 61.5q4.05-4.2 9.6-4.2h12.6q5.1 0 8.85 3.45 3.9 3.3 4.65 8.55 2.55-6.3 9.3-9.9 6.9-3.75 15.75-3.75 12 0 19.95 5.25 8.1 5.1 12.15 13.35 4.2 8.25 4.2 17.55t-3.75 17.1-11.1 12.45q-7.35 4.5-18.3 4.5H48.3q-.9 0-.9-.9t.9-.9h25.5q10.35 0 17.25-4.35 7.05-4.35 10.5-11.55 3.6-7.35 3.6-16.35 0-8.85-3.9-16.65-3.9-7.95-11.55-12.75-7.65-4.95-19.05-4.95-8.7 0-15.15 3.9-6.3 3.75-8.7 9.45-1.05 2.25-1.05 5.25 0 1.05-.9 1.05t-.9-1.05v-4.2q0-5.55-3.45-9.15-3.3-3.6-8.4-3.6H19.5q-4.95 0-8.4 3.75-3.3 3.75-3.3 9v87.75q0 5.4 3.3 9 3.45 3.6 8.4 3.6h12.9q5.1 0 8.55-3.6t3.45-9q0-.9.9-.9t.9.9q0 6-4.05 10.2-3.9 4.2-9.75 4.2zm109.863-.3q-5.55 0-9.6-4.05-3.9-4.2-3.9-10.35V71.55q0-6.15 3.9-10.35 4.05-4.2 9.6-4.2h11.1q6.6 0 10.5 3.75 4.05 3.75 4.65 8.7 2.7-5.7 9.75-9.75 7.2-4.05 18.15-4.05 12 0 19.35 4.8t10.8 12.15 3.45 15.15q0 10.05-5.1 18.15t-14.7 11.55q5.85 3 10.65 8.4 4.95 5.25 7.95 13.2 3 7.8 3 18.6 0 7.35-4.5 11.7t-11.85 4.35h-14.4q-6.3 0-10.5-4.2-4.2-4.35-4.2-10.35 0-.9.9-.9t.9.9q0 5.4 3.6 9.15 3.75 3.6 9.3 3.6h14.4q6.6 0 10.5-3.75 4.05-3.9 4.05-10.5 0-10.95-3.15-18.6-3-7.8-7.95-12.9t-10.95-7.95q-4.95 1.5-11.4 1.5-1.05 0-1.05-.9t.9-.9q6.6 0 12-1.8 9.75-3.15 14.7-10.8 5.1-7.8 5.1-17.55 0-7.35-3.3-14.25-3.15-7.05-10.2-11.55-6.9-4.5-18.3-4.5-9.9 0-16.65 3.6-6.6 3.45-9.45 8.7-1.65 3.3-1.65 6.6 0 .9-.9.9t-.9-.9V71.7q0-5.4-3.75-9.15-3.6-3.75-9.75-3.75h-11.1q-4.95 0-8.4 3.75-3.3 3.75-3.3 9v87.75q0 5.4 3.3 9 3.45 3.6 8.4 3.6h12.9q5.1 0 8.55-3 3.45-3.15 3.45-8.55 0-.9.9-.9t.9.9q0 6-4.05 9.75-3.9 3.6-9.75 3.6zm111.914.3q-5.55 0-9.6-4.2-3.9-4.2-3.9-10.35v-87.6q0-6.15 3.9-10.35 4.05-4.2 9.6-4.2h13.65q4.5 0 8.1 3 3.6 2.85 4.8 7.2 1.95-5.25 6.3-7.65 4.5-2.55 9.6-2.55h20.7q6.45 0 10.8 4.5t4.35 10.8v9.6q0 6.3-4.35 10.8-4.2 4.35-10.8 4.35h-31.8q-.9 0-.9-.9t.9-.9h31.8q5.7 0 9.45-3.75 3.9-3.9 3.9-9.6v-9.6q0-5.7-3.9-9.6-3.75-3.9-9.45-3.9h-20.7q-6.15 0-10.65 3.75-4.5 3.6-4.5 11.55 0 .9-.9.9t-.9-.9v-2.1q0-5.25-3.45-9.15-3.3-4.05-8.4-4.05h-13.65q-4.95 0-8.4 3.75-3.3 3.75-3.3 9v87.6q0 5.4 3.3 9.15 3.45 3.6 8.4 3.6h60.3q7.35 0 12.3-4.95 5.1-4.95 5.1-12.3 0-.9.9-.9t.9.9q0 5.25-2.55 9.6t-6.9 6.9-9.75 2.55zm30.45-42q0-.9.9-.9h17.7q6.15 0 10.2-3.45 4.2-3.6 4.35-9.6 0-.9.9-.9t.9.9q-.15 6.75-4.8 10.8t-11.55 4.05h-17.7q-.9 0-.9-.9m80.844 42q-5.55 0-10.2-2.55-4.5-2.7-7.2-7.2t-2.7-10.2v-3.3q0-5.4 2.55-9.9 2.7-4.5 7.05-7.2 4.35-2.85 9.75-2.85V99.45q-5.55-.15-9.9-2.85t-6.9-7.05-2.55-9.45v-3.3q0-5.55 2.55-9.9 2.7-4.35 7.05-6.9 4.5-2.7 9.9-2.7h37.8q5.55 0 9.9 2.7 4.5 2.55 7.05 6.9 2.7 4.35 2.7 9.9v3.3q0 5.1-2.55 9.45-2.4 4.35-6.9 7.05-4.35 2.7-10.2 2.85v25.35q0 .9-.9.9t-.9-.9V98.55q0-.9.75-.9 8.25 0 13.5-5.1 5.4-5.1 5.4-12.45v-3.3q0-4.95-2.4-9t-6.45-6.3q-4.05-2.4-9-2.4h-37.8q-7.35 0-12.6 5.1-5.1 5.1-5.1 12.6v3.3q0 7.35 5.25 12.45t13.2 5.1q.9 0 .9.9v33.15q0 .75-.9.75-5.1 0-9.3 2.55-4.2 2.4-6.75 6.6-2.4 4.05-2.4 9.15v3.3q0 7.8 5.25 13.05 5.4 5.1 13.05 5.1h37.05q7.8 0 13.05-5.1 5.4-5.25 5.4-13.05v-1.8q0-8.85-5.55-14.4-5.4-5.55-14.1-5.7-1.95 0-4.2.75-2.1.75-4.05 2.55-.9.6-1.5 0t.15-1.35q1.8-1.8 4.5-2.7 2.85-1.05 5.1-1.05 6.3 0 11.1 2.85t7.5 7.8q2.85 4.95 2.85 11.25v1.8q0 5.7-2.7 10.2t-7.35 7.2q-4.5 2.55-10.2 2.55zm81.04-.3q-5.55 0-9.6-4.05-3.9-4.2-3.9-10.35V71.55q0-6.15 3.9-10.35 4.05-4.2 9.6-4.2h11.1q6.6 0 10.5 3.75 4.05 3.75 4.65 8.7 2.7-5.7 9.75-9.75 7.2-4.05 18.15-4.05 12 0 19.35 4.8t10.8 12.15 3.45 15.15q0 10.05-5.1 18.15t-14.7 11.55q5.85 3 10.65 8.4 4.95 5.25 7.95 13.2 3 7.8 3 18.6 0 7.35-4.5 11.7t-11.85 4.35h-14.4q-6.3 0-10.5-4.2-4.2-4.35-4.2-10.35 0-.9.9-.9t.9.9q0 5.4 3.6 9.15 3.75 3.6 9.3 3.6h14.4q6.6 0 10.5-3.75 4.05-3.9 4.05-10.5 0-10.95-3.15-18.6-3-7.8-7.95-12.9t-10.95-7.95q-4.95 1.5-11.4 1.5-1.05 0-1.05-.9t.9-.9q6.6 0 12-1.8 9.75-3.15 14.7-10.8 5.1-7.8 5.1-17.55 0-7.35-3.3-14.25-3.15-7.05-10.2-11.55-6.9-4.5-18.3-4.5-9.9 0-16.65 3.6-6.6 3.45-9.45 8.7-1.65 3.3-1.65 6.6 0 .9-.9.9t-.9-.9V71.7q0-5.4-3.75-9.15-3.6-3.75-9.75-3.75h-11.1q-4.95 0-8.4 3.75-3.3 3.75-3.3 9v87.75q0 5.4 3.3 9 3.45 3.6 8.4 3.6h12.9q5.1 0 8.55-3 3.45-3.15 3.45-8.55 0-.9.9-.9t.9.9q0 6-4.05 9.75-3.9 3.6-9.75 3.6z"/></mask><path fill="url(#a)" d="M19.5 174q-5.7 0-9.6-4.05Q6 165.75 6 159.6V71.85Q6 65.7 9.9 61.5q4.05-4.2 9.6-4.2h12.6q5.1 0 8.85 3.45 3.9 3.3 4.65 8.55 2.55-6.3 9.3-9.9 6.9-3.75 15.75-3.75 12 0 19.95 5.25 8.1 5.1 12.15 13.35 4.2 8.25 4.2 17.55t-3.75 17.1-11.1 12.45q-7.35 4.5-18.3 4.5H48.3q-.9 0-.9-.9t.9-.9h25.5q10.35 0 17.25-4.35 7.05-4.35 10.5-11.55 3.6-7.35 3.6-16.35 0-8.85-3.9-16.65-3.9-7.95-11.55-12.75-7.65-4.95-19.05-4.95-8.7 0-15.15 3.9-6.3 3.75-8.7 9.45-1.05 2.25-1.05 5.25 0 1.05-.9 1.05t-.9-1.05v-4.2q0-5.55-3.45-9.15-3.3-3.6-8.4-3.6H19.5q-4.95 0-8.4 3.75-3.3 3.75-3.3 9v87.75q0 5.4 3.3 9 3.45 3.6 8.4 3.6h12.9q5.1 0 8.55-3.6t3.45-9q0-.9.9-.9t.9.9q0 6-4.05 10.2-3.9 4.2-9.75 4.2zm109.863-.3q-5.55 0-9.6-4.05-3.9-4.2-3.9-10.35V71.55q0-6.15 3.9-10.35 4.05-4.2 9.6-4.2h11.1q6.6 0 10.5 3.75 4.05 3.75 4.65 8.7 2.7-5.7 9.75-9.75 7.2-4.05 18.15-4.05 12 0 19.35 4.8t10.8 12.15 3.45 15.15q0 10.05-5.1 18.15t-14.7 11.55q5.85 3 10.65 8.4 4.95 5.25 7.95 13.2 3 7.8 3 18.6 0 7.35-4.5 11.7t-11.85 4.35h-14.4q-6.3 0-10.5-4.2-4.2-4.35-4.2-10.35 0-.9.9-.9t.9.9q0 5.4 3.6 9.15 3.75 3.6 9.3 3.6h14.4q6.6 0 10.5-3.75 4.05-3.9 4.05-10.5 0-10.95-3.15-18.6-3-7.8-7.95-12.9t-10.95-7.95q-4.95 1.5-11.4 1.5-1.05 0-1.05-.9t.9-.9q6.6 0 12-1.8 9.75-3.15 14.7-10.8 5.1-7.8 5.1-17.55 0-7.35-3.3-14.25-3.15-7.05-10.2-11.55-6.9-4.5-18.3-4.5-9.9 0-16.65 3.6-6.6 3.45-9.45 8.7-1.65 3.3-1.65 6.6 0 .9-.9.9t-.9-.9V71.7q0-5.4-3.75-9.15-3.6-3.75-9.75-3.75h-11.1q-4.95 0-8.4 3.75-3.3 3.75-3.3 9v87.75q0 5.4 3.3 9 3.45 3.6 8.4 3.6h12.9q5.1 0 8.55-3 3.45-3.15 3.45-8.55 0-.9.9-.9t.9.9q0 6-4.05 9.75-3.9 3.6-9.75 3.6zm111.914.3q-5.55 0-9.6-4.2-3.9-4.2-3.9-10.35v-87.6q0-6.15 3.9-10.35 4.05-4.2 9.6-4.2h13.65q4.5 0 8.1 3 3.6 2.85 4.8 7.2 1.95-5.25 6.3-7.65 4.5-2.55 9.6-2.55h20.7q6.45 0 10.8 4.5t4.35 10.8v9.6q0 6.3-4.35 10.8-4.2 4.35-10.8 4.35h-31.8q-.9 0-.9-.9t.9-.9h31.8q5.7 0 9.45-3.75 3.9-3.9 3.9-9.6v-9.6q0-5.7-3.9-9.6-3.75-3.9-9.45-3.9h-20.7q-6.15 0-10.65 3.75-4.5 3.6-4.5 11.55 0 .9-.9.9t-.9-.9v-2.1q0-5.25-3.45-9.15-3.3-4.05-8.4-4.05h-13.65q-4.95 0-8.4 3.75-3.3 3.75-3.3 9v87.6q0 5.4 3.3 9.15 3.45 3.6 8.4 3.6h60.3q7.35 0 12.3-4.95 5.1-4.95 5.1-12.3 0-.9.9-.9t.9.9q0 5.25-2.55 9.6t-6.9 6.9-9.75 2.55zm30.45-42q0-.9.9-.9h17.7q6.15 0 10.2-3.45 4.2-3.6 4.35-9.6 0-.9.9-.9t.9.9q-.15 6.75-4.8 10.8t-11.55 4.05h-17.7q-.9 0-.9-.9m80.844 42q-5.55 0-10.2-2.55-4.5-2.7-7.2-7.2t-2.7-10.2v-3.3q0-5.4 2.55-9.9 2.7-4.5 7.05-7.2 4.35-2.85 9.75-2.85V99.45q-5.55-.15-9.9-2.85t-6.9-7.05-2.55-9.45v-3.3q0-5.55 2.55-9.9 2.7-4.35 7.05-6.9 4.5-2.7 9.9-2.7h37.8q5.55 0 9.9 2.7 4.5 2.55 7.05 6.9 2.7 4.35 2.7 9.9v3.3q0 5.1-2.55 9.45-2.4 4.35-6.9 7.05-4.35 2.7-10.2 2.85v25.35q0 .9-.9.9t-.9-.9V98.55q0-.9.75-.9 8.25 0 13.5-5.1 5.4-5.1 5.4-12.45v-3.3q0-4.95-2.4-9t-6.45-6.3q-4.05-2.4-9-2.4h-37.8q-7.35 0-12.6 5.1-5.1 5.1-5.1 12.6v3.3q0 7.35 5.25 12.45t13.2 5.1q.9 0 .9.9v33.15q0 .75-.9.75-5.1 0-9.3 2.55-4.2 2.4-6.75 6.6-2.4 4.05-2.4 9.15v3.3q0 7.8 5.25 13.05 5.4 5.1 13.05 5.1h37.05q7.8 0 13.05-5.1 5.4-5.25 5.4-13.05v-1.8q0-8.85-5.55-14.4-5.4-5.55-14.1-5.7-1.95 0-4.2.75-2.1.75-4.05 2.55-.9.6-1.5 0t.15-1.35q1.8-1.8 4.5-2.7 2.85-1.05 5.1-1.05 6.3 0 11.1 2.85t7.5 7.8q2.85 4.95 2.85 11.25v1.8q0 5.7-2.7 10.2t-7.35 7.2q-4.5 2.55-10.2 2.55zm81.04-.3q-5.55 0-9.6-4.05-3.9-4.2-3.9-10.35V71.55q0-6.15 3.9-10.35 4.05-4.2 9.6-4.2h11.1q6.6 0 10.5 3.75 4.05 3.75 4.65 8.7 2.7-5.7 9.75-9.75 7.2-4.05 18.15-4.05 12 0 19.35 4.8t10.8 12.15 3.45 15.15q0 10.05-5.1 18.15t-14.7 11.55q5.85 3 10.65 8.4 4.95 5.25 7.95 13.2 3 7.8 3 18.6 0 7.35-4.5 11.7t-11.85 4.35h-14.4q-6.3 0-10.5-4.2-4.2-4.35-4.2-10.35 0-.9.9-.9t.9.9q0 5.4 3.6 9.15 3.75 3.6 9.3 3.6h14.4q6.6 0 10.5-3.75 4.05-3.9 4.05-10.5 0-10.95-3.15-18.6-3-7.8-7.95-12.9t-10.95-7.95q-4.95 1.5-11.4 1.5-1.05 0-1.05-.9t.9-.9q6.6 0 12-1.8 9.75-3.15 14.7-10.8 5.1-7.8 5.1-17.55 0-7.35-3.3-14.25-3.15-7.05-10.2-11.55-6.9-4.5-18.3-4.5-9.9 0-16.65 3.6-6.6 3.45-9.45 8.7-1.65 3.3-1.65 6.6 0 .9-.9.9t-.9-.9V71.7q0-5.4-3.75-9.15-3.6-3.75-9.75-3.75h-11.1q-4.95 0-8.4 3.75-3.3 3.75-3.3 9v87.75q0 5.4 3.3 9 3.45 3.6 8.4 3.6h12.9q5.1 0 8.55-3 3.45-3.15 3.45-8.55 0-.9.9-.9t.9.9q0 6-4.05 9.75-3.9 3.6-9.75 3.6z"/><path fill="url(#b)" d="m9.9 169.95-1.466 1.361.013.013.012.013zm0-108.45-1.44-1.388-.013.013-.013.014zm31.05-.75-1.354 1.472.03.028.032.027zm4.65 8.55-1.98.283 1.05 7.346 2.784-6.879zm9.3-9.9.941 1.765.007-.004.007-.004zm35.7 1.5-1.102 1.669.018.012.018.011zm12.15 13.35-1.795.881.006.013.007.013zm.45 34.65-1.803-.867zm-11.1 12.45 1.044 1.706.013-.008.012-.008zm-1.05-1.65L90 117.998l-.008.005-.009.005zm10.5-11.55-1.796-.88-.004.008-.004.008zm-.3-33-1.796.88.004.008.003.006zM89.7 62.4l-1.087 1.68.012.007.012.007zm-34.2-1.05 1.023 1.719.012-.008zm-8.7 9.45 1.812.846.017-.035.014-.035zm-6.3-8.1-1.474 1.351.015.017.015.016zm-29.4.15-1.472-1.354-.015.016-.014.017zm0 105.75-1.474 1.351.015.017.015.016zm29.85 0-1.444-1.384zm1.2 1.2-1.44-1.388-.013.013-.013.014zM19.5 172c-3.265 0-5.942-1.135-8.16-3.437l-2.88 2.774C11.441 174.435 15.164 176 19.5 176zm-8.134-3.411C9.136 166.188 8 163.236 8 159.6H4c0 4.565 1.464 8.512 4.434 11.711zM8 159.6V71.85H4v87.75zm0-87.75c0-3.635 1.136-6.588 3.366-8.99l-2.932-2.72C5.464 63.336 4 67.284 4 71.85zm3.34-8.962c2.344-2.431 5.033-3.588 8.16-3.588v-4c-4.273 0-7.984 1.643-11.04 4.812zM19.5 59.3h12.6v-4H19.5zm12.6 0c2.899 0 5.365.962 7.496 2.922l2.708-2.944c-2.87-2.64-6.303-3.978-10.204-3.978zm7.558 2.977c2.21 1.87 3.529 4.27 3.962 7.306l3.96-.566c-.566-3.965-2.349-7.264-5.338-9.794zm7.796 7.773c1.502-3.71 4.246-6.676 8.387-8.885l-1.882-3.53C49.1 60.227 45.644 63.86 43.746 68.55zm8.401-8.893c4.271-2.321 9.186-3.507 14.795-3.507v-4c-6.19 0-11.776 1.314-16.705 3.993zM70.65 57.65c7.71 0 13.95 1.685 18.848 4.919l2.204-3.338C86 55.465 78.94 53.65 70.65 53.65zm18.884 4.943c5.1 3.21 8.891 7.385 11.421 12.538l3.59-1.762c-2.87-5.847-7.18-10.572-12.88-14.161zm11.434 12.564c2.656 5.218 3.982 10.757 3.982 16.643h4c0-6.514-1.474-12.675-4.418-18.457zM104.95 91.8c0 5.923-1.192 11.324-3.553 16.233l3.606 1.734c2.639-5.491 3.947-11.49 3.947-17.967zm-3.553 16.233c-2.336 4.861-5.781 8.726-10.366 11.627l2.138 3.38c5.215-3.299 9.17-7.734 11.834-13.273zm-10.341 11.611c-4.511 2.762-10.226 4.206-17.256 4.206v4c7.57 0 14.055-1.556 19.344-4.794zM73.8 123.85H48.3v4h25.5zm-25.5 0c.008 0 .382.003.74.361.357.357.36.731.36.739h-4c0 .608.153 1.432.81 2.089.658.658 1.482.811 2.09.811zm1.1 1.1c0 .008-.003.382-.36.739-.358.358-.732.361-.74.361v-4c-.608 0-1.432.153-2.09.811-.657.657-.81 1.481-.81 2.089zm-1.1 1.1h25.5v-4H48.3zm25.5 0c7.177 0 13.322-1.509 18.317-4.658l-2.134-3.384c-4.205 2.651-9.56 4.042-16.183 4.042zm18.3-4.648c5.014-3.093 8.782-7.229 11.254-12.388l-3.608-1.728c-2.127 4.441-5.36 8.005-9.746 10.712zm11.246-12.372c2.547-5.201 3.804-10.956 3.804-17.23h-4c0 5.726-1.143 10.871-3.396 15.47zm3.804-17.23c0-6.206-1.37-12.062-4.111-17.544l-3.578 1.788c2.459 4.919 3.689 10.162 3.689 15.756zm-4.104-17.53c-2.768-5.642-6.875-10.17-12.283-13.564l-2.126 3.388c4.792 3.007 8.385 6.978 10.817 11.937zm-12.26-13.55c-5.496-3.556-12.247-5.27-20.136-5.27v4c7.311 0 13.26 1.585 17.963 4.63zM70.65 55.45c-6.108 0-11.527 1.372-16.185 4.188l2.07 3.424c3.942-2.384 8.623-3.612 14.115-3.612zm-16.173 4.181c-4.497 2.677-7.725 6.13-9.52 10.393l3.686 1.552c1.405-3.337 3.977-6.184 7.88-8.507zm-9.49 10.323c-.846 1.814-1.237 3.864-1.237 6.096h4c0-1.768.309-3.218.862-4.404zM43.75 76.05c0 .11-.03-.18.257-.514.337-.394.747-.436.843-.436v4c.696 0 1.556-.217 2.194-.96.586-.686.706-1.5.706-2.09zm1.1-.95c.096 0 .506.042.843.436.287.335.257.625.257.514h-4c0 .59.12 1.404.706 2.09.638.743 1.498.96 2.194.96zm1.1.95v-4.2h-4v4.2zm0-4.2c0-4.152-1.308-7.718-4.006-10.534l-2.888 2.768c1.902 1.984 2.894 4.518 2.894 7.766zm-3.976-10.501C39.377 58.515 36.033 57.1 32.1 57.1v4c2.867 0 5.123.985 6.926 2.951zM32.1 57.1H19.5v4h12.6zm-12.6 0c-3.878 0-7.206 1.498-9.872 4.396l2.944 2.708c1.934-2.102 4.206-3.104 6.928-3.104zm-9.901 4.429C7.059 64.414 5.8 67.89 5.8 71.85h4c0-3.04.94-5.564 2.801-7.679zM5.8 71.85v87.75h4V71.85zm0 87.75c0 4.043 1.25 7.542 3.826 10.351l2.948-2.702C10.75 165.258 9.8 162.757 9.8 159.6zm3.856 10.384c2.674 2.79 5.994 4.216 9.844 4.216v-4c-2.75 0-5.03-.974-6.956-2.984zM19.5 174.2h12.9v-4H19.5zm12.9 0c3.931 0 7.307-1.413 9.994-4.216l-2.888-2.768c-1.913 1.997-4.237 2.984-7.106 2.984zm9.994-4.216c2.688-2.805 4.006-6.315 4.006-10.384h-4c0 3.131-.982 5.621-2.894 7.616zM46.4 159.6c0 .008-.003.382-.36.739-.358.358-.732.361-.74.361v-4c-.608 0-1.432.153-2.09.811-.657.657-.81 1.481-.81 2.089zm-1.1 1.1c-.008 0-.382-.003-.74-.361-.357-.357-.36-.731-.36-.739h4c0-.608-.153-1.432-.81-2.089-.658-.658-1.482-.811-2.09-.811zm-1.1-1.1c0 3.498-1.16 6.396-3.49 8.812l2.88 2.776c3.07-3.184 4.61-7.086 4.61-11.588zm-3.516 8.839C38.472 170.822 35.757 172 32.4 172v4c4.443 0 8.228-1.622 11.216-4.839zM32.4 172H19.5v4h12.9zm87.363-2.35-1.465 1.361.025.027.026.026zm0-108.45-1.439-1.388-.013.013-.013.014zm31.2-.45-1.386 1.442.014.013.013.013zm4.65 8.7-1.985.24.832 6.867 2.961-6.25zm9.75-9.75-.98-1.743-.008.004-.008.005zm37.5.75-1.093 1.674zm10.8 12.15 1.811-.85zm-1.65 33.3 1.693 1.066zm-14.7 11.55-.676-1.882-4.337 1.559 4.101 2.103zm10.65 8.4-1.495 1.329.02.022.02.021zm7.95 13.2-1.871.706.005.012zm-1.5 30.3-1.39-1.438zm-36.75.15-1.439 1.389.013.013.012.012zm1.2-1.2-1.442 1.385.028.03.029.028zm34.2-.15 1.387 1.442.001-.001zm.9-29.1-1.866.718.008.022.009.021zm-7.95-12.9-1.435 1.393zm-10.95-7.95.858-1.807-.698-.331-.74.224zm.45-2.1-.615-1.903-.008.003-.009.003zm14.7-10.8-1.674-1.095-.005.008zm1.8-31.8-1.826.816.011.023.011.024zm-10.2-11.55-1.092 1.675.008.006.008.005zm-34.95-.9.927 1.772.007-.003.007-.004zm-9.45 8.7-1.757-.954-.017.03-.015.03zm-7.2-7.2-1.442 1.385.014.015.014.014zm-29.25 0-1.472-1.354-.015.016-.014.017zm0 105.75-1.474 1.351.015.017.015.016zm29.85.6 1.313 1.509.018-.016.018-.016zm1.2 1.2 1.357 1.47.002-.002zm-22.65 1.6c-3.151 0-5.847-1.126-8.186-3.464l-2.828 2.828c3.062 3.062 6.765 4.636 11.014 4.636zm-8.134-3.411c-2.23-2.401-3.366-5.353-3.366-8.989h-4c0 4.565 1.465 8.512 4.435 11.711zm-3.366-8.989V71.55h-4v87.75zm0-87.75c0-3.635 1.136-6.588 3.366-8.99l-2.931-2.72c-2.97 3.197-4.435 7.145-4.435 11.71zm3.34-8.962c2.345-2.431 5.034-3.588 8.16-3.588v-4c-4.273 0-7.984 1.643-11.039 4.812zm8.16-3.588h11.1v-4h-11.1zm11.1 0c4.004 0 6.965 1.125 9.114 3.192l2.773-2.884C149.298 56.375 145.26 55 140.463 55zm9.141 3.218c2.393 2.215 3.687 4.694 4.024 7.473l3.971-.482c-.463-3.821-2.269-7.142-5.277-9.927zm7.817 8.088c1.581-3.338 4.49-6.316 8.939-8.872l-1.993-3.468c-4.952 2.844-8.542 6.366-10.561 10.628zm8.923-8.863c4.419-2.485 10.105-3.793 17.169-3.793v-4c-7.535 0-13.949 1.392-19.13 4.307zm17.169-3.793c7.75 0 13.781 1.552 18.257 4.474l2.187-3.349c-5.324-3.477-12.193-5.125-20.444-5.125zm18.257 4.474c4.615 3.015 7.953 6.79 10.083 11.326l3.621-1.7c-2.471-5.263-6.332-9.589-11.517-12.974zm10.083 11.326c2.18 4.645 3.26 9.406 3.26 14.3h4c0-5.506-1.22-10.845-3.639-16zm3.26 14.3c0 6.343-1.603 12.02-4.792 17.084l3.385 2.132c3.611-5.736 5.407-12.159 5.407-19.216zm-4.792 17.084c-3.146 4.997-7.675 8.574-13.684 10.734l1.353 3.764c6.79-2.44 12.062-6.563 15.716-12.366zm-13.92 14.396c3.659 1.876 7.016 4.515 10.067 7.949l2.99-2.658c-3.348-3.766-7.091-6.727-11.232-8.851zm10.107 7.992c3.09 3.277 5.611 7.438 7.534 12.534l3.742-1.412c-2.077-5.504-4.855-10.143-8.366-13.866zm7.539 12.546c1.89 4.915 2.866 10.859 2.866 17.882h4c0-7.377-1.023-13.833-3.133-19.318zm2.866 17.882c0 4.46-1.348 7.805-3.89 10.262l2.78 2.876c3.458-3.343 5.11-7.798 5.11-13.138zm-3.89 10.262c-2.562 2.477-5.981 3.788-10.46 3.788v4c5.322 0 9.803-1.589 13.24-4.912zm-10.46 3.788h-14.4v4h14.4zm-14.4 0c-3.705 0-6.685-1.214-9.086-3.614l-2.828 2.828c3.2 3.2 7.22 4.786 11.914 4.786zm-9.061-3.589c-2.443-2.531-3.639-5.484-3.639-8.961h-4c0 4.523 1.605 8.47 4.761 11.739zm-3.639-8.961c0 .008-.003.382-.361.739-.357.358-.73.361-.739.361v-4c-.608 0-1.432.153-2.089.811-.657.657-.811 1.481-.811 2.089zm-1.1 1.1c-.008 0-.382-.003-.739-.361-.357-.357-.361-.731-.361-.739h4c0-.608-.153-1.432-.811-2.089-.657-.658-1.48-.811-2.089-.811zm-1.1-1.1c0 4.094 1.385 7.647 4.158 10.535l2.885-2.77c-2.027-2.112-3.043-4.659-3.043-7.765zm4.215 10.593c2.9 2.783 6.507 4.157 10.685 4.157v-4c-3.222 0-5.814-1.026-7.915-3.043zm10.685 4.157h14.4v-4h-14.4zm14.4 0c4.797 0 8.835-1.375 11.887-4.308l-2.773-2.884c-2.149 2.067-5.11 3.192-9.114 3.192zm11.888-4.309c3.159-3.043 4.662-7.1 4.662-11.941h-4c0 3.959-1.197 6.902-3.437 9.059zm4.662-11.941c0-7.481-1.074-13.956-3.3-19.362l-3.699 1.523c1.974 4.795 2.999 10.72 2.999 17.839zm-3.283-19.318c-2.08-5.408-4.864-9.95-8.382-13.575l-2.87 2.786c3.082 3.175 5.599 7.233 7.519 12.225zm-8.382-13.575c-3.454-3.559-7.296-6.354-11.527-8.364l-1.716 3.614c3.77 1.79 7.228 4.295 10.373 7.536zm-12.965-8.471c-3.072.931-6.67 1.414-10.82 1.414v4c4.45 0 8.453-.517 11.98-1.586zm-10.82 1.414c-.11 0 .18-.03.514.256.394.338.436.748.436.844h-4c0 .696.218 1.556.961 2.194.685.586 1.5.706 2.089.706zm.95 1.1c0 .008-.003.382-.361.739-.357.358-.73.361-.739.361v-4c-.608 0-1.432.153-2.089.811-.657.657-.811 1.481-.811 2.089zm-1.1 1.1c4.582 0 8.799-.625 12.633-1.903l-1.265-3.794c-3.367 1.122-7.149 1.697-11.368 1.697zm12.615-1.897c6.881-2.223 12.183-6.082 15.764-11.617l-3.358-2.173c-3.019 4.666-7.516 8.007-13.636 9.984zm15.759-11.609c3.623-5.54 5.426-11.774 5.426-18.644h-4c0 6.13-1.597 11.596-4.774 16.455zm5.426-18.644c0-5.21-1.172-10.255-3.495-15.113l-3.609 1.726c2.077 4.342 3.104 8.798 3.104 13.387zm-3.474-15.066c-2.273-5.087-5.949-9.228-10.95-12.42l-2.152 3.372c4.399 2.808 7.523 6.367 9.45 10.68zm-10.933-12.41c-5.028-3.278-11.548-4.824-19.393-4.824v4c7.356 0 13.035 1.454 17.208 4.175zm-19.393-4.824c-6.834 0-12.729 1.242-17.591 3.835l1.882 3.53c4.138-2.207 9.344-3.365 15.709-3.365zm-17.576 3.828c-4.665 2.438-8.15 5.591-10.281 9.518l3.515 1.908c1.668-3.073 4.484-5.72 8.619-7.882zm-10.313 9.578c-1.222 2.444-1.861 4.949-1.861 7.494h4c0-1.854.461-3.75 1.439-5.706zm-1.861 7.494c0-.008.004-.382.361-.74.357-.357.731-.36.739-.36v4c.609 0 1.432-.153 2.089-.81.658-.658.811-1.482.811-2.09zm1.1-1.1c.009 0 .382.003.739.36.358.358.361.732.361.74h-4c0 .608.154 1.432.811 2.09s1.481.81 2.089.81zm1.1 1.1V71.7h-4v4.65zm0-4.65c0-4.12-1.453-7.681-4.335-10.564l-2.829 2.828c2.117 2.118 3.164 4.656 3.164 7.736zm-4.307-10.535C148.81 58.2 145 56.8 140.463 56.8v4c3.664 0 6.353 1.1 8.308 3.135zM140.463 56.8h-11.1v4h11.1zm-11.1 0c-3.877 0-7.205 1.498-9.872 4.396l2.944 2.708c1.934-2.102 4.206-3.104 6.928-3.104zm-9.901 4.429c-2.539 2.885-3.799 6.362-3.799 10.321h4c0-3.04.94-5.564 2.802-7.679zm-3.799 10.321v87.75h4V71.55zm0 87.75c0 4.043 1.251 7.542 3.826 10.351l2.949-2.702c-1.825-1.991-2.775-4.492-2.775-7.649zm3.856 10.384c2.674 2.79 5.995 4.216 9.844 4.216v-4c-2.75 0-5.03-.974-6.956-2.984zm9.844 4.216h12.9v-4h-12.9zm12.9 0c3.823 0 7.156-1.137 9.863-3.491l-2.625-3.018c-1.893 1.646-4.26 2.509-7.238 2.509zm9.899-3.523c2.781-2.539 4.101-5.961 4.101-10.027h-4c0 3.134-.979 5.412-2.798 7.073zm4.101-10.027c0 .008-.003.382-.361.739-.357.358-.73.361-.739.361v-4c-.608 0-1.432.153-2.089.811-.657.657-.811 1.481-.811 2.089zm-1.1 1.1c-.008 0-.382-.003-.739-.361-.357-.357-.361-.731-.361-.739h4c0-.608-.153-1.432-.81-2.089-.658-.658-1.481-.811-2.09-.811zm-1.1-1.1c0 3.497-1.155 6.196-3.409 8.282l2.718 2.936c3.147-2.914 4.691-6.715 4.691-11.218zm-3.406 8.28c-2.192 2.023-4.941 3.07-8.394 3.07v4c4.347 0 8.098-1.353 11.107-4.13zm-8.394 3.07h-12.9v4h12.9zm89.414-1.9-1.465 1.361.013.014.013.013zm0-108.3-1.439-1.388-.013.013-.013.014zm31.35-1.2-1.28 1.536.019.017.02.015zm4.8 7.2-1.928.532 1.647 5.97 2.156-5.806zm6.3-7.65.967 1.751.009-.005.01-.006zm41.1 1.95-1.438 1.39zm0 31.2-1.438-1.39zm-1.35-1.2-1.414-1.414zm0-28.8-1.441 1.386.013.014.014.014zm-40.8-.15 1.25 1.562.015-.013.016-.013zm-9.75.3-1.55 1.263.025.032.027.03zm-30.45-.3-1.472-1.354-.014.016-.015.017zm0 105.75-1.501 1.321.028.032.029.031zm81-1.35-1.393-1.435-.01.01-.011.011zm4.35-2.7-1.725-1.011zm-6.9 6.9-1.011-1.725zm-10.8-43.8 1.297 1.522.005-.003zm4.35-9.6 2 .05v-.05zm1.8 0 2 .044v-.044zm-4.8 10.8 1.314 1.508zm-60.6 43.15c-3.126 0-5.815-1.157-8.16-3.588l-2.879 2.776c3.055 3.169 6.766 4.812 11.039 4.812zm-8.134-3.561c-2.23-2.401-3.366-5.354-3.366-8.989h-4c0 4.564 1.465 8.512 4.435 11.711zm-3.366-8.989v-87.6h-4v87.6zm0-87.6c0-3.635 1.136-6.588 3.366-8.99l-2.931-2.72c-2.97 3.197-4.435 7.145-4.435 11.71zm3.34-8.962c2.345-2.431 5.034-3.588 8.16-3.588v-4c-4.273 0-7.984 1.643-11.039 4.812zm8.16-3.588h13.65v-4h-13.65zm13.65 0c2.512 0 4.763.823 6.82 2.536l2.561-3.072c-2.744-2.287-5.892-3.464-9.381-3.464zm6.859 2.568c2.073 1.641 3.428 3.681 4.113 6.164l3.856-1.064c-.915-3.317-2.759-6.077-5.486-8.236zm7.916 6.328c1.156-3.112 2.965-5.256 5.392-6.595l-1.933-3.502c-3.373 1.86-5.764 4.817-7.209 8.705zm5.411-6.606c2.704-1.532 5.565-2.29 8.614-2.29v-4c-3.75 0-7.289.942-10.586 2.81zm8.614-2.29h20.7v-4h-20.7zm20.7 0c3.777 0 6.852 1.293 9.362 3.89l2.876-2.78c-3.289-3.403-7.414-5.11-12.238-5.11zm9.362 3.89c2.537 2.624 3.788 5.725 3.788 9.41h4c0-4.715-1.649-8.814-4.912-12.19zm3.788 9.41v9.6h4v-9.6zm0 9.6c0 3.685-1.251 6.786-3.788 9.41l2.876 2.78c3.263-3.376 4.912-7.475 4.912-12.19zm-3.788 9.41c-2.387 2.473-5.449 3.74-9.362 3.74v4c4.888 0 9.026-1.633 12.239-4.96zm-9.362 3.74h-31.8v4h31.8zm-31.8 0c.009 0 .382.003.74.36.357.358.36.732.36.74h-4c0 .608.154 1.432.811 2.09s1.481.81 2.089.81zm1.1 1.1c0 .008-.003.382-.36.74-.358.357-.731.36-.74.36v-4c-.608 0-1.432.153-2.089.81-.657.658-.811 1.482-.811 2.09zm-1.1 1.1h31.8v-4h-31.8zm31.8 0c4.287 0 7.96-1.43 10.865-4.336l-2.829-2.828c-2.095 2.095-4.722 3.164-8.036 3.164zm10.865-4.336c2.988-2.989 4.485-6.703 4.485-11.014h-4c0 3.29-1.103 5.975-3.314 8.186zm4.485-11.014v-9.6h-4v9.6zm0-9.6c0-4.31-1.497-8.025-4.485-11.014l-2.829 2.828c2.211 2.211 3.314 4.897 3.314 8.186zm-4.458-10.986c-2.899-3.015-6.58-4.514-10.892-4.514v4c3.289 0 5.908 1.101 8.009 3.286zM304.427 57.1h-20.7v4h20.7zm-20.7 0c-4.542 0-8.552 1.398-11.93 4.213l2.561 3.073c2.621-2.184 5.712-3.286 9.369-3.286zm-11.899 4.188c-3.637 2.91-5.251 7.449-5.251 13.112h4c0-4.937 1.387-8.098 3.75-9.988zM266.577 74.4c0-.008.004-.382.361-.74.358-.357.731-.36.739-.36v4c.609 0 1.432-.153 2.09-.81.657-.658.81-1.482.81-2.09zm1.1-1.1c.009 0 .382.003.74.36.357.358.36.732.36.74h-4c0 .608.154 1.432.811 2.09s1.481.81 2.089.81zm1.1 1.1v-2.1h-4v2.1zm0-2.1c0-3.984-1.325-7.506-3.952-10.475l-2.996 2.65c1.974 2.231 2.948 4.809 2.948 7.825zm-3.899-10.413c-2.569-3.153-5.933-4.787-9.951-4.787v4c2.782 0 5.019 1.066 6.85 3.313zm-9.951-4.787h-13.65v4h13.65zm-13.65 0c-3.877 0-7.205 1.498-9.872 4.396l2.944 2.708c1.934-2.102 4.206-3.104 6.928-3.104zm-9.901 4.429c-2.539 2.885-3.799 6.362-3.799 10.321h4c0-3.04.941-5.564 2.802-7.679zm-3.799 10.321v87.6h4v-87.6zm0 87.6c0 4.044 1.25 7.575 3.799 10.471l3.003-2.642c-1.852-2.104-2.802-4.673-2.802-7.829zm3.856 10.534c2.674 2.79 5.995 4.216 9.844 4.216v-4c-2.75 0-5.03-.974-6.956-2.984zm9.844 4.216h60.3v-4h-60.3zm60.3 0c5.401 0 10.019-1.84 13.715-5.536l-2.829-2.828c-2.904 2.904-6.487 4.364-10.886 4.364zm13.693-5.515c3.803-3.691 5.707-8.315 5.707-13.735h-4c0 4.38-1.495 7.956-4.493 10.865zm5.707-13.735c0 .008-.003.382-.36.739-.358.358-.731.361-.74.361v-4c-.608 0-1.432.153-2.089.811-.657.657-.811 1.481-.811 2.089zm-1.1 1.1c-.008 0-.382-.003-.739-.361-.357-.357-.361-.731-.361-.739h4c0-.608-.153-1.432-.81-2.089-.658-.658-1.481-.811-2.09-.811zm-1.1-1.1c0 3.16-.762 6.008-2.275 8.589l3.451 2.022c1.887-3.219 2.824-6.771 2.824-10.611zm-2.275 8.589a17 17 0 0 1-6.186 6.186l2.023 3.45a21 21 0 0 0 7.614-7.614zm-6.186 6.186c-2.572 1.507-5.468 2.275-8.739 2.275v4c3.93 0 7.533-.932 10.762-2.825zM301.577 172h-60.3v4h60.3zm-27.85-40c0 .008-.003.382-.36.739-.358.358-.731.361-.74.361v-4c-.608 0-1.432.153-2.089.811-.657.657-.811 1.481-.811 2.089zm-1.1 1.1h17.7v-4h-17.7zm17.7 0c4.497 0 8.38-1.272 11.497-3.928l-2.594-3.044c-2.282 1.944-5.2 2.972-8.903 2.972zm11.502-3.931c3.269-2.803 4.935-6.557 5.048-11.069l-3.999-.1c-.087 3.488-1.322 6.134-3.652 8.131zm5.048-11.119c0 .008-.003.382-.36.739-.358.358-.731.361-.74.361v-4c-.608 0-1.432.153-2.089.811-.657.657-.811 1.481-.811 2.089zm-1.1 1.1c-.008 0-.381-.003-.739-.361-.357-.357-.361-.731-.361-.739h4c0-.608-.153-1.432-.81-2.089-.658-.658-1.481-.811-2.09-.811zm-1.099-1.144c-.089 3.997-1.482 7.043-4.114 9.336l2.627 3.016c3.567-3.107 5.375-7.261 5.486-12.264zm-4.114 9.336c-2.692 2.344-6.058 3.558-10.237 3.558v4c5.022 0 9.356-1.487 12.864-4.542zm-10.237 3.558h-17.7v4h17.7zm-17.7 0c.009 0 .382.003.74.361.357.357.36.731.36.739h-4c0 .608.154 1.432.811 2.089.657.658 1.481.811 2.089.811zm69.744 40.55-1.029 1.715.034.02.034.019zm-7.2-7.2 1.715-1.029zm-.15-23.4-1.715-1.029-.012.021-.013.022zm7.05-7.2 1.055 1.699.021-.013.021-.013zm9.75-2.85v2h2v-2zm0-31.35h2v-1.947l-1.945-.052zm-9.9-2.85 1.055-1.7zm-6.9-29.7-1.699-1.055-.013.022-.013.021zm7.05-6.9 1.012 1.725.009-.005.008-.005zm57.6 0-1.054 1.7.034.02.034.02zm7.05 6.9-1.725 1.011.013.022.013.022zm.15 22.65-1.725-1.011-.013.022-.013.023zm-6.9 7.05-1.028-1.715-.013.008-.013.008zm-10.2 2.85-.051-2-1.949.05v1.95zm12.45-6.9-1.373-1.454-.01.01-.01.01zm3-24.75-1.72 1.02zm-6.45-6.3-1.019 1.72.024.015.024.013zm-59.4 2.7-1.393-1.435-.01.01-.011.01zm.15 28.35 1.394-1.435zm3.9 42.45.993 1.736.023-.013.022-.013zm-6.75 6.6-1.709-1.038-.006.009-.005.009zm2.85 25.5-1.414 1.414.02.02.021.02zm63.15 0 1.394 1.435.001-.001zm-.15-29.25-1.433 1.395.01.01.009.009zm-14.1-5.7.035-2h-.035zm-4.2.75-.632-1.897-.02.006-.02.008zm-4.05 2.55 1.11 1.664.131-.087.116-.107zm-1.35-1.35 1.415 1.414zm4.5-2.7.633 1.897.03-.01.029-.01zm23.7 9.6-1.755.958.011.02.011.02zm.15 23.25-1.714-1.029zm-7.349 7.2.986 1.74.009-.005.009-.005zm-47.251.55c-3.38 0-6.446-.773-9.238-2.304l-1.923 3.508c3.408 1.869 7.142 2.796 11.161 2.796zm-9.171-2.265a18.7 18.7 0 0 1-6.514-6.514l-3.429 2.058a22.7 22.7 0 0 0 7.885 7.886zm-6.514-6.514c-1.597-2.663-2.415-5.701-2.415-9.171h-4c0 4.13.983 7.892 2.986 11.229zm-2.415-9.171v-3.3h-4v3.3zm0-3.3c0-3.27.769-6.228 2.291-8.914l-3.481-1.972c-1.878 3.314-2.81 6.956-2.81 10.886zm2.265-8.871c1.641-2.734 3.767-4.902 6.39-6.53l-2.109-3.398c-3.177 1.972-5.751 4.604-7.711 7.87zm6.432-6.556c2.561-1.678 5.427-2.523 8.653-2.523v-4c-3.973 0-7.607 1.055-10.846 3.177zm10.653-4.523V99.45h-4v31.35zm-1.945-33.35c-3.377-.09-6.326-.952-8.9-2.55l-2.109 3.4c3.226 2.002 6.877 3.041 10.9 3.149zm-8.9-2.55c-2.628-1.63-4.696-3.746-6.229-6.361l-3.451 2.022c1.867 3.185 4.399 5.77 7.571 7.738zm-6.229-6.361c-1.518-2.59-2.276-5.39-2.276-8.439h-4c0 3.751.943 7.251 2.825 10.461zm-2.276-8.439v-3.3h-4v3.3zm0-3.3c0-3.381.773-6.326 2.276-8.889l-3.451-2.023c-1.897 3.238-2.825 6.893-2.825 10.912zm2.25-8.845c1.631-2.629 3.747-4.697 6.362-6.23l-2.023-3.45c-3.185 1.867-5.769 4.399-7.738 7.57zm6.379-6.24c2.68-1.608 5.623-2.415 8.871-2.415v-4c-3.951 0-7.608.993-10.929 2.985zm8.871-2.415h37.8v-4h-37.8zm37.8 0c3.36 0 6.289.812 8.846 2.4l2.109-3.4c-3.243-2.012-6.914-3-10.955-3zm8.914 2.44c2.702 1.531 4.794 3.583 6.311 6.171l3.451-2.022c-1.883-3.212-4.491-5.76-7.789-7.63zm6.337 6.215c1.587 2.557 2.399 5.485 2.399 8.845h4c0-4.04-.987-7.712-3-10.955zm2.399 8.845v3.3h4v-3.3zm0 3.3c0 3.049-.757 5.849-2.275 8.439l3.451 2.022c1.882-3.21 2.824-6.71 2.824-10.461zm-2.301 8.484c-1.419 2.573-3.462 4.672-6.177 6.301l2.057 3.43c3.285-1.97 5.842-4.572 7.623-7.799zm-6.203 6.317c-2.557 1.587-5.6 2.457-9.197 2.55l.103 3.998c4.203-.107 7.96-1.137 11.203-3.15zm-11.146 4.549v25.35h4V99.45zm0 25.35c0-.008.004-.382.361-.739.358-.358.731-.361.739-.361v4c.609 0 1.432-.153 2.09-.811.657-.657.81-1.481.81-2.089zm1.1-1.1c.009 0 .382.003.74.361.357.357.36.731.36.739h-4c0 .608.154 1.432.811 2.089.658.658 1.481.811 2.089.811zm1.1 1.1V98.55h-4v26.25zm0-26.25c0-.072.023.247-.276.605-.356.428-.81.495-.974.495v-4c-.663 0-1.492.217-2.098.945-.549.658-.652 1.427-.652 1.955zm-1.25 1.1c5.949 0 10.972-1.856 14.894-5.665l-2.787-2.87c-3.078 2.99-7.055 4.535-12.107 4.535zm14.874-5.646c3.995-3.773 6.026-8.447 6.026-13.904h-4c0 4.343-1.568 7.97-4.773 10.996zm6.026-13.904v-3.3h-4v3.3zm0-3.3c0-3.64-.886-6.995-2.679-10.02l-3.441 2.04c1.407 2.375 2.12 5.02 2.12 7.98zm-2.679-10.02c-1.778-3-4.184-5.353-7.199-7.028l-1.943 3.496c2.385 1.325 4.279 3.172 5.701 5.572zm-7.151-7c-3.025-1.793-6.38-2.68-10.02-2.68v4c2.961 0 5.606.713 7.981 2.12zm-10.02-2.68h-37.8v4h37.8zm-37.8 0c-5.417 0-10.118 1.901-13.993 5.665l2.787 2.87c3.125-3.036 6.824-4.535 11.206-4.535zm-14.014 5.686c-3.791 3.791-5.686 8.507-5.686 14.014h4c0-4.493 1.506-8.177 4.515-11.186zM332.271 76.8v3.3h4v-3.3zm0 3.3c0 5.438 1.967 10.106 5.857 13.885l2.787-2.87c-3.11-3.021-4.644-6.653-4.644-11.015zm5.857 13.885c3.907 3.795 8.822 5.665 14.593 5.665v-4c-4.828 0-8.713-1.53-11.806-4.535zm14.593 5.665c-.008 0-.381-.003-.739-.36-.357-.358-.361-.732-.361-.74h4c0-.608-.153-1.432-.81-2.09-.658-.657-1.481-.81-2.09-.81zm-1.1-1.1v33.15h4V98.55zm0 33.15c0-.164.067-.617.495-.974.358-.298.677-.276.605-.276v4c.529 0 1.298-.103 1.956-.651.728-.607.944-1.435.944-2.099zm1.1-1.25c-3.751 0-7.212.943-10.337 2.84l2.075 3.42c2.475-1.503 5.214-2.26 8.262-2.26zm-10.292 2.814c-3.099 1.771-5.594 4.213-7.467 7.298l3.419 2.076c1.527-2.515 3.532-4.473 6.033-5.902zm-7.478 7.316c-1.798 3.035-2.68 6.442-2.68 10.17h4c0-3.072.719-5.765 2.121-8.13zm-2.68 10.17v3.3h4v-3.3zm0 3.3c0 5.701 1.941 10.569 5.836 14.464l2.829-2.828c-3.105-3.105-4.665-6.937-4.665-11.636zm5.877 14.504c3.984 3.762 8.83 5.646 14.423 5.646v-4c-4.606 0-8.46-1.516-11.676-4.554zm14.423 5.646h37.05v-4h-37.05zm37.05 0c5.683 0 10.545-1.877 14.444-5.665l-2.787-2.87c-3.101 3.012-6.939 4.535-11.657 4.535zm14.445-5.666c4.002-3.891 6.005-8.765 6.005-14.484h-4c0 4.681-1.596 8.507-4.794 11.616zm6.005-14.484v-1.8h-4v1.8zm0-1.8c0-6.357-2.011-11.69-6.135-15.814l-2.829 2.828c3.276 3.276 4.964 7.543 4.964 12.986zm-6.116-15.795c-4.015-4.126-9.242-6.197-15.499-6.305l-.069 4c5.343.092 9.516 1.821 12.701 5.095zm-15.534-6.305c-1.555 0-3.171.299-4.832.853l1.265 3.794c1.339-.446 2.523-.647 3.567-.647zm-4.872.867c-1.697.606-3.273 1.615-4.734 2.963l2.713 2.94c1.139-1.052 2.263-1.743 3.366-2.137zm-4.487 2.769c-.11.073.001-.036.284-.036.151 0 .309.032.457.097a1 1 0 0 1 .283.189l-2.829 2.828c.522.522 1.238.886 2.089.886.784 0 1.445-.309 1.935-.636zm1.024.25c.045.045.142.156.219.343.082.2.117.428.092.654-.047.419-.26.58-.161.481l-2.829-2.828c-.401.401-.889 1.037-.986 1.906-.108.976.324 1.76.836 2.272zm.15 1.478c.955-.955 2.177-1.703 3.718-2.217l-1.265-3.794c-2.059.686-3.837 1.738-5.282 3.183zm3.777-2.237c1.751-.645 3.211-.927 4.408-.927v-4c-1.802 0-3.742.418-5.791 1.173zm4.408-.927c3.888 0 7.227.876 10.079 2.57l2.043-3.44c-3.548-2.106-7.609-3.13-12.122-3.13zm10.079 2.57c2.888 1.714 5.136 4.05 6.766 7.038l3.511-1.916c-1.97-3.612-4.722-6.476-8.234-8.562zm6.788 7.078c1.708 2.966 2.583 6.365 2.583 10.252h4c0-4.513-1.024-8.614-3.116-12.248zm2.583 10.252v1.8h4v-1.8zm0 1.8c0 3.47-.817 6.508-2.414 9.171l3.429 2.058c2.003-3.337 2.985-7.099 2.985-11.229zm-2.414 9.171c-1.622 2.703-3.825 4.865-6.64 6.499l2.009 3.46c3.385-1.966 6.082-4.604 8.06-7.901zm-6.622 6.489c-2.669 1.513-5.723 2.29-9.214 2.29v4c4.11 0 7.856-.923 11.187-2.81zm-9.214 2.29h-37.05v4h37.05zm34.39-2.35-1.465 1.361.025.027.026.026zm0-108.45-1.439-1.388-.013.013-.013.014zm31.2-.45-1.386 1.442.014.013.014.013zm4.65 8.7-1.985.24.832 6.867 2.961-6.25zm9.75-9.75-.98-1.743-.008.004-.008.005zm37.5.75-1.093 1.674zm10.8 12.15 1.811-.85zm-1.65 33.3 1.693 1.066zm-14.7 11.55-.676-1.882-4.337 1.559 4.101 2.103zm10.65 8.4-1.494 1.329.019.022.02.021zm7.95 13.2-1.871.706.005.012zm-1.5 30.3-1.39-1.438zm-36.75.15-1.438 1.389.012.013.012.012zm1.2-1.2-1.442 1.385.028.03.029.028zm34.2-.15 1.387 1.442.001-.001zm.9-29.1-1.866.718.008.022.009.021zm-7.95-12.9-1.435 1.393zm-10.95-7.95.858-1.807-.698-.331-.74.224zm.45-2.1-.615-1.903-.008.003-.009.003zm14.7-10.8-1.674-1.095-.005.008zm1.8-31.8-1.826.816.011.023.011.024zm-10.2-11.55-1.092 1.675.008.006.008.005zm-34.95-.9.927 1.772.007-.003.008-.004zm-9.45 8.7-1.757-.954-.016.03-.016.03zm-7.2-7.2-1.442 1.385.014.015.014.014zm-29.25 0-1.472-1.354-.014.016-.015.017zm0 105.75-1.474 1.351.015.017.015.016zm29.85.6 1.313 1.509.018-.016.018-.016zm1.2 1.2 1.357 1.47.002-.002zm-22.65 1.6c-3.151 0-5.847-1.126-8.185-3.464l-2.829 2.828c3.062 3.062 6.765 4.636 11.014 4.636zm-8.134-3.411c-2.23-2.401-3.366-5.353-3.366-8.989h-4c0 4.565 1.465 8.512 4.435 11.711zm-3.366-8.989V71.55h-4v87.75zm0-87.75c0-3.635 1.136-6.588 3.366-8.99l-2.931-2.72c-2.97 3.197-4.435 7.145-4.435 11.71zm3.34-8.962c2.345-2.431 5.034-3.588 8.16-3.588v-4c-4.273 0-7.984 1.643-11.039 4.812zm8.16-3.588h11.1v-4h-11.1zm11.1 0c4.004 0 6.965 1.125 9.114 3.192l2.773-2.884c-3.052-2.933-7.09-4.308-11.887-4.308zm9.142 3.218c2.392 2.215 3.686 4.694 4.023 7.473l3.971-.482c-.463-3.821-2.269-7.142-5.277-9.927zm7.816 8.088c1.581-3.338 4.49-6.316 8.939-8.872l-1.993-3.468c-4.952 2.844-8.542 6.366-10.561 10.628zm8.923-8.863c4.419-2.485 10.105-3.793 17.169-3.793v-4c-7.535 0-13.949 1.392-19.13 4.307zm17.169-3.793c7.75 0 13.781 1.552 18.257 4.474l2.187-3.349c-5.324-3.477-12.193-5.125-20.444-5.125zm18.257 4.474c4.615 3.015 7.953 6.79 10.083 11.326l3.621-1.7c-2.471-5.263-6.332-9.589-11.517-12.974zm10.083 11.326c2.18 4.645 3.26 9.406 3.26 14.3h4c0-5.506-1.22-10.845-3.639-16zm3.26 14.3c0 6.343-1.603 12.02-4.792 17.084l3.385 2.132c3.611-5.736 5.407-12.159 5.407-19.216zm-4.792 17.084c-3.146 4.997-7.675 8.574-13.684 10.734l1.353 3.764c6.791-2.44 12.062-6.563 15.716-12.366zm-13.92 14.396c3.659 1.876 7.016 4.515 10.068 7.949l2.989-2.658c-3.348-3.766-7.091-6.727-11.232-8.851zm10.107 7.992c3.09 3.277 5.611 7.438 7.534 12.534l3.743-1.412c-2.077-5.504-4.856-10.143-8.366-13.866zm7.539 12.546c1.89 4.915 2.866 10.859 2.866 17.882h4c0-7.377-1.023-13.833-3.133-19.318zm2.866 17.882c0 4.46-1.347 7.805-3.89 10.262l2.78 2.876c3.458-3.343 5.11-7.798 5.11-13.138zm-3.89 10.262c-2.562 2.477-5.981 3.788-10.46 3.788v4c5.322 0 9.803-1.589 13.24-4.912zm-10.46 3.788h-14.4v4h14.4zm-14.4 0c-3.705 0-6.685-1.214-9.085-3.614l-2.829 2.828c3.2 3.2 7.22 4.786 11.914 4.786zm-9.061-3.589c-2.443-2.531-3.639-5.484-3.639-8.961h-4c0 4.523 1.605 8.47 4.762 11.739zm-3.639-8.961c0 .008-.003.382-.36.739-.358.358-.731.361-.74.361v-4c-.608 0-1.432.153-2.089.811-.657.657-.811 1.481-.811 2.089zm-1.1 1.1c-.008 0-.382-.003-.739-.361-.357-.357-.361-.731-.361-.739h4c0-.608-.153-1.432-.81-2.089-.658-.658-1.481-.811-2.09-.811zm-1.1-1.1c0 4.094 1.385 7.647 4.158 10.535l2.885-2.77c-2.027-2.112-3.043-4.659-3.043-7.765zm4.215 10.593c2.9 2.783 6.507 4.157 10.685 4.157v-4c-3.222 0-5.814-1.026-7.915-3.043zm10.685 4.157h14.4v-4h-14.4zm14.4 0c4.797 0 8.835-1.375 11.887-4.308l-2.773-2.884c-2.149 2.067-5.11 3.192-9.114 3.192zm11.888-4.309c3.159-3.043 4.662-7.1 4.662-11.941h-4c0 3.959-1.197 6.902-3.437 9.059zm4.662-11.941c0-7.481-1.074-13.956-3.3-19.362l-3.699 1.523c1.974 4.795 2.999 10.72 2.999 17.839zm-3.283-19.318c-2.08-5.408-4.864-9.95-8.381-13.575l-2.871 2.786c3.082 3.175 5.599 7.233 7.519 12.225zm-8.381-13.575c-3.455-3.559-7.297-6.354-11.528-8.364l-1.716 3.614c3.77 1.79 7.228 4.295 10.373 7.536zm-12.966-8.471c-3.072.931-6.67 1.414-10.82 1.414v4c4.451 0 8.453-.517 11.98-1.586zm-10.82 1.414c-.11 0 .18-.03.514.256.394.338.436.748.436.844h-4c0 .696.218 1.556.961 2.194.685.586 1.5.706 2.089.706zm.95 1.1c0 .008-.003.382-.36.739-.358.358-.731.361-.74.361v-4c-.608 0-1.432.153-2.089.811-.657.657-.811 1.481-.811 2.089zm-1.1 1.1c4.582 0 8.799-.625 12.633-1.903l-1.265-3.794c-3.367 1.122-7.149 1.697-11.368 1.697zm12.615-1.897c6.881-2.223 12.183-6.082 15.765-11.617l-3.359-2.173c-3.019 4.666-7.516 8.007-13.636 9.984zm15.759-11.609c3.623-5.54 5.426-11.774 5.426-18.644h-4c0 6.13-1.596 11.596-4.774 16.455zm5.426-18.644c0-5.21-1.172-10.255-3.495-15.113l-3.609 1.726c2.077 4.342 3.104 8.798 3.104 13.387zm-3.474-15.066c-2.272-5.087-5.949-9.228-10.95-12.42l-2.152 3.372c4.399 2.808 7.523 6.367 9.45 10.68zm-10.933-12.41c-5.028-3.278-11.548-4.824-19.393-4.824v4c7.356 0 13.035 1.454 17.208 4.175zm-19.393-4.824c-6.834 0-12.728 1.242-17.591 3.835l1.883 3.53c4.137-2.207 9.343-3.365 15.708-3.365zm-17.576 3.828c-4.665 2.438-8.15 5.591-10.281 9.518l3.515 1.908c1.668-3.073 4.484-5.72 8.619-7.882zm-10.313 9.578c-1.222 2.444-1.861 4.949-1.861 7.494h4c0-1.854.461-3.75 1.439-5.706zm-1.861 7.494c0-.008.004-.382.361-.74.357-.357.731-.36.739-.36v4c.609 0 1.432-.153 2.09-.81.657-.658.81-1.482.81-2.09zm1.1-1.1c.009 0 .382.003.74.36.357.358.36.732.36.74h-4c0 .608.154 1.432.811 2.09s1.481.81 2.089.81zm1.1 1.1V71.7h-4v4.65zm0-4.65c0-4.12-1.453-7.681-4.335-10.564l-2.829 2.828c2.117 2.118 3.164 4.656 3.164 7.736zm-4.307-10.535c-2.846-2.965-6.656-4.365-11.193-4.365v4c3.664 0 6.353 1.1 8.308 3.135zM444.711 56.8h-11.1v4h11.1zm-11.1 0c-3.877 0-7.205 1.498-9.872 4.396l2.944 2.708c1.934-2.102 4.206-3.104 6.928-3.104zm-9.901 4.429c-2.539 2.885-3.799 6.362-3.799 10.321h4c0-3.04.941-5.564 2.802-7.679zm-3.799 10.321v87.75h4V71.55zm0 87.75c0 4.043 1.251 7.542 3.826 10.351l2.949-2.702c-1.825-1.991-2.775-4.492-2.775-7.649zm3.856 10.384c2.674 2.79 5.995 4.216 9.844 4.216v-4c-2.75 0-5.03-.974-6.956-2.984zm9.844 4.216h12.9v-4h-12.9zm12.9 0c3.823 0 7.156-1.137 9.863-3.491l-2.625-3.018c-1.893 1.646-4.26 2.509-7.238 2.509zm9.899-3.523c2.781-2.539 4.101-5.961 4.101-10.027h-4c0 3.134-.979 5.412-2.798 7.073zm4.101-10.027c0 .008-.003.382-.36.739-.358.358-.731.361-.74.361v-4c-.608 0-1.432.153-2.089.811-.657.657-.811 1.481-.811 2.089zm-1.1 1.1c-.008 0-.382-.003-.739-.361-.357-.357-.361-.731-.361-.739h4c0-.608-.153-1.432-.81-2.089-.658-.658-1.481-.811-2.09-.811zm-1.1-1.1c0 3.497-1.155 6.196-3.408 8.282l2.717 2.936c3.147-2.914 4.691-6.715 4.691-11.218zm-3.406 8.28c-2.192 2.023-4.941 3.07-8.394 3.07v4c4.347 0 8.098-1.353 11.107-4.13zm-8.394 3.07h-12.9v4h12.9z" mask="url(#c)"/><defs><linearGradient id="a" x1="37.869" x2="411.941" y1="65.752" y2="193.583" gradientUnits="userSpaceOnUse"><stop stop-color="#315AF1"/><stop offset=".29" stop-color="#2A8CBC"/><stop offset=".58" stop-color="#23BE87"/></linearGradient><linearGradient id="b" x1="26.776" x2="421.917" y1="101.5" y2="101.5" gradientUnits="userSpaceOnUse"><stop stop-color="#315AF1"/><stop offset=".5" stop-color="#2A8CBC"/><stop offset="1" stop-color="#23BE87"/></linearGradient></defs></svg>