<svg width="18" height="18" viewBox="0 0 18 18" fill="none" xmlns="http://www.w3.org/2000/svg">
<path d="M6.375 3C6.07953 3 5.78695 3.0582 5.51396 3.17127C5.24098 3.28434 4.99294 3.45008 4.78401 3.65901C4.57508 3.86794 4.40934 4.11598 4.29627 4.38896C4.1832 4.66194 4.125 4.95453 4.125 5.25C4.125 5.54547 4.1832 5.83806 4.29627 6.11104C4.40934 6.38402 4.57508 6.63206 4.78401 6.84099C4.99294 7.04992 5.24098 7.21566 5.51396 7.32873C5.78695 7.4418 6.07953 7.5 6.375 7.5C6.97174 7.5 7.54403 7.26295 7.96599 6.84099C8.38795 6.41903 8.625 5.84674 8.625 5.25C8.625 4.65326 8.38795 4.08097 7.96599 3.65901C7.54403 3.23705 6.97174 3 6.375 3ZM2.625 5.25C2.625 4.25544 3.02009 3.30161 3.72335 2.59835C4.42661 1.89509 5.38044 1.5 6.375 1.5C7.36956 1.5 8.32339 1.89509 9.02665 2.59835C9.72991 3.30161 10.125 4.25544 10.125 5.25C10.125 6.24456 9.72991 7.19839 9.02665 7.90165C8.32339 8.60491 7.36956 9 6.375 9C5.38044 9 4.42661 8.60491 3.72335 7.90165C3.02009 7.19839 2.625 6.24456 2.625 5.25ZM15.4298 4.236L15.8025 4.88625C16.2596 5.68225 16.5 6.58418 16.4997 7.50207C16.4995 8.41997 16.2585 9.32176 15.801 10.1175L15.4268 10.7678L14.127 10.02L14.5005 9.36975C14.8274 8.80142 14.9995 8.15732 14.9998 7.5017C15 6.84608 14.8284 6.20185 14.502 5.63325L14.1285 4.983L15.4298 4.236ZM13.1535 5.5425L13.5263 6.1935C13.7548 6.59139 13.8751 7.04225 13.8751 7.50113C13.8751 7.96 13.7548 8.41086 13.5263 8.80875L13.1513 9.459L11.8515 8.71125L12.225 8.061C12.323 7.89043 12.3746 7.69712 12.3746 7.50037C12.3746 7.30363 12.323 7.11033 12.225 6.93975L11.8523 6.2895L13.1535 5.5425ZM0 14.25C0 13.2554 0.395088 12.3016 1.09835 11.5983C1.80161 10.8951 2.75544 10.5 3.75 10.5H9C9.99456 10.5 10.9484 10.8951 11.6517 11.5983C12.3549 12.3016 12.75 13.2554 12.75 14.25V15.75H11.25V14.25C11.25 13.6533 11.0129 13.081 10.591 12.659C10.169 12.2371 9.59674 12 9 12H3.75C3.15326 12 2.58097 12.2371 2.15901 12.659C1.73705 13.081 1.5 13.6533 1.5 14.25V15.75H0V14.25Z" fill="black"/>
</svg>
