<svg width="18" height="18" viewBox="0 0 18 18" fill="none" xmlns="http://www.w3.org/2000/svg">
<path d="M15.4332 1.36879C15.2728 1.10442 15.0466 0.885587 14.7764 0.733411C14.5062 0.581235 14.2011 0.500847 13.8906 0.5H4.1094C3.4812 0.5 2.8899 0.832842 2.5668 1.36879L0.1287 5.40763C0.0443303 5.54668 -0.000175468 5.70603 5.19911e-07 5.86842C0.00359486 6.73203 0.323545 7.56477 0.9 8.21084V15.7105C0.9 16.6974 1.7073 17.5 2.7 17.5H15.3C16.2927 17.5 17.1 16.6974 17.1 15.7105V8.21084C17.6765 7.56477 17.9964 6.73203 18 5.86842C18.0002 5.70603 17.9557 5.54668 17.8713 5.40763L15.4332 1.36879ZM16.1856 6.093C16.13 6.525 15.9182 6.9221 15.5895 7.2101C15.2609 7.4981 14.8381 7.65728 14.4 7.65789C13.4073 7.65789 12.6 6.85532 12.6 5.86842C12.6 5.80758 12.5775 5.75389 12.5649 5.69663L12.5829 5.69305L11.898 2.28947H13.8906L16.1856 6.093ZM7.9371 2.28947H10.062L10.7937 5.92658C10.7622 6.88574 9.972 7.65789 9 7.65789C8.028 7.65789 7.2378 6.88574 7.2063 5.92658L7.9371 2.28947ZM4.1094 2.28947H6.102L5.418 5.69305L5.436 5.69663C5.4225 5.75389 5.4 5.80758 5.4 5.86842C5.4 6.85532 4.5927 7.65789 3.6 7.65789C3.16193 7.65728 2.73907 7.4981 2.41045 7.2101C2.08184 6.9221 1.86995 6.525 1.8144 6.093L4.1094 2.28947ZM7.2 15.7105V13.0263H10.8V15.7105H7.2ZM12.6 15.7105V13.0263C12.6 12.0394 11.7927 11.2368 10.8 11.2368H7.2C6.2073 11.2368 5.4 12.0394 5.4 13.0263V15.7105H2.7V9.32032C2.9889 9.39458 3.2868 9.44737 3.6 9.44737C4.11103 9.44764 4.61624 9.33946 5.08185 9.13008C5.54747 8.9207 5.96277 8.61493 6.3 8.23321C6.9597 8.97763 7.9263 9.44737 9 9.44737C10.0737 9.44737 11.0403 8.97763 11.7 8.23321C12.0372 8.61493 12.4525 8.9207 12.9181 9.13008C13.3838 9.33946 13.889 9.44764 14.4 9.44737C14.7132 9.44737 15.0111 9.39458 15.3 9.32032V15.7105H12.6Z" fill="black"/>
</svg>
