<svg xmlns="http://www.w3.org/2000/svg" width="18" height="18" fill="none"><path fill="#000" fill-rule="evenodd" d="M2.531 0A2.53 2.53 0 0 0 0 2.531V15.47A2.53 2.53 0 0 0 2.531 18H15.47A2.53 2.53 0 0 0 18 15.469V2.53A2.53 2.53 0 0 0 15.469 0zm-.844 6.75v8.719c0 .466.379.844.844.844H15.47a.844.844 0 0 0 .844-.844V6.75zm1.688-4.219a.844.844 0 0 0-.844.844v.011c0 .466.378.844.844.844h.011a.844.844 0 0 0 .844-.844v-.011a.844.844 0 0 0-.844-.844zm2.531.844a.844.844 0 0 1 .844-.844h.011a.844.844 0 0 1 .844.844v.011a.844.844 0 0 1-.844.844H6.75a.844.844 0 0 1-.844-.844zm4.219-.844a.844.844 0 0 0-.844.844v.011c0 .466.378.844.844.844h.011a.844.844 0 0 0 .844-.844v-.011a.844.844 0 0 0-.844-.844z" clip-rule="evenodd"/></svg>