<svg width="16" height="16" viewBox="0 0 16 16" fill="none" xmlns="http://www.w3.org/2000/svg">
<path d="M1 12.875C1 12.013 1.36875 11.1864 2.02513 10.5769C2.6815 9.96741 3.57174 9.625 4.5 9.625H11.5C12.4283 9.625 13.3185 9.96741 13.9749 10.5769C14.6313 11.1864 15 12.013 15 12.875C15 13.306 14.8156 13.7193 14.4874 14.024C14.1592 14.3288 13.7141 14.5 13.25 14.5H2.75C2.28587 14.5 1.84075 14.3288 1.51256 14.024C1.18437 13.7193 1 13.306 1 12.875Z" stroke="black" stroke-width="1.5" stroke-linejoin="round"/>
<path d="M8 6.375C9.44975 6.375 10.625 5.28369 10.625 3.9375C10.625 2.59131 9.44975 1.5 8 1.5C6.55025 1.5 5.375 2.59131 5.375 3.9375C5.375 5.28369 6.55025 6.375 8 6.375Z" stroke="black" stroke-width="1.5"/>
</svg>
