<svg width="30" height="25" viewBox="0 0 37 32" fill="none" xmlns="http://www.w3.org/2000/svg">
<path d="M26.0431 1C23.0123 1 20.3224 2.18947 18.5 4.23392C16.6776 2.18947 13.9877 1 10.9569 1C8.31714 1.00318 5.78642 2.0472 3.91984 3.90308C2.05325 5.75896 1.00319 8.27516 1 10.8998C1 21.7505 16.9627 30.4203 17.6416 30.7848C17.9054 30.9261 18.2004 31 18.5 31C18.7996 31 19.0946 30.9261 19.3584 30.7848C20.0373 30.4203 36 21.7505 36 10.8998C35.9968 8.27516 34.9468 5.75896 33.0802 3.90308C31.2136 2.0472 28.6829 1.00318 26.0431 1ZM25.2149 22.3535C23.1138 24.1262 20.8677 25.7217 18.5 27.1234C16.1323 25.7217 13.8862 24.1262 11.7851 22.3535C8.51595 19.5651 4.62069 15.3127 4.62069 10.8998C4.62069 9.22894 5.28825 7.62655 6.47652 6.4451C7.66479 5.26365 9.27643 4.59991 10.9569 4.59991C13.6422 4.59991 15.8901 6.00988 16.8239 8.28083C16.9598 8.61188 17.1919 8.89518 17.4904 9.0946C17.7889 9.29402 18.1404 9.40052 18.5 9.40052C18.8596 9.40052 19.2111 9.29402 19.5096 9.0946C19.8081 8.89518 20.0402 8.61188 20.1761 8.28083C21.1099 6.00988 23.3578 4.59991 26.0431 4.59991C27.7236 4.59991 29.3352 5.26365 30.5235 6.4451C31.7117 7.62655 32.3793 9.22894 32.3793 10.8998C32.3793 15.3127 28.4841 19.5651 25.2149 22.3535Z" fill="#F24E1E" stroke="#F24E1E" stroke-width="2"/>
</svg>
