<svg xmlns="http://www.w3.org/2000/svg" width="35" height="30" fill="none"><path fill="#F24E1E" d="M25.043 0c-3.03 0-5.72 1.19-7.543 3.234C15.678 1.189 12.988 0 9.957 0A10 10 0 0 0 2.92 2.903 9.88 9.88 0 0 0 0 9.9c0 10.85 15.963 19.52 16.642 19.885a1.82 1.82 0 0 0 1.716 0C19.038 29.42 35 20.75 35 9.9a9.88 9.88 0 0 0-2.92-6.997A10 10 0 0 0 25.043 0m-.828 21.354a49.6 49.6 0 0 1-6.715 4.77 49.6 49.6 0 0 1-6.715-4.77C7.516 18.565 3.621 14.313 3.621 9.9c0-1.671.667-3.273 1.856-4.455A6.36 6.36 0 0 1 9.957 3.6c2.685 0 4.933 1.41 5.867 3.68.136.332.368.615.666.815a1.818 1.818 0 0 0 2.686-.814C20.11 5.01 22.358 3.6 25.043 3.6c1.68 0 3.292.664 4.48 1.845A6.28 6.28 0 0 1 31.38 9.9c0 4.413-3.895 8.665-7.164 11.454"/></svg>